<?xml version="1.0" encoding="utf-8"?>
<!-- Generator: Adobe Illustrator 22.1.0, SVG Export Plug-In . SVG Version: 6.00 Build 0)  -->
<svg version="1.1" id="Layer_1" xmlns="http://www.w3.org/2000/svg" xmlns:xlink="http://www.w3.org/1999/xlink" x="0px" y="0px"
	 viewBox="0 0 40 40" style="enable-background:new 0 0 40 40;" xml:space="preserve">
<style type="text/css">
	.st0{fill:none;stroke:#F46036;stroke-width:0.75;stroke-linecap:round;stroke-linejoin:round;}
	.st1{fill:none;stroke:#F46036;stroke-width:0.75;stroke-linecap:round;stroke-linejoin:round;stroke-dasharray:0,2.8836;}
	.st2{fill:none;stroke:#F46036;stroke-width:0.75;stroke-linecap:round;stroke-linejoin:round;stroke-dasharray:0,2.953;}
	.st3{fill:#FFFFFF;}
	.st4{fill:#F46036;}
</style>
<g>
	<g>
		<line class="st0" x1="37.1" y1="38.9" x2="37.1" y2="38.9"/>
		<line class="st1" x1="34.2" y1="38.9" x2="4" y2="38.9"/>
		<line class="st0" x1="2.5" y1="38.9" x2="2.5" y2="38.9"/>
		<line class="st2" x1="2.5" y1="36" x2="2.5" y2="2"/>
		<line class="st0" x1="2.5" y1="0.6" x2="2.5" y2="0.6"/>
		<line class="st1" x1="5.4" y1="0.6" x2="35.7" y2="0.6"/>
		<line class="st0" x1="37.1" y1="0.6" x2="37.1" y2="0.6"/>
		<line class="st2" x1="37.1" y1="3.5" x2="37.1" y2="37.5"/>
	</g>
</g>
<rect x="2.7" y="1.3" transform="matrix(0.9982 5.953718e-02 -5.953718e-02 0.9982 1.2186 -1.1444)" class="st3" width="34.2" height="37.1"/>
<g>
	<path class="st4" d="M10.7,32.6c3.9-6.3,7.1-13.1,9.6-20.1c-0.2-0.1-0.5-0.1-0.7-0.2c-1,4.4-2,8.8-3,13.2c-0.3,1.3-1,3.1-0.1,4.3
		c0.7,0.9,1.9,1,2.8,0.6c1.5-0.6,2.5-2.2,3.3-3.4c1-1.5,1.9-3.1,2.5-4.8c1.3-3.4,2.1-7.3,1.7-10.9c-0.3-2.9-2.2-6.1-5.5-6
		c-3.3,0.1-6,3.2-7.9,5.6c-2.1,2.8-3.6,6-4.4,9.4c-0.6,2.5-0.9,6.8,2.6,7.2c1.9,0.2,4.1-1,5.7-1.8c2-0.9,4-1.9,5.9-3
		c3.8-2.2,7.3-4.7,10.6-7.6c0.3-0.3-0.2-0.8-0.5-0.5c-4.6,4.1-9.8,7.4-15.4,10c-1.5,0.7-2.9,1.3-4.5,1.8c-1,0.3-2.2,0.5-3.1-0.3
		c-0.8-0.7-1.1-1.7-1.2-2.8c-0.1-2.9,1.1-6.1,2.4-8.6c1.3-2.5,3-4.9,5.2-6.7c1.2-1.1,2.7-2.1,4.4-2.2c1.8-0.1,3.3,1.1,4,2.7
		c1.4,2.8,0.9,6.6,0.2,9.5c-0.7,2.9-1.9,5.7-3.5,8.3c-0.9,1.3-2.4,3.9-4.3,3.4c-2.1-0.6-0.4-4.6-0.1-6c0.8-3.8,1.7-7.5,2.5-11.3
		c0.1-0.4-0.5-0.6-0.7-0.2c-2.5,7-5.6,13.6-9.5,19.9C9.8,32.7,10.4,33,10.7,32.6L10.7,32.6z"/>
</g>
</svg>
