<?xml version="1.0" encoding="utf-8"?>
<!-- Generator: Adobe Illustrator 24.2.1, SVG Export Plug-In . SVG Version: 6.00 Build 0)  -->
<svg version="1.1" id="Layer_1" xmlns="http://www.w3.org/2000/svg" xmlns:xlink="http://www.w3.org/1999/xlink" x="0px" y="0px"
	 viewBox="0 0 1920 1080" style="enable-background:new 0 0 1920 1080;" xml:space="preserve">
<style type="text/css">
	.st0{fill:#A2EAE1;}
	.st1{fill:#A2EAE1;stroke:#0BB3A4;stroke-width:2;stroke-linecap:round;stroke-linejoin:round;}
	.st2{fill:#0BB3A4;stroke:#0BB3A4;stroke-width:2;stroke-linecap:round;stroke-linejoin:round;}
	.st3{fill:none;stroke:#0BB3A4;stroke-width:2;stroke-linecap:round;stroke-linejoin:round;}
	.st4{fill:#A2EAE1;stroke:#0BB3A4;stroke-width:2;stroke-linecap:round;stroke-linejoin:round;stroke-miterlimit:4;}
	.st5{fill:#0BB3A4;}
	.st6{fill:none;stroke:#FFFFFF;stroke-width:2;stroke-linecap:round;stroke-linejoin:round;}
	.st7{clip-path:url(#SVGID_2_);}
	.st8{fill:#0BB3A4;stroke:#0BB3A4;stroke-width:2.97;stroke-linecap:round;stroke-linejoin:round;}
	.st9{fill:#A2EAE1;stroke:#A2EAE1;stroke-width:2;stroke-linecap:round;stroke-linejoin:round;}
	.st10{fill:#A2EAE1;stroke:#0BB3A4;stroke-width:2.28;stroke-linecap:round;stroke-linejoin:round;}
	.st11{fill:#FFFFFF;stroke:#0BB3A4;stroke-width:2;stroke-linecap:round;stroke-linejoin:round;}
	.st12{fill:none;stroke:#0BB3A4;stroke-width:2;}
	.st13{clip-path:url(#SVGID_4_);}
	.st14{fill:none;stroke:#0BB3A4;stroke-width:2.26;stroke-linecap:round;stroke-linejoin:round;}
	.st15{fill:#0BB3A4;stroke:#0BB3A4;stroke-width:1.31;stroke-linecap:round;stroke-linejoin:round;}
	.st16{fill:#0BB3A4;stroke:#0BB3A4;stroke-width:1.72;stroke-linecap:round;stroke-linejoin:round;}
	.st17{fill:#0BB3A4;stroke:#0BB3A4;stroke-miterlimit:10;}
	.st18{fill:#A2EAE1;stroke:#0BB3A4;stroke-linejoin:round;}
	.st19{fill:#0BB3A4;stroke:#0BB3A4;stroke-width:2;}
	.st20{fill:#0BB3A4;stroke:#A2EAE1;stroke-width:2;stroke-linecap:round;stroke-linejoin:round;}
	.st21{fill:#A2EAE1;stroke:#A2EAE1;stroke-width:2;}
	.st22{fill:#0BB3A4;stroke:#0BB3A4;stroke-width:2.05;stroke-linecap:round;stroke-linejoin:round;}
	.st23{fill:none;stroke:#0BB3A4;stroke-width:1.6;stroke-linecap:round;stroke-linejoin:round;}
	.st24{fill:#0BB3A4;stroke:#0BB3A4;stroke-width:2.02;stroke-linecap:round;stroke-linejoin:round;}
	.st25{fill:#FFFFFF;stroke:#FFFFFF;stroke-miterlimit:10;}
	.st26{fill:none;stroke:#0BB3A4;stroke-miterlimit:10;}
	.st27{fill:#A2EAE1;stroke:#0BB3A4;stroke-width:2.49;stroke-linecap:round;stroke-linejoin:round;}
	.st28{fill:none;stroke:#0BB3A4;stroke-width:2.49;stroke-linecap:round;stroke-linejoin:round;}
	.st29{fill:#FFFFFF;}
	.st30{fill:none;stroke:#A2EAE1;stroke-width:4.9992;stroke-linecap:round;stroke-miterlimit:9.9985;stroke-dasharray:17.9973;}
	.st31{fill:#A2EAE1;stroke:#0BB3A4;stroke-width:2.24;stroke-linecap:round;stroke-linejoin:round;}
	.st32{fill:#A2EAE1;stroke:#FFFFFF;stroke-miterlimit:10;}
	.st33{fill:#FFFFFF;stroke:#A2EAE1;stroke-width:1.39;stroke-linecap:round;stroke-linejoin:round;}
	.st34{fill:#FFFFFF;stroke:#0BB3A4;stroke-width:1.35;stroke-linecap:round;stroke-linejoin:round;}
	.st35{fill:#0BB3A4;stroke:#FFFFFF;stroke-width:0.6;stroke-miterlimit:10;}
	.st36{fill:#0BB3A4;stroke:#0BB3A4;stroke-width:1.8;stroke-linecap:round;stroke-linejoin:round;}
</style>
<path class="st0" d="M1767.1,657.9c-0.1-1-0.3-1.9-0.6-2.9c-0.6-2.3-1.7-4.4-3.2-6.1c-0.2-0.4-0.4-0.8-0.6-1.2
	c-0.6-1.3-1.5-2.4-2.5-3.4c-0.1-0.4-0.3-0.8-0.4-1.1c1.6-3.2,2.3-6.7,1.8-10.3c0.7-4.8,0.1-9.7-1.7-14.2c0-0.1,0-0.2,0-0.2
	c-1.2-8.7-7.9-13.3-16.2-14.3c-2.5-0.2-5.1,0.1-7.5,0.8c-0.9,0.2-1.8,0.6-2.7,1c-7.8-12.8-27.3-14.8-40.2-8.4
	c-13.6,6.8-15.5,23.1-11.2,36.4c-2.5,0.7-4.9,1.7-7.2,3.1c-3.9,2.4-7.1,5.7-9.4,9.7c-1.1,2-2,4.2-2.7,6.4c-3.4-1.8-6.9-3.2-10.5-4.4
	c-6.3-2.1-14.4-1.4-19.9,2.7c-3.5,2.6-6.2,5.3-7.4,9.5c-0.1-0.7-0.2-1.3-0.3-2c-0.3-2-1.8-3.5-3.7-4c-1.9-0.5-3.9-0.2-5.9-0.2
	c-2.4,0-4.8-0.2-7.1-0.4c-0.8,0-1.5,0.7-1.5,1.5c0,0.8,0.7,1.5,1.5,1.5c0.4,0,0.8,0.1,1.2,0.1c0,0.1,0.1,0.2,0.1,0.3
	c0.8,1.7,2.5,2.6,3.9,3.8c0.3,1.1,0.7,2.1,1.3,3c0.3,0.5,0.7,1,1,1.5c0.2,1.6,0.2,3.2,0,4.7c0,0.8,0.6,1.4,1.4,1.5
	c-1.3,2.3-1.9,4.9-1.9,7.5c0,0.2,0,0.4,0,0.6c0.2,4.3,1.9,8.4,4.8,11.6l3.3,2.6c2.5,1.5,5.4,2.3,8.3,2.3c0.9,0,1.8-0.1,2.7-0.3
	c0.9,0,1.8-0.2,2.6-0.5l3.9-1.7c0.1-0.1,0.2-0.1,0.3-0.2c0.6-0.4,1.2-0.9,1.8-1.4s1.3-1,1.9-1.5l0.1-0.1c0.9-0.6,1.8-1.3,2.6-2.1
	c0.1,1.1,0.3,2.2,0.5,3.3c0.1,0.4,0.1,0.7,0.2,0.9V693c0,0,0,0.1,0,0.1c0.2,1.2,0.2,1.3,0,0.2c-0.2,1.6-0.5,3.2-0.7,4.7
	c-0.1,3.1,0.3,6.2,1.2,9.2c1.4,4.5,3.2,8.8,5.4,12.9c2.7,5.1,7.1,9.1,12.4,11.2c1.8,0.9,3.9,1.3,5.9,1.3c2.8,0.2,5.6-0.4,8.2-1.6
	c3-1,5.8-2.8,8-5.1c1.2-1.3,2.3-2.8,3.1-4.3c6.4,2.4,14.5,0.4,18.8-5c1.2,1.4,2.6,2.6,4.2,3.6c10,5.8,23.8,6.2,30.5-4.9
	c2.4-4.2,3.5-8.9,3.3-13.7c-0.1-1.2-0.3-2.3-0.4-3.4c1.4,1.1,3.2,1.6,5,1.6c8.8,0,10.5-11.1,5.1-15.3c1.9-1.7,3.5-3.7,4.8-5.9
	c0.9-1.9,1.8-3.8,2.5-5.8v-0.1c0.1-0.2,0.3-0.4,0.6-0.9C1768.6,667.6,1769,662.5,1767.1,657.9z"/>
<path class="st0" d="M1648.1,693.1v0.2l0,0V693.1L1648.1,693.1z"/>
<polygon class="st1" points="1240.8,1005.2 1258,981.8 1269,990 "/>
<path class="st2" d="M1427,355c2-4,2.1-6.9-3-9c-13.3-5.8-21.1,9.3-34.5,7.1c-7-1.2-11.2-11-11.5-18.1c0-0.8-24.1-2.8-34.6-2.1
	c-19.3-2-23-102,1.2-107.3c42.3-4.7,94.4-16.5,132.5,5.3c7.4,30.9,7.2,68.4,0.5,99.6c-24,3-62.4,3.2-87.5,5.5
	c4.2,13.5,21.5,5.7,32,4C1430.4,339.9,1438,349,1427,355z"/>
<path class="st1" d="M1720.7,732.4c2.1-2.4,6.3-3.5,6.3-3.5l0.4,0.2c3.5,2.4,5.7,6.4,5.7,10.7l0,0c0,0-3.5,2.8-7.1,3.2"/>
<polygon class="st3" points="1298.2,769.4 1316.9,693.5 1328.4,709.3 1317.2,755.9 1364.6,759.3 1376.4,775.2 "/>
<polygon class="st1" points="1298.2,769.4 1290.9,774.8 1369.3,780.4 1376.4,775.2 "/>
<polygon class="st1" points="1290.9,774.8 1309.6,698.9 1316.9,693.5 1298.2,769.4 "/>
<polygon class="st3" points="1476.9,639.6 1463.8,711.3 1452.2,695.6 1460.4,651.5 1416.1,645.9 1404.2,629.7 "/>
<polygon class="st1" points="1396.8,635.1 1404.2,629.7 1416.1,645.9 1408.7,651.4 "/>
<rect x="1449.8" y="696.4" transform="matrix(0.8072 -0.5903 0.5903 0.8072 -136.4151 994.7041)" class="st4" width="9.1" height="19.5"/>
<polygon class="st1" points="1408.7,651.4 1453.3,656.8 1460.4,651.5 1416.1,645.9 "/>
<polygon class="st1" points="1444.9,700.9 1453.3,656.8 1460.4,651.5 1452.2,695.6 "/>
<polygon class="st3" points="1382.7,645.4 1383.3,770.2 1393.4,762.8 1393.8,637.3 "/>
<polygon class="st1" points="1378.8,648.3 1379.4,773 1383.3,770.2 1382.7,645.4 "/>
<path class="st5" d="M1484.5,431.9c-10-4.8-16.4,9.9-12.9,17.6c4.4,6.6,18.2,4,20.1-3C1493,441.3,1488.1,434.1,1484.5,431.9z"/>
<path class="st5" d="M1503.9,429.9l-1.3-1.5c-9.9-11.6-27.3-12.9-38.9-3c-1.5,1.3-2.8,2.7-4,4.2l-10.7-8.2
	c13.8-18,39.6-21.5,57.6-7.7c2.3,1.8,4.4,3.7,6.3,5.9l1.3,1.5L1503.9,429.9z"/>
<path class="st5" d="M1526.6,412.3l-2.5-3c-20-23.4-55.3-26.2-78.7-6.2c-3,2.6-5.7,5.4-8.1,8.5l-21.7-16.6
	c27.9-36.5,80.1-43.4,116.6-15.6c4.6,3.5,8.9,7.6,12.7,12l2.5,3L1526.6,412.3z"/>
<polyline class="st1" points="1770,524 1736,528 1736,533 1748,538.4 1808.7,533.7 1806,525 1780,523 "/>
<path class="st3" d="M1719.2,430.3c41-1.7,82.9-1.7,123.8-0.8"/>
<path class="st3" d="M1719.2,430.3c-2,9.4-1.6,19.1-1.7,28.8c0,18.7-1.4,37.9-1.5,56.6"/>
<path class="st3" d="M1716.1,515.7c39.4,3.8,73.4-1.1,113,0.2"/>
<path class="st3" d="M1843,429.5c1.9,15.8-1.7,32.1-2,48c-0.2,12.3,1.1,24.6,1.1,36.9c0.3,0.9-0.2,1.8-1.1,2.1
	c-0.3,0.1-0.6,0.1-0.9,0l-11-0.6"/>
<path class="st3" d="M1733.2,539.3c39.6-1.7,78.8-9.4,118.1-4"/>
<path class="st3" d="M1780.4,575.6l45.1-11.3c5.8-1.5,11.7-2.9,17.6-4.1c4.6-0.9,9.3-1.6,14-2.3c5.5-0.8,12.4-1.6,17.9-2.4"/>
<path class="st3" d="M1851.3,535.3c8.7,5.8,15.4,13.7,23.7,20.1"/>
<path class="st1" d="M1783.3,590.3c-13.2-6.7-27.4-14.3-40-22c-3.6-2.2-7.6-3.9-10.4-7.1c0.8-7.2,1.4-14.8,0.3-21.9
	c4.3,5.9,10.9,11.2,16.7,15.5l9.7,7.3c7.4,5.6,15.1,11.3,24.1,14"/>
<path class="st1" d="M1783.3,590.3c0.1-5-0.1-9.6-0.3-14.6c0,0,44-12.7,51.5-13.7s40.5-6.6,40.5-6.6c-0.3,3.8,0.1,6.6-0.6,10.3
	c-6.9,3.6-13.4,3.1-20.8,5.8c-5.2,1.9-10.5,3.3-15.8,4.7C1820.2,581,1800.9,585.6,1783.3,590.3"/>
<path class="st1" d="M1724.5,438.7c15-2.4,31.3-2.5,46.5-2.9l17.3-0.4c13.6-0.4,27.3,0.5,40.8,2.6c-0.6,22.1,0.9,48.2,0.3,70.3
	c-15.2-3-29.9,0.9-45.4,2.1c-6.2,0.4-12.3,0.4-18.5,0.1l-30.1-0.8c-4-0.1-8-0.2-11.8-1.5l1.2-0.3
	C1724.8,484.7,1725.5,461.8,1724.5,438.7z"/>
<path class="st3" d="M1719.2,430.3c-3.4,3.2-9,6.4-12.7,9.4"/>
<path class="st3" d="M1716.1,515.7c-2.9,1.5-7.2,4.3-10.4,5c-1.7-27.1-0.8-54.3,1.1-81.3"/>
<path class="st2" d="M1780.5,520.6l0.3,4.5l0.3,0.6c-3.5,0.9-7.1,1.5-10.7,1.7l0.8-1c-0.1-1.9-0.1-3.7,0.2-5.6"/>
<path class="st3" d="M1877.3,546.3c-2.6-1.5-3.1-1.7-5-4.1s-3-5.6-2-8.4c1.1-2.5,3.2-4.3,5.8-5c2.6-0.7,5.2-0.9,7.8-0.7
	c5.7,0.1,11.4,1,16.9,2.6c3.7,1.2,7.3,3.2,9.6,6.3c1.3,1.8,2.1,3.9,2.5,6.1c0.6,3.4,0,7.3-2.6,9.5s-6.3,1.9-9.6,1.4
	C1891.5,552.8,1885,551.1,1877.3,546.3"/>
<path class="st2" d="M1871.9,531.7c0.3-1.6,2.3-2.3,4-2.2c1.3,0,2.6,0.3,3.7,0.9c1.1,0.6,1.9,1.8,2,3.1c0,0.2,0,0.3-0.1,0.4
	c-0.1,0.1-0.3,0.2-0.5,0.2c-2.9,0.1-5.7-1.2-7.7-3.4"/>
<path class="st6" d="M1763.5,446.9c-6.9,7-15.6,12.6-20,21.3"/>
<path class="st6" d="M1784.1,451.5l-17.4,14.4c-9,7.5-18.4,15.3-23.4,25.9"/>
<path class="st6" d="M1803.3,455l-36.7,31.8c-4.5,3.8-8.9,7.8-12.9,12.1"/>
<path class="st6" d="M1812.8,475.1c-6.1,6.1-12.7,11.7-19.6,16.9"/>
<path class="st1" d="M1705.7,521.7c14,0,111.8-2.7,125.7-3.5l9.6-2.2h-125L1705.7,521.7z"/>
<path class="st3" d="M1756,545c0,0,72-7,81-6"/>
<line class="st3" x1="1783" y1="570" x2="1857" y2="552"/>
<line class="st3" x1="1776" y1="562" x2="1849" y2="547"/>
<line class="st3" x1="1769" y1="552" x2="1839" y2="543"/>
<line class="st3" x1="1765" y1="542" x2="1793" y2="569"/>
<line class="st3" x1="1782" y1="538" x2="1807" y2="566"/>
<line class="st3" x1="1798" y1="537" x2="1818" y2="564"/>
<line class="st3" x1="1811" y1="536" x2="1830" y2="560"/>
<line class="st3" x1="1823" y1="536" x2="1841" y2="559"/>
<line class="st3" x1="1833" y1="536" x2="1849.9" y2="554.5"/>
<line class="st3" x1="1844" y1="537" x2="1850" y2="546"/>
<path class="st3" d="M1308.3,909.9c6.2-2.3,18-7.4,21.7-12.9c2.8-4.2,5.4-8.7,5.8-13.7c0.4-5.7-2.1-11.2-4.8-16.2s-5.8-10-10-14
	c-3-2.7-6.3-5-9.9-6.8c-13.9-7.2-29.6-10-45.2-8c-5.3,0.7-10.7,2-15.3,4.8c-5.4,3.4-9.7,8.4-12.2,14.3c-2.5,5.9-3.9,12.2-4.1,18.6
	c-0.5,8.8,0.7,18,5.8,25.1c6.5,9.1,18.2,13.2,29.3,14.1C1280.2,916.3,1298.1,913.8,1308.3,909.9z"/>
<path class="st3" d="M1234.3,876.1c0.2-6.4,1.6-12.7,4.1-18.6c2.5-5.9,6.8-10.9,12.2-14.3c4.6-2.8,9.9-4.1,15.3-4.8
	c15.3-2,30.9,0.7,44.7,7.8c3.2-15.3-0.5-31.2-10.1-43.5c-4.7-5.7-10.2-10.8-16.3-15.1c-5.4-4.2-11.4-7.6-17.7-10.3
	c-6.2-2.4-12.8-3.7-19.5-4.1c-16.8-1-33.6,3.5-48.3,11.7c-7.8,4.3-15.2,9.9-19.5,17.6c-4.5,7.9-5.5,17.4-4.2,26.4s5.4,17.3,9,25.6
	c-8,4.4-15.1,8.5-23.1,12.9c-1.2,0.7-2.5,1.6-2.6,2.9c10.5,2.8,25.5-2.5,36.4-2.5c5.6,10,17.7,14.5,28.9,16.9
	c3.7,0.8,7.4,1.5,11.1,2C1234.2,883.4,1234,879.8,1234.3,876.1z"/>
<path class="st3" d="M1330.8,896.3c3.2,5.3,9.2,8.5,12.8,13.6c0.1,0.1,0.2,0.3,0.2,0.4c0,0.3-0.3,0.5-0.6,0.6
	c-2.1,0.5-4.3,0.5-6.4,0.1c-4.9-0.6-13.9-4.3-18.8-4.9"/>
<path class="st2" d="M1207.1,831.2c-2.1,1.9-3.3,4.6-3.4,7.5c-0.1,2.4,0.8,4.8,2.5,6.6c2.5,2.6,6.7,3.4,10.4,2.7
	c2-0.3,4-1.1,5.6-2.5c4.4-3.9,3.5-11.3-0.6-15s-10.1-3.1-14.1,0.4L1207.1,831.2z"/>
<path class="st2" d="M1244,847c-2.5-1.7-4.9-6.9-4-9.8c0.3-1.1,1.7-5.8,2.5-6.7c3-3.3,7.2-4.3,12.1-3.1c3.4,0.9,6.4,7.6,6.4,11.6"/>
<path class="st2" d="M1275.2,836.8c-1.2-6.8,5.8-11.8,12.1-11.1c3.3,0.4,4.6,5,5,7.9c0.3,2.6-1.6,3.2-1.6,5.8"/>
<path class="st2" d="M1271.8,872.2c-2.3-0.1-4.6,0.9-6.1,2.7c-1.3,1.6-2,3.5-2.2,5.6c-0.3,2.9,0.7,5.9,2.8,8c4,3.7,9.7,1.7,11.3-3.3
	c0.9-2.9,1.2-7.2-0.2-10C1276.2,873.2,1274.1,872,1271.8,872.2z"/>
<path class="st2" d="M1293,875.3L1293,875.3c-1.2,1-2,2.3-2.5,3.7c-2.1,6.3,1.8,11.2,8.3,10.8c1.5,0,3-0.5,4.2-1.4
	c1.4-1.2,1.7-3.2,1.7-5C1304.8,878.1,1298.1,871.3,1293,875.3z"/>
<circle class="st3" cx="1452.3" cy="769" r="37.6"/>
<path class="st2" d="M1375.3,1023.9c-12.6,12.6-33.1,12.6-45.8,0c-12.6-12.6-12.6-33.1,0-45.8c12.6-12.6,33.1-12.6,45.8,0
	C1387.9,990.7,1387.9,1011.2,1375.3,1023.9C1375.3,1023.9,1375.3,1023.9,1375.3,1023.9z M1367.8,985.6c-8.5-8.5-22.2-8.5-30.7,0
	c-8.5,8.5-8.5,22.2,0,30.7s22.2,8.5,30.7,0c0,0,0,0,0,0C1376.2,1007.9,1376.2,994.1,1367.8,985.6z"/>
<g>
	<defs>
		<circle id="SVGID_1_" cx="1815" cy="633.3" r="43.7"/>
	</defs>
	<clipPath id="SVGID_2_">
		<use xlink:href="#SVGID_1_"  style="overflow:visible;"/>
	</clipPath>
	<g class="st7">
		<path class="st5" d="M1860.6,635.6l-3.7-3.3c2.8-1.2,4.6-5.5,1.6-7.6l-15.3-10.7c1.6,0.8,3.3,1.5,4.9,2.3c5.2,2.3,9.2-5.7,4-8
			c-1.6-0.7-3.3-1.5-4.9-2.2c2.7-1.4,4.4-5.2,1.6-8c-7.2-7.3-16.7-10.6-26.3-13.5c-2.9-0.9-6.6,1.6-6.3,4.8c0,0.4,0.1,0.7,0.1,1.1
			c0.1,0.7,0.3,1.5,0.7,2.1c-5.2-1.9-10.5-3.5-15.9-4.6c-4.2-0.8-7.6,5.1-3.8,7.8c2.7,1.9,5.4,3.9,8.1,5.9
			c-5.6-2.2-11.4-3.7-17.4-4.5c-3.6-0.5-6.5,3.4-5,6.4c-2.5,0.2-4.3,2.3-4.1,4.8c0.1,1.1,0.6,2.2,1.4,2.9l2.9,3
			c-1.7-0.3-3.4-0.5-5.2-0.5c-3.3,0-5.4,4.3-3.5,6.9c3.7,4.9,9.9,7,15.2,9.9c4.7,2.6,9.3,5.3,13.8,8.1c-3.8-2.2-7.5-4.5-11.4-6.6
			c-5.3-2.7-11-4.6-16.8-5.7c-4.3-0.8-7.3,4.9-3.8,7.8c4.1,3.3,8.3,6.5,12.6,9.5c-2.6-1.1-5.2-2.1-7.8-3.1c-4.3-1.7-9.4,4.3-4.9,7.4
			c1.2,0.8,2.3,1.6,3.5,2.4c-0.7,5.9,5.3,12.5,8.5,16.5c5.7,7,12.5,13,21.4,15.5c4.4,1.2,7-3.2,6-6.5c3.1,2.3,6.2,4.5,9.3,6.8
			c4.6,3.4,10.5-3.4,5.9-6.8c-2.4-1.8-4.8-3.5-7.3-5.3c2.8,1.5,5.6,3,8.4,4.5c4.1,2.2,7.9-3,5.7-6.4c1.2-1.7,0.8-4-0.8-5.2
			c-0.1,0-0.1-0.1-0.2-0.1c-1.6-1.2-3.1-2.3-4.6-3.6c4.6,2.2,9.2,4.5,13.7,7s8.6-4.1,4.9-7.4c-7-6.2-14.2-12.1-21.7-17.5
			c9,4.6,18,9.7,24.7,16.7c3.4,3.6,10-2.1,6.7-5.9c-2.8-3.2-5.7-6.2-8.7-9.2c2-1.3,2.7-3.9,1.6-6c2.1,1.6,4.3,3.2,6.3,4.8
			C1859.1,646,1864.8,639.5,1860.6,635.6z M1793.6,663.7L1793.6,663.7c3.9,2.8,7.9,5.6,11.9,8.5
			C1800.7,670.5,1797,667.5,1793.6,663.7L1793.6,663.7z M1802.6,621.6l-1.4-1.5c1.6,0.7,3.1,1.4,4.7,2.1c0.9,0.7,1.8,1.4,2.7,2.1
			C1806.5,623.4,1804.5,622.5,1802.6,621.6L1802.6,621.6z M1837.2,601.3c-4.1-2-8.3-3.9-12.4-5.6
			C1829.1,597,1833.3,598.9,1837.2,601.3L1837.2,601.3z"/>
	</g>
</g>
<path class="st2" d="M1451.5,765c2-3.6,6-9.1,9.9-10.6c2.7-1,6-1.3,8.4,0.3c1.1,0.8,2,1.8,2.6,3c3,5.4,2.3,12.3-0.5,17.8
	s-13.3,9.2-18.2,13c-5.8-0.8-16.9-5-19.7-10.1c-2.8-5.2-3.1-11.4-0.7-16.8c1-2.2,2.6-4.3,5-4.8c1.2-0.2,2.4,0,3.5,0.4
	C1445.8,758.7,1449.2,761.4,1451.5,765"/>
<circle class="st3" cx="1747.2" cy="379.1" r="40.4"/>
<path class="st5" d="M1719,377.5c-0.1-2.6,1-5,3-6.6c2-1.6,4.4-2.6,7-2.7c2.5-0.2,5.1,0.3,7.4,1.3c1.2,0.5,2.3,1.1,3.3,1.8
	c1,0.7,2.2,1.4,2.3,3c0.1,0.7-0.5,1.3-1.2,1.4h-0.3c-1.4-0.1-2-1-2.8-1.6c-0.8-0.6-1.7-1.2-2.7-1.6c-1.9-0.9-3.9-1.5-6-1.5
	c-2.1,0-4.2,0.5-6,1.6c-0.9,0.5-1.6,1.3-2.2,2.1c-0.6,0.9-1,1.9-1.1,3c0,0.2-0.2,0.4-0.5,0.4C1719.1,377.9,1718.9,377.8,1719,377.5
	L1719,377.5z"/>
<path class="st5" d="M1755.4,374.4c0.7-2.4,2.3-4.4,4.4-5.7c2.1-1.3,4.5-1.9,7-1.7c2.4,0.1,4.7,1.1,6.6,2.6c1.7,1.5,3.1,3.4,4.1,5.4
	c0.1,0.2,0,0.4-0.2,0.5c-0.2,0.1-0.4,0-0.5-0.1c-1.2-1.7-2.7-3.3-4.4-4.6c-1.6-1.2-3.6-1.8-5.6-1.7c-2,0-3.9,0.6-5.6,1.7
	c-1.6,1.1-3,2.6-4,4.2v0c-0.3,0.5-0.9,0.6-1.4,0.3c0,0,0,0,0,0C1755.4,375.3,1755.3,374.8,1755.4,374.4z"/>
<path class="st3" d="M1724.1,389.7c2.4,7.2,7.4,13.2,14.1,16.8c6.8,3.5,14.7,3.7,21.6,0.4c6.7-3.3,11.2-9.9,13.2-16.9l0.3-2.8
	c-3-2.3-7-2.8-10.8-3c-13-0.8-26,0.9-38.4,5"/>
<path class="st3" d="M1732,398c12.6-3.2,25.8-4.2,38.8-3"/>
<path class="st5" d="M1717.5,356.6c1.7-1.7,3.6-3.1,5.7-4.2c1-0.6,2.1-1.1,3.2-1.5c0.5-0.2,1.1-0.4,1.6-0.6l0.8-0.3
	c0.3-0.1,0.6-0.2,1,0.3c0.5,0.5,0.7,1.2,0.6,1.8v0.1c-0.1,0.6-0.3,0.7-0.6,0.8l-0.8,0.3c-0.5,0.2-1,0.4-1.5,0.6c-1,0.4-2,0.8-3,1.3
	c-2,0.9-3.9,1.9-5.7,3.1l0,0c-0.4,0.4-1.1,0.3-1.4-0.1S1717.1,357,1717.5,356.6L1717.5,356.6L1717.5,356.6z"/>
<path class="st5" d="M1760.2,349.2c0.4-0.3,0.9-0.3,1.3-0.2c0.4,0.1,0.8,0.2,1.2,0.3c0.8,0.2,1.6,0.5,2.3,0.8
	c1.5,0.6,2.9,1.5,4.1,2.6c0.4,0.4,0.4,1,0,1.4c-0.3,0.3-0.9,0.4-1.3,0.2l0,0c-1.2-0.7-2.5-1.3-3.8-1.8c-0.7-0.2-1.3-0.4-2-0.6
	c-0.3-0.1-0.7-0.1-1-0.2c-0.4,0-0.8-0.2-1-0.5l-0.1-0.1C1759.5,350.5,1759.6,349.8,1760.2,349.2L1760.2,349.2z"/>
<path class="st3" d="M1737.3,339.9c-1.1-2.1-0.7-4.6,1-6.2"/>
<path class="st3" d="M1741.9,338.6c1.6-4.3,5.2-7.7,9.6-9.2"/>
<path class="st3" d="M1752,339c3.2-2.4,7.3-3,11.3-2.8"/>
<circle class="st3" cx="1354.2" cy="1095.1" r="40.4"/>
<path class="st5" d="M1324.5,1072.7c1.7-1.7,3.6-3.1,5.7-4.2c1-0.6,2.1-1.1,3.2-1.5c0.5-0.2,1.1-0.4,1.6-0.6l0.8-0.3
	c0.3-0.1,0.6-0.2,1,0.3c0.5,0.5,0.7,1.2,0.6,1.8v0.1c-0.1,0.6-0.3,0.7-0.6,0.8l-0.8,0.3c-0.5,0.2-1,0.4-1.5,0.6c-1,0.4-2,0.8-3,1.3
	c-2,0.9-3.9,1.9-5.7,3.1l0,0c-0.4,0.4-1.1,0.3-1.4-0.1S1324.1,1073,1324.5,1072.7L1324.5,1072.7L1324.5,1072.7z"/>
<path class="st5" d="M1367.2,1065.2c0.4-0.3,0.9-0.3,1.3-0.2c0.4,0.1,0.8,0.2,1.2,0.3c0.8,0.2,1.6,0.5,2.3,0.8
	c1.5,0.6,2.9,1.5,4.1,2.6c0.4,0.4,0.4,1,0,1.4c-0.3,0.3-0.9,0.4-1.3,0.2l0,0c-1.2-0.7-2.5-1.3-3.8-1.8c-0.7-0.2-1.3-0.4-2-0.6
	c-0.3-0.1-0.7-0.2-1-0.2c-0.4,0-0.8-0.2-1-0.5l-0.1-0.1C1366.5,1066.6,1366.6,1065.8,1367.2,1065.2L1367.2,1065.2z"/>
<path class="st3" d="M1344.3,1055.9c-1.1-2.1-0.7-4.6,1-6.2"/>
<path class="st3" d="M1348.8,1054.6c1.6-4.3,5.2-7.7,9.6-9.2"/>
<path class="st3" d="M1359,1055c3.2-2.4,7.3-3,11.3-2.8"/>
<path class="st3" d="M1047,1018c-12,1.8-15.6-9.8-15.6-9.8c-2.5,0.3-5.1,0.4-7.7,0.3c-0.2-0.1-0.4-0.3-0.5-0.5
	c-0.5-4-0.3-12.7-0.3-12.7c2.6,0,5.2,0.3,7.8,0.6c1.7-3.7,4.4-6.8,7.6-9.2c4.2-2.7,9.6-2.2,14.5-1.5c0,0,1.9-2.3,3.3-3.9
	c0.2-0.2,0.4-0.4,0.7-0.5c0.2,0,0.4,0.1,0.6,0.2l5.9,3.6c-0.6,2.2-1.3,4.3-2.2,6.4c0,0,0.3,0.6,0.5,1c3.4,5.7,3.5,12.9,0.2,18.7
	c-1.8,3.2-2.1,3.7-4.9,6.1c0,0,0.3,4.7,0.7,7c0.1,0.3,0,0.6-0.1,0.8c-0.2,0.1-0.4,0.2-0.6,0.2c-3.4,0-6.8,1-10.2,0.7L1047,1018z"/>
<path class="st3" d="M1044.3,997.3c-0.7,0.7-1.2,1.5-1.5,2.5c-0.6,1.7-0.3,3.6,0.7,5.1c1.3,1.6,3.4,2.3,5.3,1.7
	c2.4-0.8,3.2-3.4,3.2-5.6c0.1-1.4-0.4-2.8-1.3-3.9c-1.1-1.2-2.8-1.6-4.2-1C1045.7,996.4,1045,996.8,1044.3,997.3z"/>
<path class="st3" d="M1141.3,1042.8c-3.3-2-8.2-6.9-8.2-6.9c1.1-1.9,2-3.9,2.7-6c1-3.4,0.8-7,0.6-10.6c-0.2-2.6-0.7-5.1-1.3-7.6
	c2.5-0.7,5.1-1,7.7-0.8l-9.5-20.8c-2.3,1.3-6.4,5.2-6.4,5.2c-5-3.1-14.2-7.4-20-6.6c0,0-1.6-7.8-2.2-11.6l0.2-0.2
	c-5.4,1.8-18.2,7.1-18.2,7.1c2.4,2.7,3.6,6.2,3.3,9.8c0,0-7.2,4.3-9.3,8.8c-3.6-0.4-7.1-1.1-10.5-2.1l-3.2,17
	c2.9,1.9,8.1,2.7,8.1,2.7c1,6.9,4.3,15.7,9.9,19.9c0,0-4.8,7-6,10.2l0.5,0.3c1.8,3.7,9.8,10,9.8,10c3.9-1.4,7.1-4.2,9.1-7.8h0.1
	c6.5,3.7,22.7-2.2,22.7-2.2c2.2,2,4.5,4,6.9,5.9c3.6,2.8,11-8,13.6-13.4"/>
<path class="st5" d="M1111.5,1005.1c0.9,0.3,1.7,0.6,2.5,1c2.4,1.1,4.5,2.8,5.9,5c2.8,4.7,2.1,11.9,0.4,16.9
	c-4,12-20.5,12.4-27.8,3.2c-3.9-5-4.8-11.7-2.3-17.6C1094.2,1004.8,1103.1,1002.3,1111.5,1005.1z"/>
<path class="st3" d="M1114.6,1073.8v-9.2l0.4-3.2c-4.1,1.5-8.4,2.1-12.7,1.7l-0.4,3.2v8.5"/>
<path class="st3" d="M1100.1,1074.2c-3.6,0.5-6.6,3.1-7.5,6.7l0.4,0.7c-1.7-0.6-3.1-1.7-4-3.2c-0.4-0.8-1-1.7-1.8-1.7
	c-0.5,0.1-1,0.4-1.4,0.8c-3.3,3.3-5.6,7.5-6.7,12"/>
<path class="st3" d="M1113.9,1073.4c2.7-0.2,5.4,0.5,7.6,2c2.2,1.5,4.2,3.3,6.1,5.3l-0.9-0.5c2.8-0.6,5.3-2,7.4-3.9l1.7-0.3
	c1.6,3.6,2.7,7.4,3.4,11.3l-1.5,1.8c-2.6,1-5.4,1.8-8.2,2.4l-0.7,1.7c0.8,0.1,1.2,1.1,1.3,1.9c0.5,3.5,0,7.2-1.4,10.4
	c-1.4,3.3-3.2,6.4-5.3,9.3l-2.1,0.8c0.9,2.3,2.3,4.5,3.9,6.3l0.3,1.7c-3.4,1.7-6.9,3.2-10.5,4.5l-2.4-1c-1.8-1.8-3-4.1-3.4-6.6"/>
<path class="st3" d="M1547.4,762.5c-13.8,1.1-27.4-4.5-36.5-14.9l-0.9-0.7c2.4,0.2,4.5-1.6,6.2-3.2c2.2-1.9,4.1-4.2,5.4-6.8
	c1.4-2.7,0.9-10.8,0.9-10.8c0.7,3.2,5.8,5.6,8.4,7.5c4.9,3.3,10.2,6,15.9,7.8c1.4,0.5,2.9,0.8,4.3,0.9c2.8,0,5.5-0.1,8.3-0.4
	c2,1.4,2.6,4,2.8,6.4c1,8.6,0.7,17.3-1.1,25.8c-0.8,3.8-2,7.8-4.9,10.4s-7.9,3.3-10.5,0.4c-1.5-1.6-1.9-4-2.2-6.2
	c-0.5-5.2-0.7-10.4-0.5-15.7L1547.4,762.5z"/>
<path class="st3" d="M1600.6,710c2.7,1.9,6.2,2.1,9.4,2.1c10.3,0.1,28.7-0.9,28.7-0.9c5.5,8.3,8.3,18.1,8,28c0,3.4-0.7,6.7-2.1,9.8
	c-1.7,3.3-4.5,6-7.9,7.5c-3.4,0.8-6.8-1.1-7.7-4.5c-1.2-4.1-1.4-8.3-0.7-12.5l2.7-0.2c-14,1.1-28-2.8-39.5-10.9"/>
<path class="st2" d="M1512,482c23.4-3.3,33.3,17.8,29.4,41.1c-14.8,9.7-47.4-0.1-47.4-0.1S1476,487,1512,482z"/>
<path class="st3" d="M1557.1,515.1c0.2-3.5,0.7-7.1,1.4-10.5c0.4-2.2,1-4.4,1.9-6.4c2.1-4.3,6-7.5,10.7-8.7c2.1-0.6,4.3-0.5,6.3,0.1
	c2.1,0.7,3.6,2.3,4.3,4.4"/>
<path class="st3" d="M1581.9,494.3c0.8,4,1.2,8.1,1.2,12.2c0,3.3-0.2,6.7-1.8,9.6c-2,3.6-5.9,5.8-9.8,7.4"/>
<path class="st3" d="M1559,515.4c-0.5,0.5-0.3,1.4,0,2c1.5,2.7,4.1,4.5,7.1,5.1c3,0.5,6,0.3,8.9-0.6"/>
<path class="st3" d="M1492.9,491.5c1.8-8.5,3.8-17.3,9.5-23.8c3.9-4.4,9.2-7.4,14.8-9.5c7.3-2.8,15.1-4.1,23-4
	c5.4,0,10.7,1,15.7,2.9c11.8,4.8,20.3,15.2,22.7,27.7"/>
<path class="st3" d="M1493.9,522.5c-1.7,0.8-2.5,2.9-3,4.7c-0.5,1.9-0.9,3.8-1.1,5.8c0,0,16.1,7.5,25.2,7.8c17.5,0.5,35-1.5,52-5.9
	c3.4-0.9,7-2,9.4-4.5c2.9-3.1,3.5-7.7,3.9-12"/>
<path class="st2" d="M1499,554c-12.6,1.6-31.4,21.6-35.2,35.1c-2.4,22.2,19.6,12.9,25-1.2"/>
<path class="st1" d="M1606,572c8.7,9.3,20.9,17.9,30.7,25.8c3.3-2,6.4-4.3,9.3-6.8c0,0-25-23-34-31L1606,572z"/>
<path class="st1" d="M1429.5,557.4c3.5,1.2,7.3,1.5,11,0.8c0,0-5.6,14.8-5.4,20.9s2.2,12.5,7.2,15.9c6,4.3,15,2.7,20.3-2.4l2.1,6.5
	c-5.9,4.4-12.4,9-19.8,8.8c-6.9-0.2-13.2-4.7-16.6-10.6s-4.3-13.1-3.7-19.9s2.7-13.5,4.7-20"/>
<path class="st2" d="M1429,557c-2.2-0.3-6.3-1-6.8-3.2c-0.3-1.3-0.5-2.5-0.7-3.8c-0.2-1.1-0.2-2.2,0.2-3.2c0.4-0.8,0.9-1.4,1.6-1.9
	c4.1-3.3,9.7-4,15-4.4c0.9-0.1,1.7-0.1,2.6,0c2.2,0.5,3.7,2.6,4,4.8c0.2,2.2-0.1,4.5-1,6.6c-0.8,2.4-1.8,4.7-3,6.9L1429,557z"/>
<path class="st3" d="M1660.5,598.8c15.1,8.5,12.6,20-2.3,6"/>
<path class="st3" d="M1657.4,607.3c12.7,7.7,7.1,19.2-3.2,5.7"/>
<path class="st3" d="M1652.2,612.9c14.3,12.9-2.8,17.1-5.2,0.1"/>
<path class="st3" d="M1660.2,595.6c10.1-10.9-2.8-14.3-8.4-3.5"/>
<path class="st3" d="M1646,613c0.2,2.6-0.1,5.3-0.7,7.8c-0.5,1.9-2.5,3.1-4.4,2.6c-0.9-0.2-1.6-0.7-2.1-1.5
	c-0.3-0.5-0.5-1.1-0.4-1.7c0.3-2.3,1.3-6.9,1.6-9.2"/>
<path class="st2" d="M1646,591c-1,1-16.6,4.5-7.5,17.2c7.7,14.9,22.4-0.9,21.5-11.2C1659.6,592.3,1653,592,1646,591z"/>
<path class="st3" d="M1441.4,553.3c2.3,0.5,6.3-0.4,9.2-0.3c2.8,0.2,5.3-1.7,5.8-4.4c0.9-4.7-3.1-5.5-10.4-3.1"/>
<path class="st3" d="M1422,546c-6.8-6.4-4-21,3-3"/>
<path class="st3" d="M1427,542c-4-7-2-17,2-17c3,0,4.1,7.5,3,16"/>
<path class="st3" d="M1434,540c-0.3-12.8,2.9-18.3,6-17s3,8-1,17"/>
<path class="st3" d="M1440,540c6.7-9.5,7.1-14.4,10.6-12.2s-2.3,10.2-5.6,15.2"/>
<path class="st3" d="M1507.6,543.4c-5.7,3.6-8.7,10.2-11,16.6c-3.6,9.9-6.3,20.2-8.1,30.5c-0.8,3.9-1.1,7.8-0.8,11.7
	c0.3,4,2,7.7,4.8,10.5c2.3,2.2,5.4,3.4,8.5,4.4c21.8,7.2,45.4,6.9,67-0.9c3.3-1.2,6.8-2.9,8.1-6.1"/>
<path class="st3" d="M1565.5,535.7c1.6,3.2,2.4,3.8,3.5,7.3"/>
<path class="st3" d="M1577,577c1.2,6,3.1,13.9,3.2,20s-2.1,9.8-5.2,15"/>
<path class="st3" d="M1570.3,541.5c0-2.9,2.8-5,5.5-6.1c3.1-1.3,6.3-2,9.6-2.2c1.5-0.1,3,0,4.4,0.4c3.1,0.9,5.5,3.3,6.4,6.4
	c0.9,3,0.9,4.7-1.2,7"/>
<path class="st3" d="M1593,578c0.5,8.6,1,18.8,1.5,27.4c0.4,6.5,0.7,13-0.8,19.3s-4.4,16.7-10.7,18.3c-3,0.8-19,1-19-10"/>
<path class="st1" d="M1513.5,565c-2.2,1.1-3.1,3.7-3.7,6c-2.3,8.6-3.7,17.4-4.2,26.2c0,0,0.8,2,4.1,3.7s7.1,1.9,10.8,2
	c7.8,0.2,16.9,0.5,24.6-0.9c3-2-2.8-34.9-4-35C1531.5,566.3,1513.5,565,1513.5,565z"/>
<path class="st2" d="M1579.8,644.1c6.2,1.8,14.3,13,14.3,13L1608,645c0,0-8-9-14.8-13.8C1594.1,632.7,1582.7,646.8,1579.8,644.1z"/>
<polygon class="st0" points="1539.1,266.2 1537.7,284.7 1552.2,296.2 1534.2,300.7 1527.7,318 1517.9,302.3 1499.4,301.4 
	1511.3,287.3 1506.4,269.4 1523.6,276.4 "/>
<polygon class="st8" points="1061.8,1099.1 1035.2,1091.8 1014.2,1109.6 1012.9,1082 989.5,1067.5 1015.3,1057.8 1021.9,1031 
	1039.1,1052.5 1066.6,1050.5 1051.4,1073.6 "/>
<polygon class="st5" points="1517.9,302.3 1499.4,301.4 1511.3,287.3 1508.7,277.6 1498.4,273.4 1503.3,291.3 1491.4,305.4 
	1509.9,306.3 1519.7,322 1523.7,311.5 "/>
<polygon class="st5" points="1555.5,240.1 1557.8,233.2 1553.3,226.6 1548.1,242.3 "/>
<polygon class="st5" points="1552.1,273 1552.6,256.3 1539.3,246.5 1529.7,249.3 1544.6,260.3 1544,278.8 "/>
<polygon class="st5" points="1567.1,264 1560.7,268.6 1576.5,274.3 1574,266.5 "/>
<polygon class="st5" points="1614.7,251.8 1596.2,252.4 1607,237.3 1603.4,227.3 1592.7,223.9 1599,241.3 1588.2,256.4 
	1606.7,255.8 1617.7,270.7 1620.8,260 "/>
<polygon class="st5" points="1658.5,273.5 1643.7,264.4 1634.7,267.8 1650.5,277.5 1651.3,296 1659.2,289.4 "/>
<polygon class="st5" points="1660.1,257.2 1661.8,249.9 1656.5,243.3 1652.3,260.1 "/>
<polygon class="st5" points="1673.5,280.1 1667.9,284.8 1683.3,289 1680.5,282 "/>
<polygon class="st5" points="1701.2,294.8 1707.1,289.3 1706.8,286.3 1698.3,294.1 "/>
<polygon class="st5" points="1715.5,317.1 1715.3,317.8 1724.5,313.9 1723.9,313.5 "/>
<polygon class="st5" points="1699.6,321.2 1681.2,323.3 1690.8,307.4 1686.1,297.1 1675.1,294.6 1682.8,311.4 1673.2,327.3 
	1691.6,325.2 1703.7,339.2 1705.9,328.5 "/>
<path class="st9" d="M1433,349c2-4,2.1-6.9-3-9c-13.3-5.8-21.1,9.3-34.5,7.1c-7-1.2-11.2-11-11.5-18.1c0-0.8-24.1-2.8-34.6-2.1
	c-19.3-2-23-102,1.2-107.3c42.3-4.7,94.4-16.5,132.5,5.3c7.4,30.9,7.2,68.4,0.5,99.6c-24,3-62.4,3.2-87.5,5.5
	c4.2,13.5,21.5,5.7,32,4C1436.4,333.9,1444,343,1433,349z"/>
<path class="st5" d="M1477.5,211.1c6.9-9.2,29.8-36,31-12.5C1499,202.8,1479.7,220.4,1477.5,211.1z"/>
<path class="st5" d="M1506.3,216.9c6.3,12.3-10.4,4-16.3,8.3C1485.5,215.5,1500,211.6,1506.3,216.9z"/>
<path class="st5" d="M1473.9,208.8c3-8.3,13.5-16.8,1.5-21.5C1472.2,194.8,1460.1,210.9,1473.9,208.8z"/>
<path class="st1" d="M1294.2,214.7c0,22.3-18.1,40.4-40.4,40.4c-22.3,0-40.4-18.1-40.4-40.4s18.1-40.4,40.4-40.4
	S1294.2,192.4,1294.2,214.7L1294.2,214.7z M1241.4,233.3c8.7-3.6,33.6-19.3,38.9-22.4c-13.2-6.4-27-11.6-41.2-15.6
	C1239.2,195.2,1240.3,222.1,1241.4,233.3L1241.4,233.3z"/>
<path class="st10" d="M1316.9,285.3c12,22-36.1-0.5-39.9-5.8s-0.3-12.5,6.4-6.9C1296.7,224.5,1331.1,267.9,1316.9,285.3z"/>
<path class="st3" d="M1288.3,274c4.1,1.1,8.1,2.5,12,4c5.1,2.3,6,3,11,7"/>
<path class="st11" d="M1307.2,286c-0.7,5.7-2.6,11.1-4.4,16.5c-0.9,2.6-1.9,5.4-4.2,6.9c-0.4,0.4-1,0.5-1.6,0.4
	c-0.9-0.3-1.1-1.5-1.1-2.4c0-4.1,0.1-8.2,1.3-12.1c1.1-3.4,3-6.5,3.5-9.9L1307.2,286z"/>
<path class="st11" d="M1293.2,281c-0.7,5.7-2.6,11.1-4.4,16.5c-0.9,2.6-1.9,5.4-4.2,6.9c-0.4,0.4-1,0.5-1.6,0.4
	c-0.9-0.3-1.1-1.5-1.1-2.4c0-4.1,0.1-8.2,1.3-12.1c1.1-3.4,3-6.5,3.5-9.9L1293.2,281z"/>
<path class="st3" d="M1285.3,298.8c-0.7-1.7-0.2-3.6,1.2-4.7c0.2,1.3,0,2.6-0.6,3.8"/>
<path class="st3" d="M1298.3,303.2c-0.1-2.1,0.6-4.1,2-5.6c0.4,0.8,0.3,1.9-0.4,2.5L1298.3,303.2z"/>
<path class="st2" d="M1304,251v-6.8c-0.1-0.6,0.1-1.3,0.3-1.8c0.3-0.5,0.8-0.9,1.4-1.1c2.5-1.2,5.3-1.7,8-1.3
	c0.4,5.1-0.1,10.2-1.4,15.1"/>
<path class="st2" d="M1307.2,239.4c-1.4-1.5-1.4-3.8,0.1-5.3c0.6-0.6,1.4-1,2.3-1c0.3,0,0.5,0,0.8,0.1c0.2,0.2,0.4,0.5,0.5,0.8
	c0.7,2.2,1,4.5,1,6.9"/>
<path class="st3" d="M1499.9,239.8c7.4-0.2,14.4-4.4,19.1-10.1s7.5-12.8,9.3-20.1c2.5-10.2,3.1-21.1-0.1-31.1s-10.6-19-20.5-22.4
	c-4.7-1.5-9.7-2.2-14.7-2c-9.7,0.2-20,2.4-27,9.2c-7.5,7.2-10.3,18.5-18.7,24.7c-7.4,5.3-17.3,5.5-24.8,0.5c-2.6-1.8-5-4.4-5.5-7.5
	c-0.8-4.8,2.6-9.3,6.4-12.4c2.6-2,6.3-3.8,9.2-2.1c1.3,0.9,2.4,2.2,2.9,3.8c2.5,6.4,1.1,13.6-3.5,18.6c-4.3,4.6-10.8,6.6-17.1,6.9
	s-12.6-0.8-18.8-1.5c-18.6-1.8-37.4,0.5-55,6.9c-15.3,5.4-33.9,12.9-33.9,32"/>
<path class="st3" d="M1503.4,239.9c-0.5,3.5,0.6,7.1,2.9,9.8"/>
<path class="st3" d="M1502.6,240.4l-11.1,5.4c0.8,3.3,2.1,6.5,3.8,9.4c0.1,0.4,0.4,0.6,0.8,0.8c0.4,0.1,0.8,0,1.2-0.3
	c3.7-2.1,7.3-4.1,10.9-6.3"/>
<path class="st3" d="M1496.1,245.9c0.5,2.8,1.4,5.5,2.5,8.1"/>
<path class="st3" d="M1503.3,241.6l5.8-1.7c1.2,1.9,0.7,4.4-1.2,5.6c-0.8,0.5-1.7,0.7-2.6,0.6"/>
<path class="st2" d="M1395.8,181.1h-43.1c-6.6,0-12-5.4-12-12V74.1c0-6.6,5.4-12,12-12h43.1c6.6,0,12,5.4,12,12v95.1
	C1407.8,175.8,1402.4,181.1,1395.8,181.1z M1402.3,159.4V90.5c0-6.6-5.4-12-12-12h-32.1c-6.6,0-12,5.4-12,12v68.9
	c0,6.6,5.4,12,12,12h32.1C1397,171.4,1402.3,166,1402.3,159.4z"/>
<path class="st3" d="M1354.5,154.8l9.5-0.3c0.1,0,0.1,0,0.2,0.1c0,0.1,0,0.1,0,0.2c0.1,2.5,0,5.1-0.1,7.6c0,0.3,0,0.5-0.3,0.6
	c-0.1,0-0.2,0-0.3,0l-8.4-0.1l-0.4-7c0.7,0.3,1.1,1.1,1.6,1.9c0.7,1,1.6,1.8,2.7,2.3c0.2,0.1,0.4,0.1,0.6,0.1
	c0.2-0.1,0.3-0.2,0.4-0.4c1.2-1.7,2.6-3.3,4.2-4.6"/>
<path class="st3" d="M1374.8,156.1c-0.8,0-1.5,0.6-1.8,1.4c-0.3,0.8-0.4,1.6-0.3,2.5c-0.1,1.1,0.2,2.2,0.8,3.1
	c1,1.3,2.9,1.1,4.2,0.4c-1-0.5-1.5-1.7-1.1-2.8c0.4-0.9,1.5-1.4,2.5-1c0.1,0,0.1,0.1,0.2,0.1c0.2,0.1,0.3,0.3,0.4,0.4
	c0.1,0.2,0.1,0.3,0.1,0.5c0.1,0.8,0,1.7-0.5,2.4c-0.5,0.7-1.3,0.9-2.1,0.6"/>
<path class="st3" d="M1374.6,154.7c-0.6,1-0.5,2.3,0.4,3.2c0.2,0.2,0.4,0.3,0.6,0.3c0.5,0,0.7-0.7,0.8-1.2c0.3-0.9,0.3-1.9,0-2.8
	c-0.4-0.9-1.5-1.4-2.2-0.8"/>
<path class="st3" d="M1391.6,155.8c-0.8,0-1.6,0.4-2.1,1.1c-0.4,0.7-0.7,1.5-0.8,2.3c-0.1,0.4-0.1,0.8,0,1.2c0.2,0.6,0.7,1,1.3,1.2
	c0.6,0.1,1.2,0,1.8-0.3c1.1-0.6,1.8-1.8,1.7-3.1c-0.2-1.2-1.3-2-2.5-1.9c-0.1,0-0.1,0-0.2,0"/>
<path class="st3" d="M1386.3,155.7c2.9-0.2,5.8-0.2,8.7-0.3v7.8h-10.2c-0.1,0-0.3,0-0.3-0.2c0-0.1,0-0.1,0-0.2l0.5-4.4
	c0-0.9,0.3-1.7,0.7-2.4"/>
<path class="st3" d="M1386.3,155.4c-0.5-1-0.2-2.2,0.8-2.7c0.5-0.3,1.1-0.3,1.7-0.1v3"/>
<path class="st3" d="M1376.8,92.7c-8.7,11-16.9,22.3-24.6,34"/>
<path class="st3" d="M1387.5,93c-13.4,14.2-22.3,32.1-34.1,47.6"/>
<path class="st3" d="M1388.9,114.7c-6.6,6.9-12.5,14.5-17.6,22.6"/>
<path class="st3" d="M1409.6,79.8c0.7-0.2,1.5-0.1,2.2,0.3c0.8,0.7,0.5,1.9,0.3,2.9c-0.5,2.2-0.8,4.4-0.6,6.7c0,0.2,0,0.4-0.1,0.6
	c-0.1,0.1-0.3,0.2-0.5,0.3l-3,0.7"/>
<path class="st3" d="M1339.7,83.3c-0.7-0.2-1.7-0.2-2,0.5c0,0.2,0,0.3,0,0.5l0.1,10.3c0,0.3,0,0.5,0.1,0.8c0.4,0.8,1.5,0.6,2.3,0.4"
	/>
<path class="st3" d="M1409,99.5h2.1v4c0,0.2,0,0.5-0.2,0.7c-0.2,0.1-0.4,0.2-0.7,0.2l-1.9,0.1"/>
<circle class="st1" cx="1360.5" cy="71.5" r="3.5"/>
<path class="st1" d="M1371,69h15c1.1,0,2,0.9,2,2l0,0c0,1.1-0.9,2-2,2h-15c-1.1,0-2-0.9-2-2l0,0C1369,69.9,1369.9,69,1371,69z"/>
<rect x="1366" y="174" class="st1" width="19" height="5"/>
<path class="st1" d="M1160.6,79.6c0,29.5-25,53.6-54.4,53.6s-51.5-24.1-51.5-53.6s21.5-53.4,51-53.4S1160.6,50.2,1160.6,79.6z"/>
<path class="st3" d="M1054.6,83.1c34.1,0.9,70,1.2,104.2,1"/>
<path class="st3" d="M1105.6,26.9c-1.6,20.6-0.3,41.2,0.2,61.8c0.4,17.8-0.1,26.7,0.3,44.5"/>
<path class="st3" d="M1105.6,26.2c-11.6,3-18.5,8.9-22.7,20.1c-7.3,20.2-7.6,43.4,0.4,63.5c4.3,10.9,14.3,16.2,22.8,23.4"/>
<path class="st3" d="M1105.6,25.5c10.1,2.5,15.9,10.9,19.3,20.2c4.1,11.9,6.6,24.3,7.4,36.9c0.9,12.1-0.9,23.9-8.1,34
	c-4.4,6.2-11,14-18.1,16.7"/>
<path class="st3" d="M1054.6,76.6c11.6-15.9,30.4-22.2,50.1-23.1c11.1-0.5,22.4,0.5,32.6,4.9s19.1,12.4,22.7,22.9"/>
<path class="st3" d="M1055,86.2c3.4,4.9,9.3,9.8,14.4,13c8.2,5.2,19.6,6.7,29,7.7c12.7,1.4,27.4,2,39.3-3.4c8.8-4,15.9-11,22.8-17.9
	"/>
<path class="st3" d="M1020.8,117.8c-0.5-10.4,13.4-20.6,14.3-4.9c3.2-1,8.1-7.7,10.9-4.1c2.5,7.3,3.9,8.5,7.8,8.3
	c4.4-0.3,8.7,1.4,11.8,4.6c2.7,2.9,3.7,5.8-2.2,7.9c-9.1-2.7-19.3,1-26.8-5.1c-3.6-1.1-7.3-0.8-11-0.5
	C1021,125.7,1020.8,117.8,1020.8,117.8z"/>
<path class="st3" d="M1139.7,131.3c1.5-5.4,6.3-9.3,11.9-9.7c1.5-0.1,3.7,1,4.6-0.2c10.6-13.7,20.1-5.9,21.5-6.8
	c7-4.8-5.5-6.8,3.7-10.4"/>
<path class="st3" d="M1168,87c1.9-2.4,4.5-4.1,7.4-5c0.7-0.3,1.4-0.3,2.1-0.2c2.3,0.8,1.9,5,4.3,5.6c0.5,0.1,1,0.1,1.5-0.1
	c1.1-0.3,2.2-0.5,3.4-0.6c1.2-0.1,2.3,0.5,2.9,1.4c0.5,0.9,0.4,2.1,0.9,3.1c0.7,1.4,2.6,1.8,3.7,2.9c1.3,1.5,1.7,3.5,1,5.4
	c-0.7,1.8-1.8,3.4-3.1,4.8"/>
<path class="st3" d="M1168.9,87.1c3.1,0.5,5.7,2.7,8,4.9c1.5,1.3,2.6,2.9,3.4,4.7c0.8,1.8,0.3,4-1.1,5.4"/>
<path class="st3" d="M1171.7,100.1c2.1-2.4,4.8-4.2,7.7-5.5c0.9-0.5,1.9-0.6,2.8-0.2c0.5,0.3,0.9,0.8,1.2,1.4l4.3,7.4"/>
<path class="st3" d="M1146.5,128.2c-0.4,0.1,0.2-0.4,0.5-0.2c2.5,1.7,5.8,1.4,8.8,0.8c3.5-0.8,7-1.8,10.4-2.9
	c4.7-1.5,9.4-3,13.4-5.8s10.1-3.4,10.4-8.3"/>
<path class="st3" d="M1075.3,36.1c-0.1-1.2-0.3-2.3-0.8-3.4c-0.2-0.5-0.6-1.1-1.1-1.2c-0.5,0-1,0.2-1.3,0.6
	c-1.3,1.1-2.4,2.3-3.3,3.7c-0.3-1.6-1.7-2.8-3.4-2.8c-1.6,0.1-3.2,0.8-4.3,2c-1.2,1.1-2.2,2.4-3.3,3.5c-0.2,0.2-0.4,0.3-0.7,0.3
	c-0.3,0-0.4-0.3-0.6-0.6c-1.1-1.5-3.5-1-5.2-0.1c-2.2,1.2-4.2,2.9-5.7,4.9c-0.7,0.9-1.2,2.3-0.3,2.9l4.2,0.8
	c5.8-3,12.3-3.8,18.9-3.8C1070.4,40.4,1072.7,38.1,1075.3,36.1z"/>
<path class="st3" d="M1024.5,104c0.6-3.8,12.6-13.9,10.8-10.7c-0.7-3.6-1.3-11.7-5.9-11.7c-10.7,4.5,1.8,12.1-8.5,8.3
	C1009.7,94.8,1016.8,134.4,1024.5,104z"/>
<path class="st11" d="M1119.3,70.1c-5.6-7.3,10.3-16.2,9.3-5.6c2.3-7.6,12.1-21.7,14.2-6.2c0.3-11.3,15.4-16.1,15.1-1.9
	c3.5-2,11.1-7.4,10.9,0.4C1168.5,69.5,1125,72.7,1119.3,70.1z"/>
<path class="st12" d="M1351.1,807.4c3-0.5,6.1-0.7,9.1-0.7c4.7,0,8.1,1.1,10.3,3.1c2.2,2,3.3,4.8,3.2,7.7c0.1,2.9-0.9,5.7-2.8,7.9
	c-2.5,2.7-6.6,4-11.3,4c-1.3,0-2.6-0.1-3.8-0.3v14.8h-4.8V807.4z M1355.9,825.1c1.3,0.3,2.6,0.4,3.9,0.4c5.7,0,9.2-2.8,9.2-7.9
	c0-4.9-3.4-7.2-8.7-7.2c-1.5,0-3,0.1-4.5,0.4V825.1z"/>
<path class="st12" d="M1378.2,838.9c1.9,1.2,4.1,1.9,6.3,1.9c3.5,0,5.1-1.8,5.1-3.9s-1.4-3.5-4.9-4.9c-4.8-1.7-7-4.3-7-7.5
	c0-4.3,3.4-7.8,9.1-7.8c2.3,0,4.5,0.5,6.5,1.6l-1.2,3.5c-1.6-1-3.5-1.5-5.4-1.5c-2.8,0-4.4,1.6-4.4,3.6c0,2.2,1.6,3.2,5,4.5
	c4.6,1.8,6.9,4,6.9,8c0,4.6-3.6,7.9-9.9,7.9c-2.6,0.1-5.2-0.6-7.4-1.8L1378.2,838.9z"/>
<path class="st3" d="M1221.6,104.6c1.5,4.3,8.2,6,9.2,10.4c-15.7,8.8-35.2,23.2-46.8,36.9c-0.6,0.8-1.4,1.5-2.3,1.8
	c-0.9,0.2-1.8,0.1-2.7-0.3c-6.6-2-12.8-5-18.5-9c-0.9-0.8-2.1-1.3-3.3-1.4c-0.8,0.1-1.6,0.3-2.3,0.7c-13.2,6.3-23.4,14.2-35.1,22.9
	c0,0,17.9,17.9,18.5,17.3c6.8-6.3,13.7-12.6,20.5-18.8c0.9-0.9,1.9-1.6,3.1-2c2-0.5,4,0.7,5.8,1.8c6.2,4,12.9,7.3,19.8,9.9
	c0.9,0.4,1.9,0.6,2.8,0.4c1.1-0.4,2-1.2,2.6-2.3c5.3-7.7,8.4-16.7,13.6-24.4c5.4-7.9,18.5-17,27.2-20.9c0.8-0.4,1.6-0.6,2.5-0.6
	c0.8,0.2,1.6,0.5,2.2,1c6.1,4.2,6.8,11,12.9,15.2c-1.4-16.7,5.8-33.1,19-43.4C1265.1,95.2,1228.1,107.6,1221.6,104.6"/>
<path class="st2" d="M1224.6,113.6c0.6,1.4,1.5,2.6,2.6,3.5c1.2-0.7,2.4-1.4,3.6-2.1c-0.1-0.3-0.2-0.7-0.4-1
	C1227.8,114.2,1225.7,114.1,1224.6,113.6z"/>
<path class="st2" d="M1273.6,108.9c-1.6-1.4-6-1.3-11.5-0.5c-7.8,9.9-11.5,22.4-10.5,35c-6.1-4.2-6.8-11.1-12.9-15.2
	c-0.6-0.5-1.4-0.8-2.2-1c-0.9,0-1.7,0.2-2.5,0.6c-8.7,3.9-21.8,13-27.2,20.9c-5.3,7.7-8.4,16.7-13.6,24.4c-0.6,1-1.5,1.8-2.6,2.3
	c-1,0.1-2,0-2.8-0.4c-6.9-2.6-13.5-5.9-19.8-9.9c-1.8-1.1-3.8-2.3-5.8-1.8c-1.2,0.4-2.3,1.1-3.1,2c-6.8,6.3-13.7,12.6-20.5,18.8
	c-0.4,0.4-12.3-10.9-17.5-16c-1.2,0.9,3.1,6.8,2,7.6c0,0,17.9,17.9,18.5,17.3c6.8-6.3,13.7-12.6,20.5-18.8c0.9-0.9,1.9-1.6,3.1-2
	c2-0.5,4,0.7,5.8,1.8c6.2,4,12.9,7.3,19.8,9.9c0.9,0.4,1.9,0.6,2.8,0.4c1.1-0.4,2-1.2,2.6-2.3c5.3-7.7,8.4-16.7,13.6-24.4
	c5.4-7.9,18.5-17,27.2-20.9c0.8-0.4,1.6-0.6,2.5-0.6c0.8,0.2,1.6,0.5,2.2,1c6.1,4.2,6.8,11,12.9,15.2
	C1253.2,135.6,1260.4,119.3,1273.6,108.9z"/>
<path class="st3" d="M1271.5,93.4c0.3-2.9,2.8-5,5.7-4.8c2.8,0.4,5.1,2.5,5.8,5.2c0.3,1.2,0.2,2.4-0.1,3.5c-1.2,3.2-4.8,4.7-8,3.5
	c-0.3-0.1-0.5-0.2-0.8-0.4"/>
<path class="st3" d="M1259.8,76.6c2.2,4.2,4.9,8.1,8,11.7"/>
<path class="st3" d="M1289.5,60c-1.1,8.4-3.4,16.7-6.7,24.6"/>
<path class="st3" d="M1290.7,92.1c6.2,0.8,12.3,2.2,18.3,4.3"/>
<path class="st3" d="M1285.2,107.4c0.7,3.3,1.7,6.5,2.7,9.7"/>
<path class="st3" d="M1274.5,110.8l-2,10.1"/>
<path class="st3" d="M1292.8,102.9c5.9,4.7,12.1,9,18.5,12.9"/>
<path class="st3" d="M1287.8,87c8-8.9,17.3-16.6,27.4-23"/>
<path class="st3" d="M1266.6,58.5l8.7,19.7"/>
<path class="st3" d="M1251.1,94.2c5.3,0.8,10.6,1.3,15.9,1.4"/>
<path class="st2" d="M1321.1,162.4c-0.8-2.8-1.5-5.5-2.3-8.3c-1.4-5.4-2.8-20.1-2.8-20.1c1.5-0.1,3-0.6,4.2-1.5
	c2.3-1.7,4.2-3.9,5.5-6.5c0.3-0.6,0.5-1.2,0.5-1.8c0,0-7.4,2.1-8.1,2.2c-2.7,0.8-5.5,0.9-8.2,0.3c-0.3,5.2,1.3,10.4,1.5,15.6
	c0.1,2.7,0,5.4-0.2,8.1c-0.2,2.5-0.3,5.8-1.4,8c0.3-0.5-4.8-1.3-5.3-1.3c-2.1,0-4.2,0.6-6,1.8c-2.2,1.5-3.9,3.7-4.7,6.2
	c-0.8,2.1-0.9,4.3-0.5,6.4c0.7,2.5,2.3,4.7,4.6,6.1c3.8,2.5,8.5,3.3,13,2.3C1324,177,1321.8,164.8,1321.1,162.4z"/>
<path class="st3" d="M1494.2,827.5c-10.9-0.2-24.3,3.7-33.9,8.8c-3.8,2-7.4,4.2-10.8,6.8c-10.4,8.1-17.3,20-21.3,32.6
	s-4.8,18.5-6,31.6"/>
<path class="st1" d="M1397.2,921.7c-1.6,0.2-2.3-2-2.5-3.6c-0.8-10.9-1.1-21,1.6-31.6c4.8-18.8,13.6-38.4,28.2-51.6
	c18.8-17.1,48.9-21.8,73.5-15.8c14.3,3.5,26.3,13,36,24c8,9,14.1,19.2,16,30c3,16.9,2.3,34,0,51c-1.3,9.6-4,17-7.2,27.7
	c-1.2,4,0.8,8.5-0.4,12.5c-1.5,5-5.7,8.7-9.8,12c-5,3.9-10.6,7.6-16.9,8c-9.7,0.6-18-6.8-18.6-16.5c-0.2-3.3,0.5-6.5,2.1-9.4
	c4.2-7.7,13.3-11.2,19.8-17.2c8.2-7.6,11.7-18.9,13.9-29.8c3.7-18.2-0.7-58.9-28-76.3c-33.8-21.5-55-12.5-60.9-9.2
	c-40.1,22.2-50.2,71-46.3,93"/>
<path class="st3" d="M1437,912c-4.1-2.7-21-6.8-33.3,2.9c-3.4,2.7-6.5,5.5-8.2,9.5c-4.1,10.1-2.6,29.6,16.4,45.3
	c22,18.3,45.9,9.7,48,4.3"/>
<path class="st3" d="M1496.6,987.6c-10.1,3.9-19.9,0.1-25.5-2.7c-3.2-1.6-6.4-3.4-8.6-6.2c-1.9-2.8-3.1-6-3.5-9.3
	c-1.4-10.2,0.5-20.6,5.5-29.7c5-9,12.4-16.5,21.3-21.6c4.7-2.9,9.9-4.9,15.4-5.7c4.2-0.4,8.4,0.1,12.3,1.5
	c2.9,0.9,13.2,3.8,13.4,8.2l2,3c-2.6-2.8-10-7-17-6c-7.2,1-10.3,1.8-16.7,5.3c-5.5,3.1-11.1,8.3-15.5,12.8
	c-6.2,6.5-9.5,15.2-11.3,23.9c-1.1,5-1.7,10.6,0.8,15.1c2.8,5.1,8.7,7.6,14.3,9.2c7.9,2.2,16.2,2.7,24.3,1.7c3.3-0.4,6.9,0.9,9-1.7"
	/>
<path class="st3" d="M1518.5,984.9c7.2,8.8,20.4,7.5,31,3.1c10.7-4.7,17.4-15.6,16.5-27.3c-0.5-5.3-2.5-10.3-3.8-15.5
	c-7.5-30,10.8-60.4,40.8-67.9c2.3-0.6,4.7-1,7.1-1.3c6-0.7,12.3-0.5,17.8-2.9c12.4-5.5,15.5-21.5,15.1-35.1
	c-0.5-13.1-4.2-28.1-16-33.8c-2.8-1.3-6.1-2-8.8-0.5s-3.8,4.8-4.1,7.8c-1.1,12.2,9.9,23.5,22.1,25s24.4-5.2,31.9-14.9
	c4.3-5.6,7.4-12.1,11.2-18c19.1-30.2,55.1-44.3,88.7-56.6"/>
<path class="st3" d="M1769.5,748.7c-0.8,0.4-1.8,0-2.2-0.8c-0.1-0.1-0.1-0.3-0.1-0.5c0.1-0.9,0.5-1.7,1.3-2.2c2.7-2.4,6-3.9,9.6-4.3
	c0.2-0.1,0.5,0,0.7,0.1c0.2,0.1,0.3,0.2,0.4,0.4c0.4,0.7,0.4,1.6-0.1,2.3c-0.4,0.4-0.8,0.8-1.3,1.1c-2.9,1.7-5.9,3.2-9,4.4"/>
<path class="st3" d="M1778.5,741.6c2.2-1,4.5-1.8,6.8-2.7"/>
<path class="st0" d="M1490,939c0,0-11,11-13,31l-6,1c0,0,0-10,3-18c3.8-10.1,12-17,12-17L1490,939z"/>
<path class="st3" d="M1435.4,980.4c-8.7-1.3-16.8-5-23.4-10.7c-16.1-13.4-19.6-29.5-17.8-40.2l0,0c0,0-12.2,8.5-2.2,27.5
	s27,26,32,26S1435.4,980.4,1435.4,980.4L1435.4,980.4z"/>
<path class="st3" d="M1464.6,939.6c0.2-0.4,0.4-0.7,0.6-1.1c-2.6-6.3-6.6-11.9-11.6-16.5c-13.8-12.7-32-15.4-40.6-6
	s-4.3,27.2,9.5,39.9c11.8,10.8,26.7,14.4,36.2,9.4C1458.2,956.4,1460.2,947.5,1464.6,939.6z"/>
<g>
	<defs>
		
			<ellipse id="SVGID_3_" transform="matrix(0.6764 -0.7366 0.7366 0.6764 -226.3098 1363.1344)" cx="1438" cy="939.1" rx="11.9" ry="17.5"/>
	</defs>
	<clipPath id="SVGID_4_">
		<use xlink:href="#SVGID_3_"  style="overflow:visible;"/>
	</clipPath>
	<g class="st13">
		<line class="st14" x1="1433.7" y1="920" x2="1419.3" y2="937"/>
		<line class="st14" x1="1437.1" y1="923.4" x2="1422.7" y2="940.4"/>
		<line class="st14" x1="1440.6" y1="926.8" x2="1426.1" y2="943.8"/>
		<line class="st14" x1="1443.9" y1="930.2" x2="1429.6" y2="947.2"/>
		<line class="st14" x1="1447.4" y1="933.5" x2="1433" y2="950.6"/>
		<line class="st14" x1="1450.8" y1="936.9" x2="1436.4" y2="953.9"/>
		<line class="st14" x1="1454.2" y1="940.3" x2="1439.8" y2="957.3"/>
		<line class="st14" x1="1457.6" y1="943.7" x2="1443.2" y2="960.7"/>
		<line class="st14" x1="1461" y1="947.1" x2="1446.6" y2="964.1"/>
		<line class="st14" x1="1434" y1="920" x2="1461" y2="947"/>
		<line class="st14" x1="1431.5" y1="922.5" x2="1458.5" y2="949.5"/>
		<line class="st14" x1="1429" y1="925" x2="1456" y2="952"/>
		<line class="st14" x1="1426.5" y1="927.5" x2="1453.5" y2="954.5"/>
		<line class="st14" x1="1424" y1="930" x2="1451" y2="957"/>
		<line class="st14" x1="1421.5" y1="932.5" x2="1448.5" y2="959.5"/>
		<line class="st14" x1="1419" y1="935" x2="1446" y2="962"/>
	</g>
</g>
<path class="st0" d="M1487.6,934.3c0,0,3.3-4.7,6.7-5.8l2.8,2.7c-1.2,1-2.3,2.1-3.4,3.3c-0.9,0.9-1.8,2-2.5,3.1L1487.6,934.3z"/>
<path class="st5" d="M1592.9,861.2c-8.8,0-17.7,0.3-26.5,0.3h-6.6c-0.3,0-0.6,0-0.9,0l-1-0.1c-0.7-0.1-1.3-0.2-2-0.4
	c-1.3-0.3-2.6-0.9-3.8-1.5c-2.3-1.4-4.3-3.4-5.6-5.8c-0.6-1.2-1.1-2.5-1.4-3.8c-0.1-0.7-0.2-1.3-0.3-2v-1c0-0.3,0-0.6,0-0.9
	l0.1-26.5v-6.6c0-1.3,0.1-2.5,0.3-3.8c0.3-1.3,0.7-2.6,1.3-3.8c0.6-1.2,1.4-2.3,2.3-3.3c0.9-1,1.9-1.8,3.1-2.5
	c2.3-1.4,4.9-2.2,7.6-2.2l26.5,0.1h6.6c0.3,0,0.6,0,0.9,0l1,0.1c0.7,0.1,1.3,0.2,2,0.4c1.3,0.3,2.5,0.8,3.7,1.5
	c2.3,1.3,4.2,3.3,5.5,5.6c0.6,1.2,1.1,2.4,1.4,3.7c0.1,0.7,0.2,1.3,0.3,2v1c0,0.3,0,0.6,0,0.9v26.5v6.6c0,1.3,0,2.5-0.3,3.8
	c-0.5,2.6-1.7,5-3.5,7c-0.9,1-1.9,1.8-3,2.5C1598.3,860.4,1595.6,861.2,1592.9,861.2z M1592.9,856.2c3.6,0,6.9-2,8.5-5.3
	c0.4-0.8,0.7-1.6,0.9-2.5c0.2-0.9,0.2-1.9,0.2-2.8V839v-26.5c0-0.3,0-0.6,0-0.8v-0.7c0-0.4-0.1-0.9-0.2-1.3
	c-0.2-0.9-0.5-1.7-0.9-2.5c-0.9-1.6-2.1-2.9-3.7-3.8c-0.8-0.5-1.6-0.8-2.5-1c-0.4-0.1-0.9-0.2-1.3-0.2c-0.2,0-0.4,0-0.7,0
	c-0.2,0-0.5,0-0.7,0h-6.6l-26.5,0.1c-4.5,0.1-8.4,3.3-9.3,7.7c-0.1,0.9-0.2,1.9-0.2,2.8v6.6l0.1,26.5c0,0.3,0,0.6,0,0.8v0.6
	c0,0.4,0.1,0.8,0.2,1.3c0.2,0.8,0.5,1.6,0.9,2.4c0.8,1.5,2.1,2.7,3.6,3.6c0.7,0.4,1.5,0.7,2.4,1c0.4,0.1,0.8,0.2,1.3,0.2h0.6h0.7
	h6.6C1575.3,855.9,1584.1,856.2,1592.9,856.2z"/>
<path class="st5" d="M1592.8,831.3c-0.1,2.2-0.5,4.3-1.4,6.3c-0.9,2-2.1,3.7-3.7,5.2c-3.1,2.9-7.2,4.6-11.5,4.6
	c-9,0-16.3-7.1-16.6-16.1c-0.1-4.5,1.5-8.8,4.6-12c1.5-1.6,3.4-2.9,5.4-3.8c2.1-0.9,4.3-1.3,6.5-1.4c2.2,0,4.5,0.4,6.6,1.3
	C1589,818.2,1593,824.5,1592.8,831.3L1592.8,831.3z M1589.7,831.3c-0.1-3.5-1.6-6.9-4.2-9.3c-2.5-2.3-5.8-3.7-9.3-3.7
	c-7.3,0-13.3,5.7-13.5,13c-0.3,7.5,5.5,13.8,13,14.1c2,0.1,4-0.3,5.9-1.1C1586.7,842.1,1589.9,836.9,1589.7,831.3L1589.7,831.3z"/>
<path class="st5" d="M1596,810.8c0.1,1.9-1.3,3.6-3.2,3.7c-1,0.1-2.1-0.3-2.8-1.1c-1.4-1.4-1.3-3.6,0.1-4.9c0,0,0.1-0.1,0.1-0.1
	c1.5-1.3,3.7-1.1,5,0.4C1595.6,809.4,1595.9,810.1,1596,810.8L1596,810.8z M1594.8,810.8c0.1-0.6-0.1-1.2-0.5-1.6
	c-0.4-0.4-1-0.6-1.6-0.6c-1.1,0.1-1.9,1-1.9,2.1c0,0,0,0,0,0.1c0,1.1,0.9,2,2,2S1594.8,811.9,1594.8,810.8L1594.8,810.8z"/>
<path class="st15" d="M1587.1,914.3c-1.8-1.5-3-2.6-5.3-2.2c-2.3,0.4-4.3,1.8-5.6,3.8c-0.8,1.5-1.3,3.1-1.4,4.8
	c-0.3,2.8,0.4,6.2,2.9,7.6c1.2,0.6,2.5,0.8,3.8,0.7c1.6,0,3.2-0.3,4.6-1c1.3-0.9,2.5-2,3.6-3.2c1.7-6.7,2.8-13.5,3-20.4
	c0-0.5,0.1-1,0.4-1.5c0.3-0.3,0.7-0.4,1.1-0.5l9.2-2c0.2-0.1,0.5-0.1,0.7,0c0.4,0.2,0.5,0.7,0.6,1.1c1,7.9,2.4,19,2.4,27l0.1,0.1
	c-5.3,0.3-11.4,1.2-14,5.8c-2.2,4-0.4,9.4,3.4,11.8s8.9,2.3,13,0.4c0.4-16.9,0.8-33.9,1.2-50.8c0-1.7-0.1-3.7-1.6-4.4
	c-1-0.4-2.1-0.4-3.2,0c-6.6,1.5-13.4,1.3-19.9-0.4c1.1,7.8,1.3,15.7,0.7,23.5"/>
<path class="st3" d="M1102.3,888.8h54.8c6.6,0,12,5.4,12,12v56.1c0,6.6-5.4,12-12,12h-54.8c-6.6,0-12-5.4-12-12v-56.1
	C1090.3,894.2,1095.6,888.8,1102.3,888.8z"/>
<path class="st2" d="M1146.6,934.3c-2.3-1.8-4.8-3.4-7.4-4.8c0.6,0.4,3.3-5,3.5-5.5c0.8-2.3,1.1-4.7,1-7.1c0-1.3-0.2-2.5-0.5-3.8
	c-0.7-2-1.9-3.8-3.5-5.2c-1.8-1.7-3.9-3.1-6.1-4.2c-5.3-2.8-11.7-2.1-16.3,1.7c-5.5,4.8-6.9,12.9-3.1,19.3c1.6,2.6,4.3,4.8,7.4,4.7
	v0.1c-3.3,1.5-6.3,3.3-9.2,5.5c-1.2,0.8-2.3,1.7-3.3,2.8c-1,1.4-1.8,3.1-2.2,4.8c-1.3,4.5-2.1,9.1-2.4,13.8c0,0,35.4-2,51.2-0.6
	c0.5-9.1-1.3-15.1-8.7-21.1L1146.6,934.3z"/>
<path class="st3" d="M1184.5,895h28.5c2.9,0,5.3,2.4,5.3,5.3v29.1c0,2.9-2.4,5.3-5.3,5.3h-28.5c-2.9,0-5.3-2.4-5.3-5.3v-29.1
	C1179.2,897.3,1181.6,895,1184.5,895z"/>
<path class="st16" d="M1191.3,916.5c0.9-0.8,2-1.5,3.2-1.9c-0.5,0.2-1.5-2.8-1.6-3.2c-0.3-1.3-0.2-2.7,0.2-4
	c0.8-2.4,2.8-4.2,5.3-4.7c2.4-0.4,4.9,0.5,6.3,2.5c2.2,3,2.1,7.9-2.3,9.7c4.4,1.8,6.8,6.7,6,11.6l-21.2-0.1
	C1186.9,922.7,1188.4,919,1191.3,916.5z"/>
<circle class="st3" cx="1445.8" cy="135" r="25.6"/>
<path class="st3" d="M1437.2,110l-0.3-2.7"/>
<path class="st3" d="M1441.7,108.6c0.6-1.6,1.2-3.2,2-4.8"/>
<path class="st3" d="M1448.9,109c2.4-1.6,5.1-2.6,7.9-3"/>
<path class="st3" d="M1457.1,112.3l3.4-0.1"/>
<path class="st2" d="M1438.4,135.1l0.3-6.1c0.1-1.5,0.1-3.1-0.9-4.2c-0.3-0.4-0.7-0.5-1.2-0.4c-0.4,0.2-0.6,0.7-0.7,1.2
	c-0.4,3.3,0.2,6.6,1.7,9.6"/>
<path class="st17" d="M1453.4,135.1l0.4-6.1c0.1-1.5,0.1-3.1-0.9-4.2c-0.3-0.4-0.7-0.5-1.2-0.4c-0.4,0.2-0.6,0.7-0.6,1.2
	c-0.4,3.3,0.2,6.6,1.7,9.6"/>
<path class="st3" d="M1435.1,144.2c1.2,2.6,4.1,3.8,6.9,4.6c3.3,0.9,6.9,1.3,10-0.2c2-1.1,3.7-2.7,5.1-4.5"/>
<path class="st3" d="M1436.1,142.4c-0.6,1.1-1.3,2.1-2.1,3"/>
<path class="st3" d="M1456.1,143.1c0.7,1.3,2,2.2,3.5,2.4"/>
<path class="st18" d="M1529,812c3-0.3,7-1,7-9c0-5-5.9-5.9-7.4-4.6c1.1-5.5,1.1-11.5-1.7-16.3c-1.3-2.3-3.5-4.3-6.2-4.4
	c-2.2,0.1-4.3,1.2-5.6,3.1c-1.2,1.8-2.1,3.9-2.7,6c0-1.9-0.7-3.8-1.8-5.3c-1.2-1.5-3.2-2.2-5.1-1.7c-1.8,0.6-3.3,1.7-4.6,3.1
	c-2.4,3.3-3,6.8-4,10.8c-0.5-2.2-4-2.2-5.3-0.3s-0.9,4.3-0.3,6.5c0,0,1.7,3,8.7,2s7,2,12,4c3.3,1.2,6.7,2.2,10.1,2.8l0.9,0.2
	C1523,809,1525.7,812.4,1529,812z"/>
<path class="st18" d="M1543,365c3-0.4,7-1,7-9c0-5-5.9-5.9-7.4-4.6c1.1-5.5,1.1-11.5-1.7-16.3c-1.3-2.3-3.5-4.3-6.2-4.4
	c-2.2,0.1-4.3,1.2-5.6,3.1c-1.2,1.8-2.1,3.9-2.7,6c0-1.9-0.7-3.8-1.8-5.3c-1.2-1.5-3.2-2.2-5.1-1.7c-1.8,0.6-3.3,1.7-4.6,3.1
	c-2.4,3.3-3,6.8-4,10.8c-0.5-2.2-4-2.2-5.3-0.3s-0.9,4.4-0.3,6.5c0,0,1.7,3,8.7,2s7,2,12,4c3.3,1.2,6.7,2.2,10.1,2.8l0.9,0.2
	C1537,362,1539.7,365.4,1543,365z"/>
<path class="st3" d="M1324.8,921.8l4.4-0.7c-12.9,27.6-22.1,41.5-34.3,80.2"/>
<path class="st1" d="M1323.7,922.1c-26,15.8-52.8,30.3-80.3,43.4c-2.3,1.6-5.4,1.7-7.7,0.2l-40.2-19.5l0.1-0.7
	c40.2-6.2,88.4-17.2,129.2-23.7L1323.7,922.1z"/>
<path class="st1" d="M1296,1001.7c-11.5-2.4-34.4-11.2-39.9-21.5c23.7-16.5,40.7-41.5,65-57.1l7.9-2L1296,1001.7z"/>
<path class="st2" d="M1257.6,982.1c-5.7,7.8-11.2,15.4-16.8,23.1c-0.8-12.5-1.9-24.7-2.7-37.2l81.5-43.7L1257.6,982.1z"/>
<path class="st3" d="M1193.4,961.3c-15.5,6.8-26.5,21.3-33,36.9c-3.9,9.4-6.4,19.9-3.9,29.7c2.4,9.2,9,16.8,16,23.2
	c21.3,19.7,47.7,32.8,76.3,37.8"/>
<path class="st3" d="M1279.2,1003.8c-2.9,3-5.9,6.3-6.3,10.5c-0.4,3.7,1.5,7.3,3.8,10.3c9.1,12.2,24.4,18.2,39.4,20.8"/>
<path class="st3" d="M1239,1027.1c-1.2,8.1,3.8,15.8,9.4,21.9c10.8,11.8,24.3,20.8,39.3,26.2"/>
<path class="st3" d="M1219.3,976.4c-7.9,7.1-15,15.3-19.1,25.1s-4.8,21.3-0.1,30.9c2.7,5.4,6.9,9.9,11,14.3"/>
<path class="st3" d="M1265.4,997.9c-2.5,4.1-4.5,8.5-6.1,13.1c-1.5,4.6-1.7,9.6-0.5,14.3c2.5,8.6,10.5,14.3,18,19.2"/>
<path class="st3" d="M1359.3,988.5l-10.2,0.9c-0.6,0.1-1.2,0-1.7-0.2c-0.7-0.6-0.9-1.7-0.3-2.5c0.6-0.7,1.4-1.3,2.3-1.5
	c2.1-1,4.5-1.4,6.9-1.1c2.3,0.4,4.5,2.1,4.9,4.5"/>
<path class="st3" d="M1373.6,1025.9c9.1,8.4,18.3,16.9,28.8,23.4c2.7,1.7,6,3.3,9,2.2s4.5-5.1,3.9-8.4s-2.8-6.1-5-8.7
	c-7.9-9.3-17.2-17.2-27.6-23.7"/>
<path class="st2" d="M1337.5,963c-2.5-9-2.2-20.8-13.8-12.1C1328.5,963.1,1328.3,972,1337.5,963z"/>
<path class="st2" d="M1360.1,958.9c0.5-6.3,0.9-12.7,1.1-19c0-0.2,0-0.4-0.1-0.5c-0.2-0.3-0.6-0.3-0.9-0.2l-10.8,1.7
	c-0.4,0-0.7,0.2-0.7,0.6c0,0.1,0,0.2,0,0.3c0.4,6.6,0.1,13.1-0.9,19.6l-0.1,0.1l11.8,0.7L1360.1,958.9z"/>
<path class="st2" d="M1376.7,965.5c5.5-7.5,8.2-16.5-3.9-13.6c-1.8,3.8-2.2,8.2-3.6,12.1C1371.7,965,1374,970,1376.7,965.5z"/>
<path class="st3" d="M1650.4,777c-0.7,6.9-2.9,13.5-4.3,20.2c-0.1,0.4-0.1,0.8,0.1,1.2c0.4,0.6,1.3,0.2,2-0.2
	c4.7-3,9.9-3.4,14.8-6.2"/>
<path class="st2" d="M1713,734c1.2-1.1,2.4-2.1,3.8-2.9c0.3-0.1,0.5-0.2,0.8-0.3c0.4,0,0.7,0.2,1,0.4c4,3,6.7,8.7,7.1,13.7
	c-2,0.6-3.9,1.4-5.8,2.3"/>
<path class="st1" d="M1660.9,778.8c-0.9,1.3-2.4,5.1-2.1,5.3s4,0.2,4.2,0.3s-0.3,5.5-0.5,7.9c0,0,37.9-28.3,56.2-42.7
	c0.5-0.3,1-0.8,1.2-1.4c0.1-0.5,0.1-1.1,0-1.6l-0.8-5c0,0-4.3-5-7.3-7.6c-0.8-1.1-2.3-1.3-3.3-0.5c-0.1,0.1-0.2,0.2-0.3,0.3
	c-19.7,13.1-38.9,27-57.6,41.5C1622.6,797.2,1658.1,779.2,1660.9,778.8z"/>
<path class="st3" d="M1694.1,751.5c6.9-5.9,13.1-9.8,20.9-14.5"/>
<path class="st3" d="M1689.3,757.3c-2.9,2.5-6.1,4.8-9.4,6.7"/>
<path class="st3" d="M1645.7,795.7c1.3-1.6,3.2-2.5,5.2-2.6c0.3,0.8,0,1.7-0.7,2.2c-0.7,0.4-1.5,0.7-2.3,0.7
	c-0.3,0.1-0.5,0.1-0.8-0.1c-0.6-0.4,0.2-1.3,0.8-1c0.5,0.4,0.5,1.1,0.1,1.6c0,0-0.1,0.1-0.1,0.1c-0.5,0.4-1.2,0.6-1.8,0.7
	c0-0.7,0.4-1.3,1-1.6"/>
<path class="st5" d="M1647.9,798.5c-4.7,0.1-9.4-0.1-14-0.6c-1.2-0.1-2.3-0.2-3.6-0.5c-1.5-0.2-2.8-0.9-3.9-1.9
	c-0.6-0.7-1-1.5-1.2-2.5c-0.1-0.9,0-1.8,0.4-2.6c0.6-1.2,1.4-2.4,2.5-3.3l0,0l-0.5,1.8c0,0.1,0.1,0.3,0.2,0.4c0,0.1,0.1,0.1,0.2,0.1
	c-0.1,0-0.2-0.1-0.3-0.1c-0.1,0-0.5,0-0.8,0h-0.9c-1.2,0-2.4,0.1-3.6,0.2c-2.4,0.3-4.8,0.7-7.1,1.2c-4.8,1.1-9.5,2.6-14.4,3.7
	c-0.6,0.1-1.2,0.3-1.8,0.4l-0.9,0.2l-0.5,0.1c-0.2,0-0.4,0.1-0.6,0.1c-0.5,0.1-0.9,0.1-1.4,0c-0.6-0.1-1.3-0.4-1.7-0.8
	c-0.5-0.5-0.9-1.2-0.9-2c0-0.6,0.1-1.1,0.4-1.7c0.2-0.4,0.4-0.8,0.7-1.1c0.1-0.2,0.2-0.3,0.4-0.5l0.3-0.3c0.4-0.5,0.8-0.9,1.3-1.4
	c0.9-0.9,1.8-1.8,2.7-2.7c3.7-3.4,7.5-6.6,11.5-9.7l5.9-4.5l1.4-1.1l0.7-0.6c0.2-0.1,0.3-0.3,0.5-0.4c0.1-0.1,0.2-0.2,0.2-0.3
	c0,0-0.1,0-0.1,0.3c0,0.2,0.1,0.4,0.2,0.5c0.1,0.1,0,0-0.2-0.1c-0.9-0.3-1.9-0.5-2.8-0.5c-1.1,0-2.4,0.1-3.6,0.1
	c-2.4,0.2-4.8,0.3-7.2,0.7c-9.5,1.3-18.7,4.4-27,9.1c-2.2,1.1-4.8,0.3-5.9-1.9c-1.1-2-0.4-4.5,1.6-5.8c0.2-0.1,0.5-0.3,0.8-0.3h0.1
	c9.7-3.3,19.8-5.3,30.1-6.1c2.5-0.2,5.1-0.3,7.6-0.3c1.3,0,2.5,0,3.8,0.1c1.5,0.1,3,0.4,4.4,1c0.5,0.2,1,0.5,1.4,0.9
	c0.6,0.6,0.9,1.3,1,2.2c0,0.7-0.1,1.5-0.5,2.1c-0.3,0.4-0.6,0.8-0.9,1.2c-0.3,0.3-0.6,0.5-0.9,0.8l-0.8,0.5l-1.5,1.1l-6,4.3
	c-4,2.8-7.8,5.9-11.4,9.2c-0.9,0.8-1.8,1.7-2.6,2.5c-0.8,0.7-1.5,1.5-2.1,2.4c-0.1,0.1-0.1,0.2-0.1,0.1c0-0.1-0.1-0.2-0.1-0.3
	c-0.1-0.1-0.2-0.1-0.1-0.1c0.2,0,0.3,0,0.5,0l0.3,0l0.4-0.1l0.9-0.2c0.6-0.1,1.2-0.3,1.8-0.4c4.7-1.1,9.5-2.6,14.3-3.8
	c2.5-0.6,5-1.1,7.5-1.4c1.3-0.2,2.6-0.3,3.8-0.3h1c0.4,0,0.7,0,1.1,0c0.5,0,1,0.1,1.5,0.3c0.3,0.2,0.7,0.4,0.9,0.6
	c0.3,0.3,0.6,0.7,0.7,1.2c0.2,0.7,0,1.4-0.5,1.8l0,0c-0.7,0.6-1.3,1.3-1.8,2.1c-0.1,0.2-0.2,0.5-0.2,0.8c0,0.2,0.1,0.5,0.2,0.6
	c0.6,0.6,1.4,1,2.2,1.1c1,0.3,2.2,0.4,3.3,0.6c4.5,0.8,9.1,1.2,13.6,1.4c0.6,0,1,0.4,1,1s-0.4,1-1,1L1647.9,798.5z"/>
<path class="st3" d="M1350,789.9h43.1c6.6,0,12,5.4,12,12V846c0,6.6-5.4,12-12,12H1350c-6.6,0-12-5.4-12-12v-44.1
	C1338,795.2,1343.4,789.9,1350,789.9z"/>
<path class="st2" d="M1393.1,858H1350c-6.6,0-12-5.4-12-12v-44.1c0-2.2,0.6-4.3,1.8-6.2c-4.7,1.8-7.7,6.2-7.8,11.2V851
	c0,6.6,5.4,12,12,12h43.1c4.2,0,8.1-2.2,10.2-5.8C1396,857.7,1394.5,858,1393.1,858z"/>
<path class="st19" d="M1351.7,808.1c0.5-0.4,1.1-0.6,1.7-0.6c1.9-0.2,3.7-0.4,5.6-0.4c2.7-0.2,5.3,0.1,7.9,0.8
	c2,0.6,3.8,1.8,5.2,3.5c3.1,4,2.6,10.7-0.8,14.3c-2.5,2.7-6.6,4-11.3,4c-1.3,0-2.6-0.1-3.8-0.3c0,4.8,0.5,10,0,14.8
	c-1.6-0.1-3.2-0.2-4.7-0.1c0-7.5,0-14.9,0-22.4v-11.3C1351.4,809.2,1351.3,808.5,1351.7,808.1z M1356.4,825.4
	c0.1,0.1,0.2,0.2,0.3,0.3c0.9,0.5,3.1,0.2,4.2,0.1c2.6-0.2,5.4-1.1,7-3.2c0.9-1.3,1.4-2.9,1.4-4.5c0-4.9-3.4-7.2-8.7-7.2
	c-1.5,0-3,0.1-4.5,0.4c-1.5,0.4-0.2,10.9-0.1,12.3C1356.1,824.3,1356,824.9,1356.4,825.4z"/>
<path class="st19" d="M1378.5,839.4c0.1,0,0.2,0,0.2,0c2.8,0.8,5.6,2.5,8.6,1.3c1.2-0.5,2.2-1.5,2.6-2.8c0.8-3.1-2.5-4.8-4.8-5.7
	c-4.8-1.7-7-4.3-7-7.5c0-3.6,2.3-6.2,5.7-7.2c1.6-0.5,9.7-1.4,9.9,1.3c0.1,0.9-0.8,2.3-1.2,3.2c-2.1-1.1-4.7-2-7.1-1.3
	c-1.9,0.5-3.1,2.4-2.7,4.4c0,0.1,0,0.2,0.1,0.3c0.7,1.8,3.2,2.6,4.8,3.2c3.7,1.4,7.7,4.8,7,9.2c-0.8,4.8-5.6,6.7-9.9,6.7
	c-2.6,0-5.1-0.6-7.4-1.8c0.1,0,1-3,1.1-3.2C1378.4,839.6,1378.5,839.5,1378.5,839.4z"/>
<path class="st2" d="M1203.6,1.4h43.1c6.6,0,12,5.4,12,12v44.1c0,6.6-5.4,12-12,12h-43.1c-6.6,0-12-5.4-12-12V13.4
	C1191.6,6.8,1196.9,1.4,1203.6,1.4z"/>
<path class="st1" d="M1246.6,69.6h-43.1c-6.6,0-12-5.4-12-12V13.4c0-2.2,0.6-4.3,1.8-6.2c-4.7,1.8-7.8,6.2-7.8,11.2v44.1
	c0,6.6,5.4,12,12,12h43.1c4.2,0,8.1-2.2,10.3-5.8C1249.5,69.3,1248.1,69.6,1246.6,69.6z"/>
<path class="st1" d="M1445.7,1005.6h43.1c6.6,0,12,5.4,12,12v44.1c0,6.6-5.4,12-12,12h-43.1c-6.6,0-12-5.4-12-12v-44.1
	C1433.7,1010.9,1439.1,1005.6,1445.7,1005.6z"/>
<path class="st2" d="M1495.8,1001.6h-43.1c-3.5,0-6.8,1.5-9.1,4.2c0.7-0.1,1.4-0.2,2.1-0.2h43.1c6.6,0,12,5.4,12,12v44.1
	c0,2.9-1,5.6-2.9,7.8c5.7-1,9.9-6,9.9-11.8v-44.1C1507.8,1006.9,1502.4,1001.6,1495.8,1001.6z"/>
<path class="st5" d="M1450.7,1049c-1.9,7.1-0.7,8.1-8.4,7.7c-0.6,0-1-0.5-1-1c0-0.1,0-0.2,0-0.2l9.3-30.6c0.1-0.4,0.5-0.7,1-0.7h8.1
	c0.5,0,0.9,0.3,1,0.7l9.5,30.6c0.2,0.5-0.1,1.1-0.7,1.3c-0.1,0-0.2,0-0.3,0c-7.8,0.4-6.8-0.4-8.9-7.7c-0.1-0.4-0.5-0.7-1-0.7h-7.8
	C1451.3,1048.2,1450.8,1048.5,1450.7,1049z M1458.8,1041.5c-3.9-13.5-2.7-13.5-6.5,0c-0.1,0.5,0.2,1.1,0.7,1.2c0.1,0,0.2,0,0.3,0
	h4.5c0.6,0,1-0.5,1-1C1458.8,1041.6,1458.8,1041.5,1458.8,1041.5L1458.8,1041.5z"/>
<path class="st5" d="M1479.8,1049.3c2.2,2.8,9.4,1.6,12.4,1.3c0.5-0.1,1.1,0.3,1.1,0.8c0,0.1,0,0.3,0,0.4
	c-2.2,8.8-22.3,5.7-21.5-6.4c1-15.2,23.3-17.8,23.2,1.1c0,0.6-0.4,1-1,1h-13.3c-0.5-0.1-1.1,0.3-1.2,0.8
	C1479.4,1048.8,1479.6,1049.1,1479.8,1049.3z M1488.2,1041.3c-0.3-4.9-8.1-4.8-9-0.1c-0.1,0.5,0.2,1.1,0.8,1.2c0.1,0,0.1,0,0.2,0
	h6.9c0.6,0,1-0.4,1.1-0.9C1488.2,1041.5,1488.2,1041.4,1488.2,1041.3L1488.2,1041.3z"/>
<path class="st1" d="M1355.9,886.2c-1.6,0-3.3,0.4-4.7,1.2c2-1.8,3.9-3.7,5.6-5.8l8.3-9.8c4.9,5.4,10.6,9.9,17.1,13.3
	c-3.1,0-6.1,0.4-9.1,1.2c1.6,8,4.3,15.7,8,23c0.1,0.2,0.2,0.5,0.2,0.7c0,1.3-4.5,3.3-6,3.7c-4.7,1.4-9.5,2-14.3,2
	c-1.2,0-2.6-0.2-3.1-1.2c-0.2-0.5-0.3-1.1-0.3-1.6v-27.1"/>
<path class="st3" d="M1362.8,912c0.6-0.5,1.3-0.9,2.1-1.2c3.9-1.5,8-2.1,12.2-1.9"/>
<path class="st2" d="M1338.7,8h33.3c1.7,0,3,1.3,3,3v17.5c0,10.8-8.7,19.5-19.5,19.5l0,0c-10.8,0-19.5-8.7-19.5-19.5V10.7
	C1336,9.2,1337.2,8,1338.7,8L1338.7,8z"/>
<path class="st2" d="M1283.7,8h33.3c1.7,0,3,1.3,3,3v17.5c0,10.8-8.7,19.5-19.5,19.5l0,0c-10.8,0-19.5-8.7-19.5-19.5V10.7
	C1281,9.2,1282.2,8,1283.7,8L1283.7,8z"/>
<path class="st3" d="M1283.2,11.9c13.9-1.2,27.8-1.7,41.8-1.4"/>
<path class="st3" d="M1320.7,10.9c-0.3,0-0.3-0.4-0.1-0.6c0.2-0.1,0.5-0.2,0.7-0.2h7.1c2-0.1,3.9,0.1,5.9,0.4c0.3,0,0.6,0.2,0.8,0.4
	c0.1,0.2,0.1,0.5,0.1,0.7l-0.6,4.7l1.3,0.2c-5.2,0.2-10.4,0-15.6-0.5"/>
<path class="st5" d="M1299.4,11.8c-1.1,0-2-0.9-2-2c0-0.9,0.5-1.6,1.4-1.9l31.1-10.6c7.8-2.7,15.9-5.4,24.4-5.7
	c1.1-0.1,2.1,0.1,3.1,0.7c0.7,0.5,1.2,1.2,1.6,2l2.4,5c0.6,0.9,0.3,2.2-0.6,2.8c-0.9,0.6-2.2,0.3-2.8-0.6c-0.1-0.1-0.2-0.3-0.2-0.5
	l-2.4-4.9c-0.1-0.1-0.2-0.4-0.3-0.5c-0.2,0-0.4,0-0.6,0c-8,0.3-15.8,3-23.3,5.5l-31.1,10.6C1299.9,11.7,1299.6,11.8,1299.4,11.8z"/>
<path class="st20" d="M1288.8,15.7c-1.2,1.7-2.1,3.5-2.7,5.4"/>
<path class="st20" d="M1298.6,15.4c-4.8,4.9-8.9,10.5-11.8,16.7"/>
<path class="st20" d="M1309.1,16.4l-18.1,22.2"/>
<path class="st20" d="M1313.2,27c-3.4,4-6.6,8.3-9.6,12.6"/>
<path class="st20" d="M1346.5,16.3l-4.7,6.2"/>
<path class="st20" d="M1361,15.6l-16,19.6"/>
<path class="st20" d="M1371.1,18.1l-19.5,23.8"/>
<path class="st20" d="M1366.7,35.6l-5,6.5"/>
<rect x="1318" y="10" class="st2" width="18" height="7"/>
<path class="st5" d="M1428.6,0.6l-1-1.8c-0.7-1.2-1.4-2.4-2.1-3.6c-0.7-1.3-1.9-2.1-3.4-2.3c-1.1,0-2.2,0.2-3.2,0.7l-0.5,0.2
	c-3.8,1.3-7.8,2.6-11.7,3.7s-7.8,2.1-11.7,3c-1.5,0.4-3.1,0.7-4.6,1c-2.1,0.4-4.3,0.9-6.4,1.4c-4.9,1.2-8.4,2.9-11.2,5.3
	c-1.2,1-1.4,2.8-0.4,4.1c0,0,0.1,0.1,0.1,0.1c1.2,1.3,3.1,1.4,4.4,0.3c3.6-3.1,8.8-4.1,13.9-5.1c1.2-0.2,2.4-0.5,3.6-0.7
	c7.5-1.7,15-3.7,22.3-6.1l3-1l0.9-0.3l0.2,0.4c0.2,0.3,0.3,0.7,0.5,1l1.6,2.8c0.5,1,1.6,1.5,2.7,1.5l0,0c1.1,0,2.2-0.6,2.7-1.5
	C1429.1,2.7,1429.1,1.5,1428.6,0.6z M1424.3,3L1424.3,3z"/>
<path class="st1" d="M1384.5,47.3c11.6,0.3,23.2,0.5,34.9,0.3l-1.8,1.5c1.7,0.1,3.4-0.3,4.9-1c1.4-0.9,2.3-2.8,1.5-4.3
	c-0.7-1-2-1.6-3.2-1.4c-1.2,0.2-2.4,0.6-3.5,1.3c2.2-4.8,1.8-10.5-1-14.9c-0.6-1-1.4-1.8-2.4-2.3c-1.8-0.9-4.1-0.1-5.6,1.3
	c-1.4,1.5-2.5,3.2-3.2,5.2c-0.2-1.8-0.7-3.5-1.5-5c-0.9-1.6-2.6-2.5-4.4-2.3c-0.9,0.2-1.6,0.6-2.3,1.2c-4.5,3.8-4.8,10.6-3.7,16.3
	c0.4-1.9-1.4-3.7-3.3-3.8c-1.9,0-3.7,1-4.8,2.6c-1,1.6-1.7,3.4-2.1,5.3L1384.5,47.3z"/>
<path class="st1" d="M1665.5,408.6c11.6,0.3,23.2,0.5,34.9,0.3l-1.8,1.5c1.7,0.1,3.4-0.3,4.9-1c1.4-0.9,2.3-2.8,1.5-4.3
	c-0.7-1-2-1.6-3.2-1.4c-1.2,0.2-2.4,0.6-3.5,1.3c2.2-4.8,1.8-10.5-1-14.9c-0.6-1-1.4-1.8-2.4-2.3c-1.8-0.9-4.1-0.1-5.6,1.3
	c-1.4,1.5-2.5,3.2-3.2,5.2c-0.2-1.8-0.7-3.5-1.5-5c-0.9-1.6-2.6-2.5-4.4-2.3c-0.9,0.2-1.6,0.6-2.3,1.2c-4.5,3.8-4.8,10.6-3.7,16.3
	c0.4-1.9-1.4-3.7-3.3-3.8c-1.9,0-3.7,1-4.8,2.6c-1,1.6-1.7,3.4-2.1,5.3L1665.5,408.6z"/>
<path class="st2" d="M1570.3,327.1l14.1-0.2c0,3.3,0.4,6.7,1.3,9.9c2.3,11.1,3.7,22.4,4.1,33.8c0,0.5,0,1-0.2,1.5
	c-0.3,0.5-0.8,0.9-1.3,1.1c-2.1,0.9-4.4,1.5-6.7,1.7c-4.2,0.5-8.5,0.9-12.7,1.1c-0.6,0.1-1.3,0-1.8-0.3c-0.4-0.3-0.7-0.8-0.9-1.3
	c-1.6-4-2.6-8.3-3.1-12.6c-1.6-10.9-2.6-22.2-0.2-32.9c0.1-0.4,0.2-0.9,0.5-1.2c0.4-0.3,0.8-0.5,1.3-0.5c1.8-0.3,3.6-0.4,5.4-0.3
	L1570.3,327.1z"/>
<path class="st3" d="M1591.4,371.7c3.5-1.2,7.4-0.5,10.9,0.8s6.8,3.1,10.4,3.9c2.5,0.5,5,0.8,7.5,0.8c14.1,0.6,41.2-5,41.2-5
	c6.5-2.9,3.6-11.2,2.8-14.6c8.8-10.6,0.6-15.9,0.6-15.9s5.2-14.4-4.8-19.7c15.7-24.8-31.3-11.9-43.6-11.5
	c-3.5-9.7-1.2-23.9-8.2-33.8c-22.2-10.6-2.8,48.6-23.9,52.4"/>
<path class="st9" d="M1579.1,360.8c-2.1-0.7-4.4-0.2-6,1.2c-1.6,1.6-1.9,4-0.7,5.9c1.3,1.7,3.7,2.1,5.4,0.8c0.1-0.1,0.1-0.1,0.2-0.2
	c0.8-0.9,1.2-2,1.3-3.1c0.2-1,0.2-2.1-0.2-3.1c-0.4-1-1.5-1.6-2.6-1.5"/>
<path class="st21" d="M1212.4,45.1l-2.8,8.4c-0.2,0.8-0.9,1.3-1.7,1.3h-3.3c15.1-46.4,13.7-46.2,28.8,0c-6,1.9-6.5-5.3-7.9-9.6
	c-0.2-0.7-0.9-1.2-1.7-1.2h-9.8C1213.3,43.9,1212.6,44.4,1212.4,45.1z M1223.5,38.9c-6.1-18-3.2-17.5-9.2-0.2
	c-0.3,0.7,0.1,1.5,0.8,1.7c0.1,0.1,0.3,0.1,0.5,0.1h6.8c0.7,0,1.2-0.5,1.2-1.2C1223.6,39.1,1223.6,39,1223.5,38.9z"/>
<path class="st21" d="M1243.2,23.1c-0.7,4.4-5.7,3.7-5.6,0C1237.4,19.4,1243.3,19.4,1243.2,23.1z M1238.3,54.6
	c-0.1-0.2-0.1-0.3-0.1-0.5c0-5,0.3-9.5,0.3-14.6c0-2.9-0.3-6.4-0.4-9.3c0-0.1,0-0.1,0-0.2c0.1,0,0.1,0,0.2,0c0.6,0,4.3-0.3,4.3,0.3
	c0,7.7,0,15.5,0,23.2c0,0.7-0.6,1.3-1.3,1.3c0,0,0,0,0,0c-1.1,0-2.4-0.1-2.6-0.1c-0.1,0-0.2,0-0.3-0.1L1238.3,54.6z"/>
<ellipse transform="matrix(0.4501 -0.893 0.893 0.4501 235.4428 1820.9497)" class="st22" cx="1596.2" cy="719.3" rx="10.5" ry="5.5"/>
<circle class="st23" cx="1633.5" cy="719.5" r="2.5"/>
<circle class="st3" cx="1515" cy="560" r="2"/>
<circle class="st3" cx="1541" cy="562" r="2"/>
<path class="st24" d="M1569.7,543c14.7,1.3,30.6,3.6,43.3,10.9c0.6,29.2-26.8,25.2-49.2,19.8C1557,564.7,1558.5,546.7,1569.7,543z"
	/>
<path class="st2" d="M1575.4,611.9c-10,6.3-21.5,9.9-33.3,10.4c-19.1,0.7-37.7-3.1-43.9-6.2s-8.2-5.1-8.2-5.1c0.9,5,4,11.5,6.3,16
	c3.8,7.4,6.9,12,14.7,15c4.8,1.9,15.8,3.5,21,3c10.5-1.1,17.1-2.3,26-7.9S1574,622.4,1575.4,611.9"/>
<path class="st1" d="M1512.9,740.3c-0.4,0.2-30.1-15-32.8-45.2c-1.8-19.6,4.3-43.6,13.7-60.7c0.8-1.8,2.1-3.3,3.5-4.6
	c1.5-1.3,3.6-1.6,5.5-0.9c1.9,1.1,3,3.2,2.7,5.4c-0.3,2.1-1.2,4.1-2.5,5.8c-5.7,8-9.7,15.1-11.8,24.9c-2,9.2-2.1,18.8-0.3,28
	c2.8,14.3,11.2,33.8,25.7,39.3C1516.6,732.3,1518.8,737.6,1512.9,740.3z"/>
<path class="st1" d="M1598.5,718.2c-23.2-3.7-41.6-21.7-46-44.8c-2.2-11.7,0.4-23.7,3.2-35c0.4-1.8,0.8-4-0.5-5.3
	c-1-1-2.6-1-3.7-0.2c-0.5,0.4-0.8,0.9-1.1,1.4c-8.2,13.6-9.7,30.4-5.9,45.8c6.5,26,36.3,39.8,40.5,42c3.7,1.9,7.8,2.9,12,2.9l0,0
	C1598.8,723.2,1599.4,720.5,1598.5,718.2z"/>
<path class="st5" d="M1255,255c-22.6,0-41-18.4-41-41c0-9.4,3.2-18.5,9.2-25.8c-17.6,14.2-20.3,40.1-6.1,57.7
	c14.2,17.6,40.1,20.3,57.7,6.1c2.2-1.8,4.3-3.9,6.1-6.1C1273.5,251.8,1264.4,255,1255,255z"/>
<path class="st5" d="M1443.6,910.6l7.1-0.4l-0.6,0.5l1.2-10.7c0-0.3,0.3-0.6,0.6-0.5c0,0,0,0,0,0c0.1,0,0.2,0,0.3,0.1l0,0l6.4,4.2
	l-2,0.8l3.2-21.5c0.1-0.9,1-1.5,1.9-1.4s1.5,1,1.4,1.9l0,0c0,0,0,0,0,0.1l-4,21.3v0.1c-0.1,0.7-0.7,1.1-1.4,1c0,0,0,0,0,0
	c-0.2,0-0.4-0.2-0.6-0.3l-5.5-5.3l1-0.4l-1.2,10.7l0,0c0,0.3-0.3,0.5-0.6,0.5l-7.1-0.4c-0.1,0-0.2-0.1-0.2-0.2c0,0,0,0,0,0
	C1443.5,910.7,1443.6,910.6,1443.6,910.6z"/>
<path class="st5" d="M1436.4,904.6l8.2-3.9l-0.4,0.5l-0.3-10.7l0,0c0-0.5,0.3-0.9,0.8-0.9c0,0,0,0,0,0c0.1,0,0.2,0,0.3,0l7,2.7
	l-0.8,0.5l0.8-19.2c0.1-1.2,1.2-2.1,2.4-1.9c1.1,0.1,1.9,1,2,2.1c0,0.1,0,0.2,0,0.3l-3.9,18.8l0,0c-0.1,0.3-0.4,0.5-0.7,0.5l0,0
	l-7.2-2.1l1.2-0.8l-0.3,10.7l0,0c0,0.2-0.2,0.4-0.4,0.5l-8.4,3.3c-0.1,0-0.3,0-0.3-0.2C1436.3,904.8,1436.3,904.7,1436.4,904.6z"/>
<path class="st5" d="M1480.3,917.1l-7.2-3.3c-0.3-0.1-0.4-0.5-0.3-0.8c0-0.1,0.1-0.2,0.2-0.2l0,0l5.9-4.8l0.1,1l-5.9-3.6
	c-0.3-0.2-0.4-0.5-0.2-0.8l0,0l4.1-8.7l-0.1,1.1l-3.7-10.6c-0.3-0.8,0.1-1.6,0.9-1.9c0.8-0.3,1.6,0.1,1.9,0.9l0,0l3.4,10.8v0.1
	c0.1,0.3,0.1,0.7-0.1,1l-5.4,8l-0.2-0.8l5.9,3.6c0.3,0.2,0.4,0.5,0.2,0.8c0,0.1-0.1,0.1-0.1,0.2l-5.9,4.8l-0.1-1l7,3.8
	c0.2,0.1,0.2,0.3,0.1,0.5C1480.5,917.1,1480.4,917.1,1480.3,917.1z"/>
<path class="st5" d="M1489.8,912.2l-3.8-3.3c-0.2-0.2-0.3-0.6-0.1-0.8c0-0.1,0.1-0.1,0.2-0.1l0,0l4.8-2.4l-0.2,0.9l-4.8-5.9
	c-0.2-0.2-0.2-0.5-0.1-0.7l0,0l4.4-7.4l-0.1,1l-7.8-15.2c-0.4-0.9-0.1-1.9,0.8-2.4s1.9-0.1,2.4,0.8l0.1,0.1l6.5,15.7v0.1
	c0.1,0.3,0.1,0.7-0.1,0.9l-5.1,6.9v-0.7l4.8,5.9c0.2,0.3,0.2,0.6-0.1,0.8c0,0-0.1,0-0.1,0.1l-4.8,2.4l0.2-1l3.3,3.8
	c0.1,0.1,0.1,0.3,0,0.4C1490,912.2,1489.9,912.2,1489.8,912.2z"/>
<path class="st5" d="M1457.9,917.9l4.4-4c0.2-0.2,0.5-0.2,0.7,0l0.1,0.1l4,3.2l-1.5-0.1l3.9-1.9l0.1-0.1c0.3-0.1,0.6,0,0.7,0.3
	l3.2,6.2c0,0.1,0,0.1-0.1,0.2c0,0-0.1,0-0.1,0l-4-5.7l0.8,0.2l-3.3,2.8c-0.4,0.4-1,0.3-1.4-0.1c0,0,0,0,0,0l0,0l0,0l-3.2-4l0.8,0.1
	l-5.1,3.1l0,0L1457.9,917.9z"/>
<path class="st17" d="M1359.8,287.6c-3.4,12.6-1.2,14.4-15.7,13.3l15.8-51.6h15.3l16.1,51.6c-14.7,1-12.8-0.2-16.6-13.3H1359.8z
	 M1372.9,278.8c-3.7-7.8-5.1-31.4-8.3-11C1360.8,280.4,1359.9,279,1372.9,278.8z"/>
<path class="st17" d="M1397.3,275.3c0-4.7-0.2-8.6-0.3-12c4.7,0.5,11.8-2.5,10.7,5.2c1.9-2.1,5.2-6.2,11.8-6.1
	c17.4-1.7,13,27,13.4,38.3h-11.7c4.1-39.7-16.4-38.8-12.3,0h-11.6V275.3z"/>
<path class="st17" d="M1473.4,291.8c-0.1,3,0.1,6,0.6,9c-3.3-0.7-12.2,2.3-11.2-3.8c-25,18.3-33.5-24.8-1.1-21.7
	c0.9-6.7-13.7-5.1-17.2-2.1c-4.7-9.5,1.4-10,12.4-10.8C1476.4,262.3,1473.3,279.4,1473.4,291.8z M1462.1,283.1
	c-9.4-1.7-15.8,8.6-6.3,10.3C1461.7,293.5,1462.6,287.6,1462.1,283.1z"/>
<path class="st25" d="M1361.8,284.6c-3.4,12.6-1.2,14.4-15.7,13.3l15.8-51.6h15.3l16.1,51.6c-14.7,1-12.8-0.2-16.6-13.3H1361.8z
	 M1374.9,275.8c-3.7-7.8-5.1-31.4-8.3-11C1362.8,277.4,1361.9,276,1374.9,275.8z"/>
<path class="st25" d="M1399.3,272.3c0-4.7-0.2-8.6-0.3-12c4.7,0.5,11.8-2.5,10.7,5.2c1.9-2.1,5.2-6.2,11.8-6.1
	c17.4-1.7,13,27,13.4,38.3h-11.7c4.1-39.7-16.4-38.8-12.3,0h-11.6V272.3z"/>
<path class="st25" d="M1475.4,288.8c-0.1,3,0.1,6,0.6,9c-3.3-0.7-12.2,2.3-11.2-3.8c-25,18.3-33.5-24.8-1.1-21.7
	c0.9-6.7-13.7-5.1-17.2-2.1c-4.7-9.5,1.4-10,12.4-10.8C1478.4,259.3,1475.3,276.4,1475.4,288.8z M1464.1,280.1
	c-9.4-1.7-15.8,8.6-6.3,10.3C1463.7,290.5,1464.6,284.6,1464.1,280.1z"/>
<path class="st3" d="M1660,322c0,0-1-1-8,0"/>
<path class="st3" d="M1653,342h11"/>
<line class="st3" x1="1654" y1="358" x2="1664" y2="358"/>
<polygon class="st0" points="1590.2,238 1578.9,252.6 1584.5,270.3 1567.1,264 1552,274.8 1552.6,256.3 1537.7,245.3 1555.5,240.1 
	1561.3,222.6 1571.7,237.9 "/>
<polygon class="st0" points="1648.5,243 1630.9,248.9 1625.7,266.7 1614.7,251.8 1596.2,252.4 1607,237.3 1600.7,219.9 
	1618.4,225.5 1633,214.1 1633.1,232.6 "/>
<polygon class="st0" points="1691.3,285 1673.5,280.1 1659.3,292 1658.5,273.5 1642.7,263.8 1660.1,257.2 1664.5,239.3 
	1676.1,253.7 1694.5,252.4 1684.4,267.9 "/>
<polygon class="st0" points="1711.7,335.2 1699.6,321.2 1681.2,323.3 1690.8,307.4 1683.1,290.6 1701.2,294.8 1714.8,282.3 
	1716.4,300.7 1732.5,309.9 1715.5,317.1 "/>
<path class="st3" d="M1670,664c0,0,0-12-20.6-16.3s-23.9,15.9-23.9,15.9c0.1-2.3-0.5-4.6-1.7-6.6c-1-1.5-2.7-2.3-4.5-2.3
	c-1.8-0.1-3.7,0-5.5,0c-1.6-0.1-3.2-0.3-4.7-0.7c-1.2-0.2-3-0.4-3.8,0.8c0,0,3.7,3.1,6.7,6.1s5,5,4,9s-2,22,9,26s24-8,24-8"/>
<path class="st3" d="M1662.8,653c0,0,7.5-20.3,29.9-20.2"/>
<path class="st3" d="M1682.1,634.5c0,0-13.1-34.5,20.9-39.5s32,22,32,22"/>
<path class="st3" d="M1732.7,606c0,0,19.3-8,25.3,7s5.6,31.1-3.7,34.1"/>
<path class="st3" d="M1647,690c0,0,0,26,11,37c6,6,22,8,28,2c4-4.2,7.3-8.9,10-14"/>
<path class="st3" d="M1692.6,720.8c0,0,1.4,4.2,10.4,1.2s8-9,8-9"/>
<path class="st3" d="M1709.9,718c0,0,23.1,14,33.1,0s0-30,0-30"/>
<path class="st3" d="M1759.7,642.5c0,0,13.3,14.5,7.3,28.5s-11,16-11,16"/>
<path class="st3" d="M1760,683.3c0,0,6.8,23.6-13.1,15.1"/>
<path class="st3" d="M1733,670c0,0,3-3,3-11s-9-8-9-8"/>
<path class="st3" d="M1714,684c0,0,10-3,10,6"/>
<path class="st25" d="M1794.5,652.5c12.2,0.8,5.3-26.8,7-34.2h8.9c-0.9,8,2.8,32.6-4,37.7c-2.6,2.4-6.8,3.5-11,3.5L1794.5,652.5z
	 M1805.8,614.8c-6.1,0.1-6-10.1,0.1-9.8C1812.1,604.8,1812.1,615.1,1805.8,614.8L1805.8,614.8z"/>
<path class="st25" d="M1817.3,639.2c2,1.4,11.2,4.1,11.5-0.2c-1.6-4.2-14.1-5.6-12.3-11.8c-0.8-8.7,13.2-11.5,19.6-7.7l-1.5,6.1
	c-1.7-1-9.4-3.3-9.6,0.7c1.8,3.8,13.5,4.9,13.1,11.8c-0.6,9.2-15.7,11.7-22.3,7.5L1817.3,639.2z"/>
<path class="st26" d="M1782.1,681.6c-1.9,9.7-1.8,10.8,8.4,11.2l1.3-10c11.7-4.3,1.1,23,2.5,26.7c-9,1-4.5-6.3-4.5-11.5
	c-10.7-2.6-10.2-0.1-11,9.6c-11.7,4.3-1.1-23-2.5-26.7L1782.1,681.6z"/>
<path class="st26" d="M1809.3,691.7c-4.6-0.3-8.3,1-6.8-5.3c3,1.7,24.8-3.1,19.8,5.9c-12-4.9-6.3,15.2-8.1,20.8
	C1803.4,717.6,1810.8,695.6,1809.3,691.7z"/>
<path class="st26" d="M1851.7,694.1c-10.2-27.5,6.7,34.1-13.2,4.3c-10.8-17.5-1.3,2.7,0.5,11c-8.3,9.1-9.8-20.9-12.5-23.2
	c9.7-7,13,6.7,18.2,12.5c0-8.1-5.6-20.5,6-21.4l10.3,24C1853.9,705.9,1854.1,698.6,1851.7,694.1z"/>
<path class="st26" d="M1853.3,671c5.6-10.3,13.6,11.5,17.2,13.7l8.4-6.1c8.3,4.8-8.3,10.5-10.2,13.6L1853.3,671z"/>
<path class="st27" d="M1693.1,509.8c2,0,4.1-0.5,5.9-1.5c-2.6,2.2-4.9,4.6-7,7.3l-10.3,12.2c-6-6.7-13.2-12.4-21.3-16.6
	c3.8,0,7.6-0.5,11.3-1.5c-2-10-5.4-19.6-10-28.6c-0.2-0.3-0.3-0.6-0.3-0.9c0-1.6,5.6-4.1,7.5-4.6c5.8-1.7,11.8-2.6,17.9-2.5
	c1.5,0,3.2,0.2,3.9,1.5c0.3,0.6,0.4,1.3,0.3,2v33.8"/>
<path class="st28" d="M1684.5,477.6c-0.7,0.7-1.6,1.2-2.6,1.5c-4.8,1.8-10,2.6-15.1,2.4"/>
<path class="st2" d="M1583,618c0,0,6.4,5.7,10.2,3.3"/>
<path class="st2" d="M1584,612c0,0,6.4,5.7,10.2,3.3"/>
<path class="st2" d="M1584,606c0,0,6.4,5.7,10.2,3.3"/>
<path class="st2" d="M1584,600c0,0,6.4,5.7,10.2,3.3"/>
<path class="st2" d="M1584,595c0,0,6.4,5.7,10.2,3.3"/>
<path class="st0" d="M1060.9,997.7c-0.3-0.8-0.5-2-1.6-1.9c-0.6,0.1-1.1,0.3-1.7,0.5l-1.8,0.5c-0.3,0.1-0.4,0.4-0.3,0.6
	c0.1,0.1,0.2,0.2,0.3,0.3c0.5,2.4,0.6,4.8,0.3,7.2c-0.1,1.2-0.5,2.4-1,3.4c-0.5,0.9-1.2,1.6-1.9,2.2c-0.4-0.1-0.8,0.3-0.5,0.7
	s0.6,0.8,0.9,1.2c0.3,0.4,0.6,0.8,0.9,1.1c0.7,0.5,1.3-0.2,1.8-0.6c1.4-1.2,2.6-2.7,3.5-4.3C1061.6,1005.4,1062,1001.4,1060.9,997.7
	z"/>
<path class="st0" d="M1041,994.9c-0.6-0.5-1.4-0.8-2.2-1c-0.6-0.1-1.2,0.1-1.5,0.6c-1,0.7-1.7,1.6-2.2,2.7c-0.9,2-1.1,4.4-0.5,6.5
	c0.2,0.7,0.5,1.4,0.9,1.9c0.5,0.6,1.2,0.5,1.9,0.3c0.9-0.2,1.9-0.5,2.8-0.8c0.2-0.1,0.3-0.3,0.3-0.5c0.1-0.1,0.1-0.3,0-0.4
	c-0.7-1.2-1-2.7-0.8-4.1c0-1.5,0.4-2.9,1.3-4.1C1041.2,995.8,1041.2,995.3,1041,994.9L1041,994.9z"/>
<path class="st0" d="M1078.8,1004.4c-2.1-0.7-4.2-1.3-6.3-1.6c-0.4-0.1-1-0.2-1.3,0.2c-0.2,0.4-0.3,0.9-0.3,1.4c-0.1,1-0.1,2-0.1,3
	c0,0.1,0,0.2,0,0.2c0,0.1,0,0.1,0,0.2c0,0.3,0.2,0.5,0.5,0.5c0.1,0,0.2,0,0.3-0.1c0.9,0.4,1.8,0.6,2.8,0.7c0.6,0.1,1.1,0.1,1.7,0.1
	h0.2c0.5,0.2,1,0.3,1.5,0.3c0.3,0,0.5-0.2,0.5-0.5c0,0,0,0,0-0.1c0.1-0.2,0.1-0.3,0.1-0.5c0.1-0.3,0.1-0.7,0.2-1l0.4-2
	c0-0.1,0-0.1,0-0.2C1079.2,1004.8,1079.1,1004.5,1078.8,1004.4C1078.8,1004.4,1078.8,1004.4,1078.8,1004.4z"/>
<path class="st0" d="M1104.2,987.8c-0.2-0.8-0.4-1.5-0.5-2.3l-1.2-5c0-0.1,0-0.1-0.1-0.2c0-0.1,0-0.2-0.1-0.3
	c-0.1-0.2-0.4-0.3-0.7-0.2l-0.6,0.3l-0.1,0h-0.1c-0.1,0-0.2,0.1-0.3,0.1c-0.3,0.1-0.6,0.2-1,0.3c-0.1,0-0.2,0-0.3,0
	c-0.1,0-0.3,0.1-0.4,0.1c0,0-0.1,0-0.1,0.1c-0.1,0-0.1,0.1-0.2,0.2c-0.1,0.1-0.1,0.2-0.2,0.2c0,0,0,0.1,0,0.1c0,0.1,0,0.1,0,0.2
	c0,0.1,0,0.2,0,0.2c0,0.1,0,0.1,0.1,0.2c0,0.1,0.1,0.1,0.1,0.2l0.1,0.1c0.1,0.5,0.2,1,0.3,1.5c0.2,0.7,0.4,1.4,0.5,2.2
	c0.1,0.7,0.2,1.4,0.3,2.2c0,0.5-0.1,1.3,0.5,1.6c0.6,0.2,1.3,0.2,1.9,0c0.6,0,1.2-0.1,1.7-0.4
	C1104.4,988.9,1104.3,988.4,1104.2,987.8z"/>
<path class="st0" d="M1138.6,1007.5c-0.1-0.3-0.2-0.6-0.4-1s-0.3-0.6-0.7-0.6c-0.4,0-0.7,0.1-1.1,0.2l-1.1,0.2
	c-0.8,0.2-1.6,0.3-2.3,0.5c-0.2,0-0.4,0.3-0.4,0.5c0,0,0,0.1,0,0.1c0,0-0.1,0-0.1,0.1c-0.1,0.3-0.1,0.6,0,0.9
	c0.1,0.3,0.2,0.6,0.4,0.9c0.1,0.2,0.4,0.4,0.6,0.5c0.3,0.1,0.7,0.1,1,0c0.6-0.1,1.2-0.3,1.8-0.4c0.6,0,1.2-0.1,1.8-0.2
	C1139.1,1008.9,1138.8,1008.1,1138.6,1007.5z"/>
<path class="st0" d="M1131.1,1050.5c-0.1-0.2-0.3-0.4-0.5-0.5l-0.2-0.1c-0.1,0-0.1-0.1,0,0c-0.3-0.1-0.5-0.3-0.7-0.5
	c-1.2-0.4-2.2-1.1-3-2c-0.3-0.4-0.7-1.1-1.4-0.9c-0.4,0.1-0.6,0.5-0.8,0.8l-0.7,1c-0.1,0.1-0.1,0.2-0.1,0.3
	c-0.2,0.2-0.3,0.4-0.3,0.7c-0.1,0.8,0.7,1.3,1.4,1.7c0.3,0.3,0.5,0.5,0.8,0.8l1.6,1.3c0.5,0.4,1,1,1.6,0.5s0.9-0.9,1.3-1.4
	S1131.2,1051.1,1131.1,1050.5z"/>
<path class="st0" d="M1089.3,1044.2c-0.4-0.3-0.8-0.5-1.2-0.8c-0.1-0.1-0.3-0.3-0.4-0.4c-0.2-0.6-0.6-1.1-1.2-1.3
	c-0.9-0.3-1.6,0.6-1.9,1.3c-0.5,1-0.9,2.1-1.4,3.1c-0.2,0.4-0.4,0.8-0.6,1.2c-0.6,0.7-1,1.5-1.3,2.3c-0.1,0.2,0,0.5,0.3,0.6
	c0,0,0,0,0,0c0.2,0.6,0.5,1.1,1.1,1.3c0.4,0.3,0.9,0.4,1.4,0.3c0.5-0.2,0.9-0.7,1.2-1.1c0.9-1,1.7-1.9,2.6-2.9l0.9-1h0.1
	c0.2-0.2,0.4-0.4,0.6-0.6c0.2-0.2,0.4-0.4,0.6-0.7C1090.4,1045,1089.8,1044.5,1089.3,1044.2z"/>
<path class="st0" d="M1145.3,907.6c-1.2,0-2.4-0.1-3.5,0c-0.4-1.7-0.7-3.3-1.1-5c-0.2-0.9-0.4-1.8-0.6-2.7c-0.1-0.8-0.3-1.5-0.8-2.1
	c-0.5-0.4-1.1-0.5-1.8-0.5c-1-0.1-1.9-0.1-2.9-0.1c-1.8,0-3.6,0-5.4,0.2c-5.3,0.4-10.6,1.7-15.5,3.6c-0.8,0.3-1.6,0.7-2.4,1
	c-0.8,0.3-1.5,0.7-2.2,1.1c-0.8,0.6-0.6,1.6-0.5,2.4s0.2,2,0.4,3c0.3,1.7,0.6,3.3,1,5c0,0.2,0.1,0.4,0.1,0.7
	c-0.6,0.3-1.3,0.5-1.9,0.8c-0.7,0.2-1.3,0.5-1.9,0.8c-0.1,0.1-0.2,0.1-0.3,0.2c-0.5,0.2-0.9,0.5-1.1,1l0,0c0,0,0,0.1,0,0.1
	c-0.1,0.1-0.1,0.3,0,0.4c0,0.4,0.2,0.7,0.6,0.8c0.1,0,0.3,0,0.4,0l0,0l0.1,0.1c1.3,0.2,2.6,0.1,3.8-0.3c1.3-0.4,2.6-0.9,3.9-1.4
	c2.5-0.9,5-1.8,7.5-2.6l8-2c3.9-1,7.8-2,11.7-2.6c0.6,0,1.2,0,1.8,0c1.5,0.1,3,0.1,4.5-0.1c0.2-0.1,0.4-0.3,0.4-0.5
	C1147.5,907.6,1146.2,907.7,1145.3,907.6z M1110.8,905.8c0.1-0.3,0.2-0.6,0.3-0.9c0,0,0,0,0-0.1c0.1,0,0.2,0,0.3,0v0.1
	c0.1,0.3,0.1,0.7,0.1,1c0,0.3,0,0.7,0,1c-0.2,0.4-0.3,0.9-0.3,1.3v0.1c0,0-0.1,0.1-0.1,0.1c0,0-0.1,0-0.1,0
	c-0.1-0.4-0.2-0.8-0.3-1.2C1110.7,906.8,1110.7,906.3,1110.8,905.8L1110.8,905.8z"/>
<path class="st0" d="M1209.7,908.1c-1,0.1-1.9,0.1-2.9,0.1c-0.1-1.5-0.7-2.9-1.8-4c-1.2-1.7-3.1-2.7-5.2-2.8c-2,0-3.9,0.5-5.6,1.6
	c-0.7,0.3-1.2,0.9-1.4,1.7c-0.1,0.7,0.3,1.4,1,1.6c0.1,0,0.2,0,0.2,0c4.9,2.4,10.3,3.4,15.7,2.9C1210.3,909,1210.3,908,1209.7,908.1
	z"/>
<path class="st0" d="M1205.2,915.1c-1,0.3-2,0.8-3.1,1.2c-1,0.3-2.1,0.4-3.2,0.3c-2.2-0.2-4.3-0.9-6.2-2c-0.6-0.3-1.1,0.5-0.5,0.9
	c2,1.1,4.2,1.9,6.5,2.1c1.1,0.1,2.2,0,3.3-0.3c1.2-0.3,2.3-0.9,3.5-1.3C1206.1,915.9,1205.8,914.9,1205.2,915.1z"/>
<path class="st0" d="M1289.5,797c-1.5-1.5-3.1-3-4.8-4.4c-6.7-5.8-14.1-9.7-23-10.7c-1.2-0.1-1.1,0.4-1,1.2c0,0.3,0.2,0.5,0.5,0.6
	c0.1,0.1,0.2,0.2,0.3,0.2c9,2.6,16.9,7.9,22.8,15.1c5.4,6.5,9.9,14,16.4,19.6c1,1,2.2,1.9,3.5,2.5c0.9-4.5-1.8-8.7-4.4-12.2
	C1296.7,804.8,1293.3,800.7,1289.5,797z"/>
<path class="st0" d="M1318.3,861.7l-0.1-0.1l0,0c0,0,0,0,0-0.1c-0.2-0.4-0.5-0.9-0.8-1.3c-4-6.1-9.9-10.7-16.8-13
	c-2.1-0.7-4.2-1.2-6.4-1.4c-0.5-0.1-0.6,0.5-0.3,0.8c0,0.1,0.1,0.1,0.2,0.2c0.8,0.5,1.6,1,2.4,1.4c0.1,0,0.1,0,0.2,0
	c2.6,1.3,5.1,2.6,7.7,4c0.3,0.2,0.7,0.4,1.1,0.6l1.8,1c1.9,1.1,3.7,2.3,5.5,3.6c0.9,0.6,1.7,1.3,2.6,2c0.5,0.4,0.9,0.8,1.3,1.2
	c0.3,0.4,0.5,0.8,0.8,1.3S1318.5,862.3,1318.3,861.7z"/>
<path class="st2" d="M1522.5,726c0,0-4.5,2-6.5,5l3,1l-5,10l-2-1l-2,5.9c0,0,9.2-5.2,11.7-10C1524.9,730.5,1522.6,725.9,1522.5,726z
	"/>
<circle class="st23" cx="1555" cy="748" r="2"/>
<path class="st0" d="M1517.2,489.2c-8-0.5-15.6,3.2-21.3,8.7c-1.6,1.4-2.8,3.1-3.5,5c-0.2,0.6,0.8,0.9,1,0.3c0.6-1.7,1.7-3.1,3-4.3
	c1.3-1.3,2.7-2.5,4.1-3.5c3-2.2,6.4-3.8,10.1-4.6c2.2-0.5,4.4-0.6,6.6-0.5C1517.9,490.2,1517.9,489.2,1517.2,489.2z"/>
<path class="st0" d="M1524.5,495.8c-8.9,0.2-18.2,2.6-24.4,9.5c-1.5,1.7-2.8,3.6-3.7,5.7c-0.3,0.6,0.6,1.1,0.9,0.5
	c3.4-7.9,11.3-12.4,19.4-13.9c2.6-0.5,5.2-0.7,7.8-0.8c0.3,0,0.5-0.2,0.5-0.5C1525,496,1524.8,495.8,1524.5,495.8z"/>
<path class="st0" d="M1527.9,505.8c-4.5-0.4-9,0.2-13.2,2c-4.1,1.8-7.4,4.7-10.8,7.5c-0.5,0.4,0.2,1.1,0.7,0.7
	c3.2-2.8,6.4-5.6,10.3-7.3c4.1-1.7,8.5-2.3,12.9-1.9C1528.5,506.9,1528.5,505.9,1527.9,505.8z"/>
<path class="st0" d="M1532.7,516.1c-4.8-0.2-9.6,0.4-14.1,2c-0.6,0.2-0.3,1.2,0.3,1c4.4-1.5,9.1-2.2,13.8-2
	C1533.3,517.2,1533.3,516.2,1532.7,516.1z"/>
<path class="st5" d="M1668.1,576.9c-25.2,11.7-37.7-30.6-7.4-31.3c7.8-0.3,7.9,2.1,5.9,8.5c-13.3-7.1-20.3,16.2-5.3,16.6
	C1668.4,569.1,1667.2,571.1,1668.1,576.9z"/>
<path class="st5" d="M1673.4,569.2c4.1,4.4,20.8,1.3,8-3.9c-21.2-7.5-0.8-26.2,12.6-17.9c-0.7,13.1-8.3-0.5-12.2,7.5
	C1721,575.1,1663.9,588.8,1673.4,569.2z"/>
<path class="st5" d="M1701.4,569.2c4.1,4.4,20.7,1.3,8-3.9c-21.2-7.5-0.8-26.2,12.6-17.9c-0.7,13.1-8.3-0.5-12.2,7.5
	C1748.9,575.1,1691.8,588.8,1701.4,569.2z"/>
<path class="st0" d="M1605.6,173.7c-13.7,4.6-27.1,11.3-41.3,14.3c4.2-3.4,8.5-6.6,12.6-10.1c8.6-7.6,16.1-17,23.1-26.1
	c3.5-4.5-0.7-10.3-6.1-7.9c-9.1,4.1-17.2,10.7-26.2,15.3c-5.6,2.9-11.3,5.4-17.2,7.6c2.1-2.7,4.5-5.3,6.4-7.3
	c4.3-4.6,9.6-8.3,13.2-13.6c2.5-3.6-1.7-8.5-5.7-7.3l-14.2,4.2c1.7-4.8,2.9-9.8,3.6-14.9c0.6-4.2-3.2-7.9-7.3-5.7
	c-4.1,2.3-8.5,4-13,5.2c3-5.5,5.7-11.2,6.1-17c0.3-4.4-5.6-6.4-8.5-3.5c-6.4,6.3-13.6,11.7-21.4,15.9c9.4-10.6,19.1-21,23.8-34.9
	c1.4-4-3.8-8.1-7.3-5.7c-8.7,6-17.9,11.2-27.6,15.5c1.8-3.4,4.8-6.4,6.8-9.1c3.4-4.8,6-10.3,7.5-16c1.2-4.3-3.6-7.6-7.3-5.7
	c-6.9,3.7-14.2,6.7-21.6,9.2c5.6-6.8,11.8-13.2,17.6-19.8c3.6-4-1.2-11.3-6.1-7.8c-10.4,7.4-20.9,14.8-32.3,20.4
	c7.1-8.3,14.1-16.6,20.8-25.2c3.2-4-0.9-11.4-6-7.8c-8.7,6-17.9,11.4-27.4,16.1c2.3-3.4,4.7-6.8,7.2-10.1
	c5.1-6.8,11.3-13.2,13.6-21.6c1.4-5.2-4.7-7.8-8.4-4.9c-9.4,7.6-18.4,15.8-26.9,24.4c-3.8,3.9,0.7,9.6,4.9,8.4
	c-2.8,4.2-5.6,8.4-8.3,12.7c-2.2,3.4,1.5,9,5.7,7.3c6.9-2.7,13.6-5.8,20.1-9.2c-5.2,6.1-10.5,12.2-15.9,18.3
	c-3.2,3.6-0.2,9.7,4.9,8.4c8.4-2.4,16.5-5.7,24.1-9.9c-1.5,2.1-3,4.2-4.4,6.4c-2.4,3.9,1.6,8.3,5.6,7.3c8.6-1.9,16.9-4.6,25-8
	c-1.6,2.4-3.3,4.7-5.1,7.2c-4.1,5.6-6.3,11.3-5.3,18.2c0.4,2.5,3.8,4.4,6.2,3.5c7.7-2.9,15.2-6.3,22.4-10.3c-8,11.4-19,21-26.9,32.3
	c-2.5,3.6,1.7,8.6,5.6,7.3c9.8-3,19-7.3,27.5-12.9l-2.3,4.6c-1.6,3.1,0.3,7.9,4.3,7.5c6.2-0.5,12.2-1.8,18.1-3.9
	c-1,3.8-2.4,7.6-4,11.2c-0.3,0.7-0.5,1.5-0.5,2.3c-1.1,3.4,1.5,7.9,5.9,6.6l5.2-1.5c-0.8,0.8-1.6,1.6-2.3,2.5
	c-4.1,5-9.7,11.5-10.8,18c-0.6,3.5,2.2,7.4,6.2,6.1c10.1-3.1,19.9-7,29.3-11.8c0.7-0.4,1.4-0.7,2.1-1.1c-1.2,1.1-2.3,2.2-3.5,3.3
	c-7.7,6.8-16.5,12.1-23,20.2c-2.6,3.2-1.1,8.5,3.5,8.5c14.3,0.1,27.5-4.7,40.6-9.7c-2.2,2.2-4.3,4.5-6.2,7
	c-3.8,5.2,4.8,10.2,8.6,5.1c5.5-7.4,13.5-12.4,17.9-20.7C1613.2,177.4,1609.9,172.3,1605.6,173.7z"/>
<path class="st5" d="M1440.9,26.1h12.8v46.1h22.6V83C1423.3,84.7,1445.1,85.4,1440.9,26.1z"/>
<path class="st5" d="M1473.9,56.6c-3,10.5-0.4,11.2-12.5,10.5l12.6-41.1h12.1L1504,83h-10l-8.3-26.4H1473.9z M1484.4,49.6
	c-2.9-6.2-4-25-6.6-8.7C1474.8,51.1,1473.7,49.7,1484.4,49.6L1484.4,49.6z"/>
<path class="st5" d="M1540.9,141.1h12.8v46.1h22.6V198C1523.3,199.7,1545.1,200.4,1540.9,141.1z"/>
<path class="st5" d="M1573.9,171.6c-3,10.5-0.4,11.3-12.5,10.5l12.6-41.1h12.1L1604,198h-10l-8.3-26.4H1573.9z M1584.4,164.6
	c-2.9-6.2-4-24.9-6.6-8.7C1574.8,166.1,1573.7,164.7,1584.4,164.6L1584.4,164.6z"/>
<path class="st5" d="M1494.9,87h10.6v38.1h18.7v8.9h-29.3L1494.9,87z"/>
<path class="st5" d="M1522.2,112.2c-2.4,8.5-0.5,9.4-10.3,8.7l10.4-33.9h10l14.8,47h-8.3l-6.8-21.8H1522.2z M1530.8,106.5
	c-2.4-5.1-3.3-20.6-5.4-7.2C1522.8,107.5,1522.2,106.6,1530.8,106.5z"/>
<path class="st5" d="M1659,458.9c1.9-4.1,2.9-8.6,3-13.1l9.2-2.7l-5.6-19.2c-12.8,6.3-11.6-4.7-22.7-8.9c-5.5,0.1-3.6-7.7-3.8-11
	h-20c2.4,13.9-7.3,9.8-14.3,18.7l-8.7-4l-8.4,18.1c14.6,3.7,4.9,14.5,13.2,25.3l-6.3,7.2l15.1,13.1c7.7-13,15.3-0.6,27.9-5.6l5.2,8
	l16.8-10.8C1654.1,466.8,1654,466.5,1659,458.9z"/>
<circle class="st29" cx="1629" cy="445" r="25"/>
<circle class="st29" cx="1629" cy="445" r="14"/>
<circle class="st30" cx="1634" cy="450.6" r="14"/>
<path class="st0" d="M1021.5,19.9c-1.5-4.3-3.9-8.2-7-11.4l4.6-8.3l-17.5-9.7c-4.7,13.4-11.6,4.7-22.4,9.6c-3.9,3.9-7.9-3-10.5-5.2
	L954.6,9c11.4,8.1,1.7,12,2.9,23.4l-9,3.2l6.8,18.8c13-7.6,13.7,6.9,27.1,8.7l0.6,9.5l20-1.2c-3.6-14.7,10.5-11.2,16-23.6l9.3,2.1
	l4.4-19.5C1023.6,29,1023.3,28.9,1021.5,19.9z"/>
<circle class="st29" cx="990.5" cy="31.1" r="25"/>
<circle class="st5" cx="990.5" cy="31.1" r="14"/>
<path class="st5" d="M1061-12.9c-1.8-1.6-4-2.9-6.3-3.7l0.1-5.2l-10.9-0.1c1.3,7.6-4.3,5.3-8.2,10.4c-0.8,2.9-4.6,0.6-6.3,0.3
	l-3.2,10.4c7.6,0.9,3.9,5.3,7.4,10.4l-3.5,3.9l8.1,7.3c4.2-7,8.3-0.2,15.2-2.9l2.7,4.4l9.2-5.7c-5.5-6.1,2.1-8.1,1.5-15.4l5-1.4
	l-2.9-10.5C1064.4-9.1,1064.2-9,1061-12.9z"/>
<path class="st31" d="M1593.1,405.3l-11.2-9.3l-8,9.7c-1.5-0.4-3.1-0.7-4.6-0.7c-6.2,0-12,3.5-14.8,9h-13.1v14.5h12.6
	c2,4.5,5.8,7.9,10.4,9.3l2.4,12.9l14.3-2.7l-2.3-12.4c6.6-4.5,9.1-13,6-20.3L1593.1,405.3z"/>
<path class="st32" d="M1569.2,412.9L1569.2,412.9c5,0,9,4,9,9v0c0,4.9-4,9-8.9,9h0c-4.9,0-8.9-4-8.9-9v0
	C1560.3,416.9,1564.3,412.9,1569.2,412.9z"/>
<path class="st31" d="M1645,511.5c0-1.2-0.1-2.4-0.3-3.5l6.9-3.7l-5.7-10.6l-7.2,3.9c-1.9-1.7-4.2-3-6.6-3.7V486h-12v8.2
	c-1.4,0.5-2.8,1.2-4,2l-6.2-4.9l-7.4,9.4l6.4,5.1c-0.6,1.8-0.9,3.7-0.9,5.6c0,0.7,0,1.3,0.1,2l-7.2,3.1l4.8,11l7.5-3.2
	c1.8,1.9,3.9,3.3,6.3,4.3l-0.7,7.8l12,1l0.7-8.2c2.5-0.7,4.8-1.9,6.8-3.5l6.6,4.3l6.6-10l-6.8-4.5
	C1644.8,514.2,1645,512.9,1645,511.5z"/>
<circle class="st33" cx="1626.5" cy="511.5" r="11.5"/>
<path class="st34" d="M1105.6-3.4l-6.8-5.6l-4.8,5.8c-0.9-0.3-1.9-0.4-2.8-0.4c-3.8,0-7.2,2.1-9,5.4h-7.9v8.8h7.6
	c1.2,2.7,3.5,4.8,6.3,5.6l1.5,7.8l8.6-1.6l-1.4-7.5c2.8-1.9,4.4-5,4.4-8.4c0-1.3-0.3-2.7-0.8-3.9L1105.6-3.4z"/>
<path class="st35" d="M1090.6,1.2h1.2c2.6,0,4.8,2.1,4.8,4.8v1.2c0,2.6-2.1,4.8-4.8,4.8h-1.2c-2.6,0-4.8-2.1-4.8-4.8V6
	C1085.8,3.3,1087.9,1.2,1090.6,1.2z"/>
<path class="st36" d="M1147.3,26.8l7.3-9.1l-7.9-6.3c0.3-1.2,0.5-2.5,0.5-3.7c-0.1-5-3-9.5-7.4-11.8l-0.2-10.5l-11.7,0.2l0.2,10.1
	c-3.6,1.6-6.2,4.8-7.3,8.5l-10.3,2.2l2.4,11.4l9.9-2.1c2.6,3.6,6.8,5.7,11.2,5.7c1.8,0,3.5-0.4,5.1-1.1L1147.3,26.8z"/>
<path class="st9" d="M1893,544c0,0,1-5,6-4s8-1,8-2s6,7,1,10S1897,551,1893,544z"/>
<path class="st3" d="M1870,534c0,0-14,2-16-5s3-13,8-12s-18,17-38,11s-20.7-8.8-20.7-8.8"/>
</svg>
