<svg id="Layer_1" data-name="Layer 1" xmlns="http://www.w3.org/2000/svg" xmlns:xlink="http://www.w3.org/1999/xlink" viewBox="0 0 1920 1080"><defs><style>.cls-1,.cls-13,.cls-15,.cls-23,.cls-27,.cls-29,.cls-31,.cls-5,.cls-7{fill:none;}.cls-10,.cls-11,.cls-18,.cls-2,.cls-21,.cls-28,.cls-3,.cls-32,.cls-33{fill:#a2eae1;}.cls-11,.cls-12,.cls-13,.cls-15,.cls-16,.cls-17,.cls-18,.cls-19,.cls-22,.cls-23,.cls-24,.cls-25,.cls-27,.cls-28,.cls-29,.cls-3,.cls-32,.cls-35,.cls-37,.cls-4,.cls-5,.cls-9{stroke:#0bb3a4;}.cls-10,.cls-11,.cls-12,.cls-15,.cls-16,.cls-17,.cls-20,.cls-22,.cls-23,.cls-24,.cls-28,.cls-29,.cls-3,.cls-31,.cls-32,.cls-34,.cls-35,.cls-37,.cls-4,.cls-5,.cls-7,.cls-9{stroke-linecap:round;}.cls-10,.cls-11,.cls-12,.cls-15,.cls-16,.cls-17,.cls-18,.cls-20,.cls-22,.cls-23,.cls-24,.cls-28,.cls-29,.cls-3,.cls-32,.cls-34,.cls-35,.cls-37,.cls-4,.cls-5,.cls-7,.cls-9{stroke-linejoin:round;}.cls-10,.cls-12,.cls-13,.cls-19,.cls-20,.cls-21,.cls-3,.cls-4,.cls-5,.cls-7{stroke-width:2px;}.cls-16,.cls-17,.cls-19,.cls-20,.cls-22,.cls-24,.cls-25,.cls-36,.cls-37,.cls-4,.cls-6,.cls-9{fill:#0bb3a4;}.cls-26,.cls-33,.cls-36,.cls-7{stroke:#fff;}.cls-8{clip-path:url(#clip-path);}.cls-9{stroke-width:2.97px;}.cls-10,.cls-20,.cls-21,.cls-31,.cls-34{stroke:#a2eae1;}.cls-11{stroke-width:2.28px;}.cls-12,.cls-26,.cls-30,.cls-34,.cls-35{fill:#fff;}.cls-14{clip-path:url(#clip-path-2);}.cls-15{stroke-width:2.26px;}.cls-16{stroke-width:1.31px;}.cls-17{stroke-width:1.72px;}.cls-22{stroke-width:2.05px;}.cls-23{stroke-width:1.6px;}.cls-24{stroke-width:2.02px;}.cls-25,.cls-26,.cls-27,.cls-31,.cls-33,.cls-36{stroke-miterlimit:10;}.cls-28,.cls-29{stroke-width:2.49px;}.cls-31{stroke-width:5px;stroke-dasharray:18;}.cls-32{stroke-width:2.24px;}.cls-34{stroke-width:1.39px;}.cls-35{stroke-width:1.35px;}.cls-36{stroke-width:0.6px;}.cls-37{stroke-width:1.8px;}</style><clipPath id="clip-path"><circle class="cls-1" cx="1814.98" cy="633.3" r="43.73"/></clipPath><clipPath id="clip-path-2"><ellipse class="cls-1" cx="1438" cy="939" rx="11.87" ry="17.55" transform="translate(-226.22 1363.18) rotate(-47.44)"/></clipPath></defs><path class="cls-2" d="M1767.13,657.91a28.33,28.33,0,0,0-.55-2.87,14.91,14.91,0,0,0-3.23-6.14c-.19-.39-.38-.79-.58-1.19a13.25,13.25,0,0,0-2.51-3.43c-.12-.38-.25-.75-.39-1.12a17.45,17.45,0,0,0,1.81-10.25A27.77,27.77,0,0,0,1760,618.7a1.94,1.94,0,0,0,0-.24c-1.17-8.72-7.91-13.32-16.2-14.3a21.65,21.65,0,0,0-7.54.77,14,14,0,0,0-2.69,1c-7.81-12.77-27.26-14.85-40.16-8.42-13.57,6.75-15.52,23.1-11.16,36.41a28.17,28.17,0,0,0-7.18,3.1,27.77,27.77,0,0,0-9.44,9.65,30.67,30.67,0,0,0-2.65,6.42,64.49,64.49,0,0,0-10.53-4.4c-6.33-2.07-14.44-1.36-19.89,2.68-3.46,2.57-6.17,5.25-7.45,9.46a18.05,18.05,0,0,0-.29-2,4.85,4.85,0,0,0-3.68-4c-1.91-.48-3.94-.2-5.88-.21a62.68,62.68,0,0,1-7.11-.44,1.51,1.51,0,0,0-1.5,1.5,1.53,1.53,0,0,0,1.5,1.5c.41,0,.83.08,1.24.12a1.73,1.73,0,0,0,.11.32c.85,1.7,2.52,2.58,3.86,3.77a10.28,10.28,0,0,0,1.29,3c.31.49.66,1,1,1.47a24,24,0,0,1,0,4.72,1.43,1.43,0,0,0,1.4,1.45,15.27,15.27,0,0,0-1.88,7.53c0,.19,0,.38,0,.57A18.36,18.36,0,0,0,1620,691.7l3.34,2.58a16.45,16.45,0,0,0,8.33,2.25,14.23,14.23,0,0,0,2.67-.3,11.66,11.66,0,0,0,2.64-.45l3.94-1.66a2,2,0,0,0,.31-.19c.61-.43,1.2-.88,1.77-1.36s1.26-1,1.87-1.46l.09-.09a12.66,12.66,0,0,0,2.58-2.08c.12,1.1.28,2.18.49,3.27.06.37.12.67.16.93l0-.1s0,.07,0,.11c.21,1.18.2,1.26,0,.21-.24,1.57-.46,3.15-.65,4.74a29.19,29.19,0,0,0,1.21,9.23,71.22,71.22,0,0,0,5.38,12.91,24,24,0,0,0,12.4,11.23,12.45,12.45,0,0,0,5.91,1.27,17.11,17.11,0,0,0,8.16-1.58,20.05,20.05,0,0,0,8-5.06,20.27,20.27,0,0,0,3.12-4.33c6.41,2.43,14.48.4,18.75-5a15.91,15.91,0,0,0,4.24,3.57c10,5.78,23.78,6.19,30.47-4.94a25.57,25.57,0,0,0,3.29-13.7q-.18-1.73-.42-3.42a8.17,8.17,0,0,0,5,1.57c8.83,0,10.54-11.07,5.11-15.34a23.86,23.86,0,0,0,4.83-5.93,56.8,56.8,0,0,0,2.53-5.75l0-.08c.11-.16.29-.43.56-.88A15.57,15.57,0,0,0,1767.13,657.91Z"/><path class="cls-2" d="M1648.14,693.14l0,.2v0l0-.21Z"/><polygon class="cls-3" points="1240.81 1005.21 1257.97 981.75 1269 990 1240.81 1005.21"/><path class="cls-4" d="M1427,355c2-4,2.13-6.87-3-9-13.31-5.84-21.13,9.31-34.49,7.06-7-1.17-11.19-11-11.51-18.06,0-.78-24.08-2.81-34.63-2.06-19.28-2-23-102,1.16-107.3,42.27-4.74,94.4-16.49,132.46,5.28,7.36,30.86,7.19,68.39.49,99.6-24,3-62.36,3.21-87.48,5.48,4.19,13.52,21.54,5.68,32,4C1430.42,339.86,1438,349,1427,355Z"/><path class="cls-3" d="M1720.65,732.38c2.12-2.41,6.35-3.46,6.35-3.46l.36.24a13.09,13.09,0,0,1,5.71,10.66h0s-3.51,2.8-7.07,3.18"/><polygon class="cls-5" points="1298.17 769.41 1316.92 693.54 1328.44 709.29 1317.22 755.91 1364.57 759.27 1376.43 775.2 1298.17 769.41"/><polygon class="cls-3" points="1298.17 769.41 1290.86 774.76 1369.26 780.44 1376.43 775.2 1298.17 769.41"/><polygon class="cls-3" points="1290.86 774.76 1309.61 698.89 1316.92 693.54 1298.17 769.41 1290.86 774.76"/><polygon class="cls-5" points="1476.88 639.57 1463.75 711.33 1452.24 695.58 1460.41 651.48 1416.06 645.92 1404.24 629.67 1476.88 639.57"/><polygon class="cls-3" points="1396.79 635.12 1404.24 629.67 1416.06 645.92 1408.72 651.43 1396.79 635.12"/><rect class="cls-3" x="1449.81" y="696.38" width="9.06" height="19.51" transform="translate(-136.4 994.72) rotate(-36.18)"/><polygon class="cls-3" points="1408.72 651.43 1453.26 656.85 1460.41 651.48 1416.06 645.92 1408.72 651.43"/><polygon class="cls-3" points="1444.92 700.93 1453.26 656.85 1460.41 651.48 1452.24 695.58 1444.92 700.93"/><polygon class="cls-5" points="1382.73 645.41 1383.32 770.16 1393.45 762.75 1393.77 637.33 1382.73 645.41"/><polygon class="cls-3" points="1378.79 648.29 1379.38 773.04 1383.32 770.16 1382.73 645.41 1378.79 648.29"/><path class="cls-6" d="M1484.49,431.85c-10-4.82-16.44,9.85-12.88,17.6,4.43,6.64,18.22,4,20.05-3C1493,441.32,1488.12,434.07,1484.49,431.85Z"/><path class="cls-6" d="M1503.89,429.86l-1.25-1.46a27.58,27.58,0,0,0-42.88,1.17l-10.71-8.19a41.07,41.07,0,0,1,63.84-1.75l1.25,1.47Z"/><path class="cls-6" d="M1526.63,412.26l-2.54-3a55.85,55.85,0,0,0-86.82,2.38l-21.69-16.59a83.16,83.16,0,0,1,129.26-3.54l2.53,3Z"/><polyline class="cls-3" points="1770 524 1736 528 1736 533 1748.01 538.44 1808.67 533.72 1806 525 1780 523"/><path class="cls-5" d="M1719.17,430.33c41-1.69,82.86-1.72,123.85-.84"/><path class="cls-5" d="M1719.17,430.33c-2,9.41-1.64,19.12-1.65,28.75,0,18.66-1.45,37.93-1.47,56.6"/><path class="cls-5" d="M1716.05,515.68c39.43,3.77,73.4-1.12,113,.24"/><path class="cls-5" d="M1843,429.49c1.88,15.76-1.72,32.12-2,48-.22,12.3,1.11,24.57,1.08,36.87a1.69,1.69,0,0,1-2,2.15l-11-.57"/><path class="cls-5" d="M1733.21,539.32c39.62-1.68,78.84-9.36,118.12-4"/><path class="cls-5" d="M1780.41,575.56l45.14-11.35c5.84-1.47,11.68-2.94,17.6-4.08,4.64-.9,9.31-1.59,14-2.29,5.51-.81,12.36-1.63,17.87-2.44"/><path class="cls-5" d="M1851.33,535.31c8.69,5.83,15.38,13.71,23.68,20.09"/><path class="cls-3" d="M1783.32,590.29c-13.17-6.66-27.44-14.28-40-22-3.61-2.24-7.56-3.94-10.45-7.06.81-7.17,1.4-14.75.34-21.88,4.28,5.89,10.88,11.16,16.7,15.54l9.7,7.33c7.45,5.62,15.11,11.35,24.07,14"/><path class="cls-3" d="M1783.32,590.29c.13-5-.1-9.61-.3-14.59,0,0,44-12.7,51.49-13.7s40.5-6.6,40.5-6.6c-.29,3.76.12,6.64-.62,10.34-6.93,3.62-13.43,3.1-20.77,5.79-5.17,1.9-10.5,3.32-15.83,4.73-17.63,4.7-36.84,9.34-54.47,14"/><path class="cls-3" d="M1724.5,438.73c15-2.37,31.31-2.53,46.48-2.93l17.26-.44A216.85,216.85,0,0,1,1829,438c-.58,22.14.88,48.18.3,70.32-15.22-3-29.9.94-45.37,2.07a184.51,184.51,0,0,1-18.52.12l-30.14-.81c-4-.1-8-.22-11.81-1.54l1.16-.27C1724.8,484.74,1725.49,461.83,1724.5,438.73Z"/><path class="cls-5" d="M1719.17,430.33c-3.43,3.24-9,6.43-12.67,9.38"/><path class="cls-5" d="M1716.05,515.68c-2.87,1.53-7.19,4.3-10.37,5-1.69-27.08-.8-54.28,1.13-81.34"/><path class="cls-4" d="M1780.46,520.56l.33,4.53.26.59a59.73,59.73,0,0,1-10.69,1.74l.82-1a26.24,26.24,0,0,1,.2-5.6"/><path class="cls-5" d="M1877.25,546.33c-2.59-1.54-3.12-1.73-5-4.06s-3-5.59-2-8.42a8.75,8.75,0,0,1,5.78-5,23,23,0,0,1,7.85-.65,60.38,60.38,0,0,1,16.86,2.63c3.68,1.24,7.3,3.15,9.56,6.31a14.86,14.86,0,0,1,2.47,6.14c.6,3.4,0,7.35-2.64,9.52s-6.33,1.94-9.64,1.42c-9-1.4-15.5-3.17-23.25-7.88"/><path class="cls-4" d="M1871.86,531.68c.3-1.63,2.33-2.25,4-2.2a7.3,7.3,0,0,1,3.67.94,4,4,0,0,1,2,3.12.59.59,0,0,1-.1.43.64.64,0,0,1-.54.18,9.83,9.83,0,0,1-7.65-3.39"/><path class="cls-7" d="M1763.54,446.87c-6.91,6.95-15.58,12.58-20,21.31"/><path class="cls-7" d="M1784.13,451.48l-17.41,14.41c-9,7.48-18.37,15.32-23.39,25.94"/><path class="cls-7" d="M1803.31,455l-36.73,31.83a156.26,156.26,0,0,0-12.95,12.12"/><path class="cls-7" d="M1812.85,475.13A180.38,180.38,0,0,1,1793.22,492"/><path class="cls-3" d="M1705.68,521.67c14,0,111.75-2.69,125.69-3.47L1841,516H1716Z"/><path class="cls-5" d="M1756,545s72-7,81-6"/><line class="cls-5" x1="1783" y1="570" x2="1857" y2="552"/><line class="cls-5" x1="1776" y1="562" x2="1849" y2="547"/><line class="cls-5" x1="1769" y1="552" x2="1839" y2="543"/><line class="cls-5" x1="1765" y1="542" x2="1793" y2="569"/><line class="cls-5" x1="1782" y1="538" x2="1807" y2="566"/><line class="cls-5" x1="1798" y1="537" x2="1818" y2="564"/><line class="cls-5" x1="1811" y1="536" x2="1830" y2="560"/><line class="cls-5" x1="1823" y1="536" x2="1841" y2="559"/><line class="cls-5" x1="1833" y1="536" x2="1849.88" y2="554.54"/><line class="cls-5" x1="1844" y1="537" x2="1850" y2="546"/><path class="cls-5" d="M1308.29,909.93c6.15-2.3,18-7.43,21.69-12.88,2.8-4.16,5.42-8.69,5.8-13.7.44-5.71-2.11-11.2-4.84-16.24s-5.77-10-10-14a44.77,44.77,0,0,0-9.91-6.76,76.47,76.47,0,0,0-45.16-8c-5.33.71-10.67,2-15.28,4.79a32,32,0,0,0-12.24,14.35,52.06,52.06,0,0,0-4.14,18.58c-.48,8.75.72,18,5.81,25.14,6.5,9.11,18.16,13.15,29.31,14.09C1280.24,916.28,1298.08,913.75,1308.29,909.93Z"/><path class="cls-5" d="M1234.25,876.13a52.06,52.06,0,0,1,4.14-18.58,32,32,0,0,1,12.24-14.35c4.61-2.77,9.95-4.08,15.28-4.79a76.49,76.49,0,0,1,44.7,7.77,53.39,53.39,0,0,0-10.12-43.52,82.58,82.58,0,0,0-16.32-15.07,79.4,79.4,0,0,0-17.66-10.26,63.12,63.12,0,0,0-19.5-4.06c-16.75-.95-33.61,3.53-48.26,11.71-7.76,4.33-15.15,9.91-19.54,17.63-4.5,7.89-5.47,17.43-4.24,26.43s5.38,17.31,9,25.64c-8,4.37-15.14,8.5-23.1,12.94-1.19.67-2.54,1.57-2.6,2.94,10.53,2.78,25.46-2.46,36.36-2.48,5.58,10,17.74,14.46,28.94,16.91,3.66.81,7.37,1.47,11.09,2A54.42,54.42,0,0,1,1234.25,876.13Z"/><path class="cls-5" d="M1330.83,896.27c3.2,5.35,9.17,8.49,12.77,13.58a.73.73,0,0,1,.18.41c0,.31-.34.48-.63.56a16,16,0,0,1-6.36.08c-4.88-.59-13.9-4.31-18.79-4.9"/><path class="cls-4" d="M1207.06,831.23a10.86,10.86,0,0,0-3.43,7.45,9,9,0,0,0,2.47,6.6c2.53,2.58,6.71,3.36,10.42,2.72a11.42,11.42,0,0,0,5.58-2.46c4.39-3.86,3.49-11.29-.61-15s-10.09-3.11-14.1.41Z"/><path class="cls-4" d="M1244,847c-2.48-1.65-4.86-6.91-4-9.85.32-1.08,1.72-5.81,2.47-6.65,3-3.34,7.15-4.33,12.08-3.07,3.39.86,6.42,7.57,6.42,11.57"/><path class="cls-4" d="M1275.22,836.78C1274,830,1281,825,1287.33,825.72c3.34.38,4.64,5,5,7.89.31,2.57-1.56,3.17-1.59,5.76"/><path class="cls-4" d="M1271.83,872.16a7.73,7.73,0,0,0-6.13,2.71,10,10,0,0,0-2.19,5.57,9.76,9.76,0,0,0,2.79,7.95c4,3.72,9.71,1.69,11.25-3.28.91-2.94,1.22-7.17-.21-10A6,6,0,0,0,1271.83,872.16Z"/><path class="cls-4" d="M1293,875.25l-.08.07a7.67,7.67,0,0,0-2.38,3.6c-2.09,6.28,1.83,11.22,8.25,10.78a6.86,6.86,0,0,0,4.21-1.4c1.37-1.23,1.73-3.22,1.73-5C1304.75,878.07,1298.07,871.31,1293,875.25Z"/><circle class="cls-5" cx="1452.31" cy="769.04" r="37.64"/><path class="cls-4" d="M1375.28,1023.87a32.37,32.37,0,1,1,0-45.78A32.37,32.37,0,0,1,1375.28,1023.87Zm-7.53-38.26a21.73,21.73,0,1,0,0,30.73A21.73,21.73,0,0,0,1367.75,985.61Z"/><g class="cls-8"><path class="cls-6" d="M1860.56,635.62l-3.65-3.3c2.85-1.17,4.62-5.49,1.57-7.62L1843.2,614c1.64.76,3.27,1.51,4.91,2.25,5.22,2.33,9.22-5.7,4-8-1.63-.73-3.26-1.48-4.89-2.23,2.73-1.39,4.37-5.18,1.59-8-7.15-7.34-16.74-10.61-26.34-13.46-2.89-.86-6.63,1.58-6.33,4.82,0,.36.07.72.1,1.08a5.38,5.38,0,0,0,.65,2.13,107.62,107.62,0,0,0-15.92-4.6c-4.15-.84-7.56,5.1-3.84,7.76q4.07,2.92,8.08,5.91a72.62,72.62,0,0,0-17.41-4.5c-3.61-.45-6.5,3.38-5,6.36a4.49,4.49,0,0,0-2.74,7.74l2.88,3a28.3,28.3,0,0,0-5.16-.5c-3.35,0-5.43,4.34-3.5,6.94,3.66,4.91,9.94,7,15.18,9.92q7,3.87,13.85,8.13c-3.82-2.17-7.53-4.53-11.44-6.56a61.63,61.63,0,0,0-16.83-5.71c-4.29-.82-7.35,4.93-3.85,7.76,4.11,3.32,8.34,6.48,12.64,9.55-2.57-1.08-5.15-2.14-7.75-3.14-4.35-1.67-9.37,4.34-4.93,7.41,1.18.81,2.34,1.63,3.51,2.44-.71,5.86,5.26,12.48,8.54,16.54,5.7,7,12.47,13,21.37,15.49,4.38,1.22,7-3.21,6-6.53,3.11,2.26,6.22,4.52,9.31,6.81,4.57,3.36,10.52-3.38,5.9-6.78q-3.62-2.67-7.25-5.3,4.21,2.25,8.42,4.53c4.09,2.2,7.9-3,5.74-6.44a3.71,3.71,0,0,0-1-5.3q-2.36-1.74-4.63-3.57c4.62,2.23,9.21,4.53,13.74,7s8.64-4.12,4.93-7.41Q1835.3,650.19,1824,642c9,4.56,18,9.66,24.71,16.68,3.42,3.57,10-2.08,6.69-5.89-2.76-3.21-5.67-6.24-8.69-9.15a4.53,4.53,0,0,0,1.57-6c2.14,1.57,4.26,3.17,6.34,4.82C1859.13,646,1864.79,639.5,1860.56,635.62Zm-67,28.1-.08-.09q6,4.27,12,8.61C1800.73,670.52,1797,667.46,1793.51,663.72Zm9-42.15-1.4-1.45c1.56.69,3.1,1.4,4.65,2.11.89.69,1.78,1.38,2.68,2.06C1806.51,623.37,1804.54,622.46,1802.55,621.57Zm34.64-20.25c-4.13-2-8.26-3.86-12.45-5.64A49.35,49.35,0,0,1,1837.19,601.32Z"/></g><path class="cls-4" d="M1451.48,765.05c2-3.57,6-9.13,9.86-10.61,2.72-1,6-1.35,8.41.28a8.69,8.69,0,0,1,2.6,3c3,5.41,2.31,12.34-.53,17.85s-13.32,9.18-18.19,13c-5.77-.76-16.87-5-19.7-10.12a19,19,0,0,1-.68-16.82c1-2.16,2.61-4.3,5-4.75a7.35,7.35,0,0,1,3.5.36,20,20,0,0,1,9.78,7.78"/><circle class="cls-5" cx="1719.23" cy="387.14" r="40.38"/><path class="cls-6" d="M1690.94,385.49a8,8,0,0,1,3-6.64,12.74,12.74,0,0,1,7-2.74,15.77,15.77,0,0,1,7.44,1.27,19.08,19.08,0,0,1,3.31,1.83c1,.74,2.22,1.38,2.34,3a1.28,1.28,0,0,1-1.18,1.37h-.29c-1.45-.1-2-1-2.85-1.6a16.17,16.17,0,0,0-2.66-1.65,13.73,13.73,0,0,0-6-1.5,11.16,11.16,0,0,0-6,1.61,7.46,7.46,0,0,0-2.23,2.14,6.73,6.73,0,0,0-1.08,3,.43.43,0,0,1-.48.37.42.42,0,0,1-.38-.38Z"/><path class="cls-6" d="M1727.35,382.42a9.5,9.5,0,0,1,4.45-5.66,12.29,12.29,0,0,1,7-1.71,11,11,0,0,1,6.55,2.65,19,19,0,0,1,4.11,5.4.39.39,0,0,1-.15.53.39.39,0,0,1-.49-.11,21,21,0,0,0-4.45-4.56,9.54,9.54,0,0,0-5.64-1.74,9.92,9.92,0,0,0-5.55,1.72,14.47,14.47,0,0,0-4,4.23l0,.05a1,1,0,0,1-1.39.3A1,1,0,0,1,1727.35,382.42Z"/><path class="cls-5" d="M1696.09,397.71a29.43,29.43,0,0,0,14.08,16.78,24.41,24.41,0,0,0,21.63.41c6.7-3.33,11.2-9.9,13.2-16.9l.27-2.77c-3-2.25-7-2.75-10.75-3a104,104,0,0,0-38.41,5"/><path class="cls-5" d="M1704,406a113.4,113.4,0,0,1,38.75-3"/><path class="cls-6" d="M1689.47,364.65a24.63,24.63,0,0,1,5.65-4.18,33.78,33.78,0,0,1,3.15-1.52c.54-.23,1.08-.44,1.62-.64l.82-.3c.27-.11.56-.17,1,.26a2.16,2.16,0,0,1,.63,1.84v.06c-.09.61-.33.73-.6.8l-.77.26c-.52.19-1,.38-1.53.58-1,.38-2,.81-3,1.26a43.66,43.66,0,0,0-5.68,3.13h0a1,1,0,0,1-1.27-1.55Z"/><path class="cls-6" d="M1732.15,357.21a1.54,1.54,0,0,1,1.3-.19,12,12,0,0,1,1.22.27,18.13,18.13,0,0,1,2.32.8,14.7,14.7,0,0,1,4.13,2.63,1,1,0,0,1-1.21,1.58l0,0a19.52,19.52,0,0,0-3.84-1.79,18.85,18.85,0,0,0-2-.61c-.33-.09-.67-.15-1-.21a1.27,1.27,0,0,1-1-.46l-.13-.14a1.28,1.28,0,0,1,.15-1.79Z"/><path class="cls-5" d="M1709.32,347.9a5.2,5.2,0,0,1,1-6.2"/><path class="cls-5" d="M1713.85,346.64a15.52,15.52,0,0,1,9.55-9.2"/><path class="cls-5" d="M1724,347c3.24-2.37,7.3-3,11.31-2.84"/><circle class="cls-5" cx="1354.23" cy="1095.14" r="40.38"/><path class="cls-6" d="M1324.47,1072.65a24.63,24.63,0,0,1,5.65-4.18,33.78,33.78,0,0,1,3.15-1.52c.54-.23,1.08-.44,1.62-.64l.82-.3c.27-.11.56-.17,1,.26a2.16,2.16,0,0,1,.63,1.84v.06c-.09.61-.33.73-.6.8l-.77.26c-.52.19-1,.38-1.53.58-1,.38-2,.81-3,1.26a43.66,43.66,0,0,0-5.68,3.13h0a1,1,0,0,1-1.27-1.55Z"/><path class="cls-6" d="M1367.15,1065.21a1.54,1.54,0,0,1,1.3-.19,12,12,0,0,1,1.22.27,18.13,18.13,0,0,1,2.32.8,14.7,14.7,0,0,1,4.13,2.63,1,1,0,0,1-1.21,1.58l0,0a19.52,19.52,0,0,0-3.84-1.79,18.85,18.85,0,0,0-2-.61c-.33-.09-.67-.15-1-.21a1.27,1.27,0,0,1-1-.46l-.13-.14a1.28,1.28,0,0,1,.15-1.79Z"/><path class="cls-5" d="M1344.32,1055.9a5.2,5.2,0,0,1,1-6.2"/><path class="cls-5" d="M1348.85,1054.64a15.52,15.52,0,0,1,9.55-9.2"/><path class="cls-5" d="M1359,1055c3.24-2.37,7.3-3,11.31-2.84"/><path class="cls-5" d="M1047,1018c-12,1.79-15.64-9.75-15.64-9.75a50.43,50.43,0,0,1-7.67.32,1,1,0,0,1-.49-.48c-.47-4-.32-12.65-.32-12.65a60.66,60.66,0,0,1,7.84.63,24.93,24.93,0,0,1,7.6-9.24c4.17-2.69,9.55-2.19,14.46-1.47,0,0,1.89-2.33,3.27-3.87a1.19,1.19,0,0,1,.73-.48,1.13,1.13,0,0,1,.62.23l5.93,3.6a45.14,45.14,0,0,1-2.16,6.41s.32.63.53,1a18.54,18.54,0,0,1,.24,18.7c-1.85,3.18-2.11,3.72-4.94,6.08,0,0,.32,4.69.74,7a.89.89,0,0,1-.12.8.88.88,0,0,1-.6.16c-3.4,0-6.79,1-10.18.73Z"/><path class="cls-5" d="M1044.3,997.29a5.32,5.32,0,0,0-1.51,2.48,5.6,5.6,0,0,0,.71,5.11,5,5,0,0,0,5.32,1.69c2.38-.8,3.21-3.38,3.18-5.59a5.84,5.84,0,0,0-1.25-3.93,3.81,3.81,0,0,0-4.24-1A9.46,9.46,0,0,0,1044.3,997.29Z"/><path class="cls-5" d="M1141.33,1042.75c-3.35-2-8.2-6.91-8.2-6.91a31.25,31.25,0,0,0,2.66-6c1-3.41.76-7,.55-10.56a53.82,53.82,0,0,0-1.27-7.61,25.92,25.92,0,0,1,7.74-.84L1133.27,990c-2.29,1.27-6.39,5.24-6.39,5.24-5-3.06-14.2-7.42-20-6.63,0,0-1.57-7.82-2.24-11.64l.15-.22c-5.45,1.8-18.16,7.07-18.16,7.07a13.11,13.11,0,0,1,3.32,9.8s-7.17,4.31-9.31,8.79a63.6,63.6,0,0,1-10.52-2.07l-3.2,17c2.9,1.88,8.11,2.68,8.11,2.68,1,6.93,4.34,15.66,9.91,19.93,0,0-4.75,7-6,10.18l.48.34c1.8,3.72,9.83,10,9.83,10a16.78,16.78,0,0,0,9.11-7.85l.11,0c6.49,3.74,22.67-2.15,22.67-2.15q3.32,3.07,6.88,5.87s11-8,13.56-13.37"/><path class="cls-6" d="M1111.54,1005.09a23.53,23.53,0,0,1,2.54,1,13.54,13.54,0,0,1,5.94,5c2.83,4.66,2.11,11.94.44,16.9-4,12-20.49,12.4-27.84,3.22a17.46,17.46,0,0,1-2.31-17.56C1094.21,1004.79,1103.14,1002.29,1111.54,1005.09Z"/><path class="cls-5" d="M1114.62,1073.81v-9.19l.37-3.15a28.77,28.77,0,0,1-12.73,1.71l-.36,3.21v8.48"/><path class="cls-5" d="M1100.14,1074.2a8.92,8.92,0,0,0-7.46,6.67l.39.65a7.52,7.52,0,0,1-4-3.24c-.45-.76-1-1.72-1.84-1.71a2.09,2.09,0,0,0-1.36.79,25.83,25.83,0,0,0-6.66,12"/><path class="cls-5" d="M1113.89,1073.43a11.75,11.75,0,0,1,7.62,2,35.15,35.15,0,0,1,6.06,5.25l-.93-.48a16,16,0,0,0,7.43-3.89l1.69-.34a45.2,45.2,0,0,1,3.37,11.31l-1.51,1.81a50.47,50.47,0,0,1-8.16,2.38l-.73,1.7c.81.12,1.18,1.07,1.33,1.88a19.12,19.12,0,0,1-1.43,10.43,54,54,0,0,1-5.25,9.27l-2.09.78a20.48,20.48,0,0,0,3.94,6.33l.29,1.68A100,100,0,0,1,1115,1128l-2.38-1a12.8,12.8,0,0,1-3.45-6.55"/><path class="cls-5" d="M1547.37,762.47a44,44,0,0,1-36.49-14.91l-.93-.69c2.39.16,4.47-1.58,6.22-3.22a23.93,23.93,0,0,0,5.44-6.8c1.36-2.72.89-10.85.89-10.85.72,3.18,5.76,5.61,8.45,7.45a62.63,62.63,0,0,0,15.86,7.82,16.19,16.19,0,0,0,4.33.93,82.1,82.1,0,0,0,8.29-.4c2,1.37,2.55,4,2.84,6.41a79,79,0,0,1-1.13,25.8c-.81,3.82-2,7.79-4.91,10.42s-7.9,3.27-10.53.39c-1.49-1.63-1.91-4-2.16-6.16A110.7,110.7,0,0,1,1543,763Z"/><path class="cls-5" d="M1600.63,710c2.66,1.92,6.16,2.1,9.43,2.12,10.28.07,28.68-.89,28.68-.89a48.29,48.29,0,0,1,8,28,23.6,23.6,0,0,1-2.09,9.8,15.75,15.75,0,0,1-7.92,7.45A6.4,6.4,0,0,1,1629,752a27.8,27.8,0,0,1-.73-12.48l2.67-.18a60.77,60.77,0,0,1-39.51-10.87"/><path class="cls-4" d="M1512,482c23.43-3.25,33.27,17.84,29.45,41.11-14.81,9.68-47.45-.11-47.45-.11S1476,487,1512,482Z"/><path class="cls-5" d="M1557.08,515.14a79.2,79.2,0,0,1,1.37-10.53,26.91,26.91,0,0,1,1.94-6.42,16.37,16.37,0,0,1,10.66-8.67,10.86,10.86,0,0,1,6.29.14,6.65,6.65,0,0,1,4.25,4.43"/><path class="cls-5" d="M1581.88,494.31a69.73,69.73,0,0,1,1.19,12.24c0,3.28-.23,6.7-1.84,9.57-2,3.64-5.93,5.82-9.78,7.44"/><path class="cls-5" d="M1559,515.37c-.51.5-.31,1.36,0,2a10.2,10.2,0,0,0,7.07,5.06,19,19,0,0,0,8.88-.58"/><path class="cls-5" d="M1492.9,491.46c1.78-8.47,3.82-17.33,9.53-23.83,3.9-4.43,9.23-7.39,14.75-9.47a61.55,61.55,0,0,1,23-4,45.8,45.8,0,0,1,15.73,2.9,37.26,37.26,0,0,1,22.67,27.74"/><path class="cls-5" d="M1493.92,522.5c-1.73.85-2.48,2.87-3,4.73a49.91,49.91,0,0,0-1.13,5.8s16.05,7.48,25.16,7.75a185.29,185.29,0,0,0,52-5.87c3.41-.89,7-2,9.38-4.55,2.94-3.13,3.51-7.74,3.93-12"/><path class="cls-4" d="M1499,554c-12.63,1.63-31.36,21.6-35.17,35.08-2.45,22.24,19.62,12.94,25-1.21"/><path class="cls-3" d="M1606,572c8.65,9.28,20.88,17.92,30.73,25.8A77.25,77.25,0,0,0,1646,591s-25-23-34-31Z"/><path class="cls-3" d="M1429.51,557.38a21.1,21.1,0,0,0,11,.81s-5.57,14.85-5.44,20.89,2.22,12.45,7.16,15.93c6,4.27,15,2.73,20.34-2.36l2.09,6.52c-5.91,4.39-12.42,9-19.77,8.82-6.86-.15-13.16-4.67-16.59-10.61s-4.29-13.09-3.66-19.92,2.65-13.45,4.65-20"/><path class="cls-4" d="M1429,557c-2.23-.34-6.27-1-6.77-3.24-.3-1.26-.53-2.53-.71-3.82a5.9,5.9,0,0,1,.17-3.18,5.11,5.11,0,0,1,1.58-1.91c4.09-3.34,9.7-4,15-4.44a8.26,8.26,0,0,1,2.58,0c2.19.47,3.7,2.64,4,4.85a13.76,13.76,0,0,1-1,6.56,51.69,51.69,0,0,1-3,6.91Z"/><path class="cls-5" d="M1660.54,598.84c15.09,8.48,12.58,20-2.35,6"/><path class="cls-5" d="M1657.39,607.32c12.7,7.68,7.1,19.23-3.22,5.67"/><path class="cls-5" d="M1652.23,612.88c14.28,12.86-2.81,17.1-5.23.12"/><path class="cls-5" d="M1660.15,595.64c10.09-10.94-2.81-14.32-8.44-3.47"/><path class="cls-5" d="M1646,613a24.75,24.75,0,0,1-.72,7.8,3.61,3.61,0,0,1-6.48,1.15,2.48,2.48,0,0,1-.42-1.72c.35-2.33,1.27-6.9,1.62-9.23"/><path class="cls-4" d="M1646,591c-1,1-16.57,4.49-7.47,17.16,7.71,14.86,22.37-.92,21.47-11.16C1659.58,592.27,1653,592,1646,591Z"/><path class="cls-5" d="M1441.38,553.27c2.34.54,6.31-.37,9.22-.25a5.56,5.56,0,0,0,5.84-4.36c.87-4.65-3.1-5.47-10.43-3.14"/><path class="cls-5" d="M1422,546c-6.82-6.41-4-21,3-3"/><path class="cls-5" d="M1427,542c-4-7-2-17,2-17,3,0,4.14,7.48,3,16"/><path class="cls-5" d="M1434,540c-.31-12.78,2.86-18.31,6-17s3,8-1,17"/><path class="cls-5" d="M1440,540c6.74-9.51,7.13-14.38,10.57-12.19S1448.22,538,1445,543"/><path class="cls-5" d="M1507.64,543.4c-5.71,3.6-8.67,10.21-11,16.56a181.43,181.43,0,0,0-8.09,30.55,41.74,41.74,0,0,0-.8,11.73,16.72,16.72,0,0,0,4.81,10.51c2.35,2.18,5.43,3.39,8.47,4.4a102.8,102.8,0,0,0,67-.88c3.28-1.19,6.81-2.86,8.09-6.1"/><path class="cls-5" d="M1565.51,535.72c1.61,3.21,2.45,3.84,3.49,7.28"/><path class="cls-5" d="M1577,577c1.2,6,3.13,13.9,3.21,20s-2.06,9.78-5.21,15"/><path class="cls-5" d="M1570.27,541.55c0-2.92,2.83-5,5.52-6.14a28,28,0,0,1,9.62-2.18,14.14,14.14,0,0,1,4.45.39,9.46,9.46,0,0,1,6.38,6.38c.86,3,.87,4.68-1.24,7"/><path class="cls-5" d="M1593,578c.47,8.57,1,18.84,1.48,27.41.36,6.46.7,13-.76,19.31S1589.27,641.41,1583,643c-3,.77-19,1-19-10"/><path class="cls-3" d="M1513.51,565c-2.19,1.06-3.1,3.65-3.73,6a128.8,128.8,0,0,0-4.23,26.24s.75,2,4.06,3.66,7.1,1.93,10.8,2c7.8.15,16.91.5,24.59-.89,3-2-2.75-34.9-4-35C1531.54,566.25,1513.51,565,1513.51,565Z"/><path class="cls-4" d="M1579.83,644.1c6.18,1.8,14.34,13,14.34,13L1608,645s-8-9-14.83-13.75C1594.11,632.7,1582.74,646.82,1579.83,644.1Z"/><polygon class="cls-2" points="1539.05 266.19 1537.73 284.67 1552.2 296.23 1534.22 300.68 1527.69 318.01 1517.9 302.29 1499.4 301.44 1511.33 287.27 1506.42 269.41 1523.58 276.38 1539.05 266.19"/><polygon class="cls-9" points="1061.81 1099.08 1035.24 1091.8 1014.17 1109.56 1012.89 1082.04 989.49 1067.5 1015.26 1057.77 1021.86 1031.03 1039.08 1052.53 1066.56 1050.54 1051.42 1073.56 1061.81 1099.08"/><polygon class="cls-6" points="1517.91 302.29 1499.4 301.44 1511.33 287.27 1508.66 277.57 1498.42 273.41 1503.33 291.27 1491.4 305.44 1509.91 306.29 1519.7 322.01 1523.65 311.51 1517.91 302.29"/><polygon class="cls-6" points="1555.48 240.15 1557.8 233.17 1553.32 226.57 1548.1 242.29 1555.48 240.15"/><polygon class="cls-6" points="1552.07 273.03 1552.6 256.29 1539.33 246.51 1529.69 249.31 1544.6 260.29 1544.01 278.8 1552.07 273.03"/><polygon class="cls-6" points="1567.07 264.01 1560.67 268.59 1576.49 274.3 1574.02 266.52 1567.07 264.01"/><polygon class="cls-6" points="1614.74 251.77 1596.23 252.38 1607.01 237.31 1603.38 227.28 1592.71 223.9 1599.01 241.31 1588.23 256.38 1606.74 255.77 1617.74 270.67 1620.82 260.01 1614.74 251.77"/><polygon class="cls-6" points="1658.46 273.55 1643.71 264.38 1634.72 267.77 1650.46 277.55 1651.32 296.05 1659.2 289.41 1658.46 273.55"/><polygon class="cls-6" points="1660.05 257.23 1661.85 249.94 1656.49 243.25 1652.32 260.15 1660.05 257.23"/><polygon class="cls-6" points="1673.48 280.11 1667.94 284.78 1683.35 289 1680.51 282.03 1673.48 280.11"/><polygon class="cls-6" points="1701.15 294.75 1707.1 289.32 1706.83 286.26 1698.27 294.08 1701.15 294.75"/><polygon class="cls-6" points="1715.47 317.08 1715.33 317.75 1724.53 313.86 1723.91 313.51 1715.47 317.08"/><polygon class="cls-6" points="1699.61 321.23 1681.2 323.29 1690.76 307.43 1686.08 297.11 1675.11 294.56 1682.76 311.43 1673.2 327.29 1691.61 325.23 1703.74 339.22 1705.94 328.53 1699.61 321.23"/><path class="cls-10" d="M1433,349c2-4,2.13-6.87-3-9-13.31-5.84-21.13,9.31-34.49,7.06-7-1.17-11.19-11-11.51-18.06,0-.78-24.08-2.81-34.63-2.06-19.28-2-23-102,1.16-107.3,42.27-4.74,94.4-16.49,132.46,5.28,7.36,30.86,7.19,68.39.49,99.6-24,3-62.36,3.21-87.48,5.48,4.19,13.52,21.54,5.68,32,4C1436.42,333.86,1444,343,1433,349Z"/><path class="cls-6" d="M1477.54,211.06c6.87-9.17,29.78-36,31-12.48C1499,202.82,1479.73,220.41,1477.54,211.06Z"/><path class="cls-6" d="M1506.35,216.9c6.28,12.29-10.39,4-16.27,8.34C1485.54,215.46,1500,211.58,1506.35,216.9Z"/><path class="cls-6" d="M1473.88,208.79c3-8.26,13.5-16.82,1.54-21.48C1472.23,194.75,1460.05,210.94,1473.88,208.79Z"/><path class="cls-3" d="M1294.21,214.67a40.38,40.38,0,1,1-40.38-40.38A40.38,40.38,0,0,1,1294.21,214.67Zm-52.8,18.6c8.69-3.58,33.59-19.27,38.92-22.45a252.18,252.18,0,0,0-41.16-15.62S1240.32,222.14,1241.41,233.27Z"/><path class="cls-11" d="M1316.89,285.28c12,22-36.1-.55-39.87-5.84s-.31-12.52,6.4-6.93C1296.65,224.48,1331.06,267.89,1316.89,285.28Z"/><path class="cls-5" d="M1288.25,274a125.94,125.94,0,0,1,12,4c5.09,2.27,6,3,11,7"/><path class="cls-12" d="M1307.18,286c-.72,5.67-2.56,11.12-4.4,16.53-.88,2.6-1.91,5.4-4.22,6.89a1.93,1.93,0,0,1-1.59.38c-.9-.28-1.08-1.47-1.09-2.42,0-4.08.09-8.24,1.35-12.13,1.08-3.35,3-6.45,3.52-9.93Z"/><path class="cls-12" d="M1293.18,281c-.72,5.67-2.56,11.12-4.4,16.53-.88,2.6-1.91,5.4-4.22,6.89a1.93,1.93,0,0,1-1.59.38c-.9-.28-1.08-1.47-1.09-2.42,0-4.08.09-8.24,1.35-12.13,1.08-3.35,3-6.45,3.52-9.93Z"/><path class="cls-5" d="M1285.28,298.77a4.1,4.1,0,0,1,1.18-4.72,7.39,7.39,0,0,1-.57,3.83"/><path class="cls-5" d="M1298.31,303.17a7.88,7.88,0,0,1,2-5.63,2.13,2.13,0,0,1-.44,2.53Z"/><path class="cls-4" d="M1304,251v-6.8a3.54,3.54,0,0,1,.33-1.83,3,3,0,0,1,1.38-1.1,13.71,13.71,0,0,1,8-1.27,43.43,43.43,0,0,1-1.44,15.09"/><path class="cls-4" d="M1307.19,239.41a3.73,3.73,0,0,1,2.39-6.32,1.22,1.22,0,0,1,.78.14,1.43,1.43,0,0,1,.46.82,24.42,24.42,0,0,1,1,6.85"/><path class="cls-5" d="M1499.88,239.83c7.43-.2,14.38-4.37,19.14-10.08s7.54-12.84,9.31-20.07c2.49-10.19,3.07-21.08-.13-31.07s-10.57-19-20.47-22.43a42,42,0,0,0-14.71-2c-9.74.17-20,2.45-27,9.21-7.47,7.18-10.32,18.49-18.65,24.67a22,22,0,0,1-24.84.48c-2.64-1.81-5-4.39-5.5-7.54-.85-4.8,2.58-9.34,6.43-12.35,2.62-2,6.29-3.76,9.15-2.06a7.49,7.49,0,0,1,2.87,3.79A18,18,0,0,1,1432,189c-4.3,4.61-10.81,6.57-17.11,6.88s-12.55-.84-18.82-1.51a125.22,125.22,0,0,0-55,6.91c-15.33,5.45-33.86,12.93-33.86,32"/><path class="cls-5" d="M1503.37,239.89a12.39,12.39,0,0,0,2.91,9.8"/><path class="cls-5" d="M1502.56,240.4l-11.11,5.4a38.7,38.7,0,0,0,3.79,9.45,1.51,1.51,0,0,0,.77.8,1.58,1.58,0,0,0,1.15-.28c3.69-2.05,7.34-4.15,10.95-6.33"/><path class="cls-5" d="M1496.05,245.91a40.44,40.44,0,0,0,2.46,8.14"/><path class="cls-5" d="M1503.32,241.59l5.82-1.73a4.06,4.06,0,0,1-3.79,6.26"/><path class="cls-4" d="M1395.82,181.13h-43.07a12,12,0,0,1-12-12V74.05a12,12,0,0,1,12-12h43.07a12,12,0,0,1,12,12v95.08A12,12,0,0,1,1395.82,181.13Zm6.53-21.72V90.47a12,12,0,0,0-12-12h-32.12a12,12,0,0,0-12,12v68.94a12,12,0,0,0,12,12h32.12A12,12,0,0,0,1402.35,159.41Z"/><path class="cls-5" d="M1354.5,154.79l9.47-.29a.24.24,0,0,1,.2.06.3.3,0,0,1,0,.19c.07,2.52,0,5.05-.1,7.56,0,.25,0,.54-.26.65a.61.61,0,0,1-.3,0l-8.4-.07-.45-7c.74.28,1.12,1.14,1.57,1.85a5.85,5.85,0,0,0,2.74,2.29.81.81,0,0,0,.57.06,1,1,0,0,0,.42-.4,25.61,25.61,0,0,1,4.15-4.65"/><path class="cls-5" d="M1374.76,156.06a2,2,0,0,0-1.81,1.35,6.31,6.31,0,0,0-.31,2.49,5.09,5.09,0,0,0,.75,3.1c1,1.25,2.87,1.08,4.24.35a2.15,2.15,0,0,1-1.1-2.75,1.87,1.87,0,0,1,2.67-.85,1.37,1.37,0,0,1,.41.45,1.61,1.61,0,0,1,.12.48,3.34,3.34,0,0,1-.49,2.37,1.63,1.63,0,0,1-2.07.55"/><path class="cls-5" d="M1374.58,154.68a2.58,2.58,0,0,0,.39,3.18.85.85,0,0,0,.58.27c.5,0,.71-.67.8-1.2a4.91,4.91,0,0,0,0-2.82c-.37-.87-1.52-1.39-2.18-.75"/><path class="cls-5" d="M1391.63,155.82a2.36,2.36,0,0,0-2.06,1.1,5.93,5.93,0,0,0-.83,2.32,2.75,2.75,0,0,0,0,1.21,1.71,1.71,0,0,0,1.28,1.17,2.56,2.56,0,0,0,1.75-.28,3.07,3.07,0,0,0,1.67-3.07,2.21,2.21,0,0,0-2.69-1.82"/><path class="cls-5" d="M1386.32,155.66q4.35-.24,8.72-.26v7.75l-10.24,0a.26.26,0,0,1-.31-.36l.52-4.43a5.15,5.15,0,0,1,.69-2.42"/><path class="cls-5" d="M1386.32,155.4a2,2,0,0,1,2.49-2.82l0,3"/><path class="cls-5" d="M1376.78,92.72q-13,16.45-24.61,34"/><path class="cls-5" d="M1387.54,93c-13.38,14.22-22.25,32.05-34.12,47.56"/><path class="cls-5" d="M1388.9,114.72a136.83,136.83,0,0,0-17.55,22.62"/><path class="cls-5" d="M1409.61,79.79a2.54,2.54,0,0,1,2.15.32c.77.68.52,1.92.27,2.92a22.77,22.77,0,0,0-.63,6.68.91.91,0,0,1-.09.57.84.84,0,0,1-.53.26l-3,.67"/><path class="cls-5" d="M1339.72,83.3c-.72-.16-1.72-.17-2,.53a1.6,1.6,0,0,0,0,.49l.11,10.27a1.9,1.9,0,0,0,.11.75c.36.77,1.5.64,2.32.39"/><path class="cls-5" d="M1409,99.52l2.11,0,0,4a.94.94,0,0,1-.18.68,1,1,0,0,1-.65.19l-1.9.07"/><circle class="cls-3" cx="1360.5" cy="71.5" r="3.5"/><rect class="cls-3" x="1369" y="69" width="19" height="4" rx="2"/><rect class="cls-3" x="1366" y="174" width="19" height="5"/><path class="cls-3" d="M1160.59,79.63c0,29.48-25,53.61-54.45,53.61s-51.5-24.13-51.5-53.61,21.5-53.38,51-53.38S1160.59,50.15,1160.59,79.63Z"/><path class="cls-5" d="M1054.64,83.07c34.14.88,70,1.22,104.15,1"/><path class="cls-5" d="M1105.62,26.88c-1.55,20.56-.28,41.21.22,61.83.43,17.79-.13,26.74.3,44.53"/><path class="cls-5" d="M1105.62,26.19c-11.6,3-18.54,8.85-22.66,20.15-7.34,20.19-7.56,43.44.36,63.5,4.29,10.87,14.25,16.18,22.82,23.4"/><path class="cls-5" d="M1105.62,25.51c10.06,2.49,15.94,10.88,19.27,20.16a142.79,142.79,0,0,1,7.44,36.9c.86,12.13-.91,23.93-8.09,34-4.43,6.17-11,14-18.1,16.72"/><path class="cls-5" d="M1054.64,76.63c11.63-15.93,30.43-22.23,50.14-23.06,11.07-.46,22.41.53,32.6,4.89s19.13,12.43,22.74,22.91"/><path class="cls-5" d="M1055,86.24c3.45,4.9,9.35,9.77,14.37,13,8.19,5.24,19.55,6.68,29,7.74,12.68,1.42,27.44,2,39.28-3.37,8.83-4,15.94-11,22.85-17.88"/><path class="cls-5" d="M1020.79,117.78c-.54-10.45,13.38-20.63,14.26-4.92,3.23-1,8.12-7.66,10.87-4.06,2.48,7.26,3.95,8.53,7.84,8.35a14.9,14.9,0,0,1,11.75,4.61c2.7,2.94,3.72,5.75-2.2,7.87-9.12-2.72-19.26,1-26.81-5.13-3.59-1.06-7.3-.84-11-.5C1021,125.68,1020.79,117.78,1020.79,117.78Z"/><path class="cls-5" d="M1139.74,131.33a13.38,13.38,0,0,1,11.86-9.74c1.53-.08,3.65,1,4.58-.23,10.57-13.67,20.11-5.86,21.52-6.83,7-4.78-5.47-6.84,3.7-10.36"/><path class="cls-5" d="M1168,87a15.33,15.33,0,0,1,7.42-5,3.62,3.62,0,0,1,2.13-.15c2.34.78,1.94,5,4.33,5.62a3.45,3.45,0,0,0,1.53-.07,15.44,15.44,0,0,1,3.37-.58,3.36,3.36,0,0,1,2.94,1.44c.54.92.4,2.12.9,3.07.74,1.41,2.57,1.82,3.72,2.93a5.23,5.23,0,0,1,1,5.37,14.75,14.75,0,0,1-3.14,4.78"/><path class="cls-5" d="M1168.91,87.13c3.14.46,5.7,2.68,8,4.91a13.19,13.19,0,0,1,3.41,4.66,4.93,4.93,0,0,1-1.06,5.37"/><path class="cls-5" d="M1171.71,100.07a21.29,21.29,0,0,1,7.71-5.46,3.26,3.26,0,0,1,2.83-.19,3.55,3.55,0,0,1,1.17,1.37l4.32,7.36"/><path class="cls-5" d="M1146.52,128.24c-.37.07.18-.43.49-.22,2.5,1.69,5.81,1.4,8.77.8a105.81,105.81,0,0,0,10.45-2.91c4.67-1.47,9.41-3,13.42-5.78s10.13-3.45,10.37-8.33"/><path class="cls-5" d="M1075.27,36.09a10.8,10.8,0,0,0-.79-3.41c-.22-.52-.56-1.08-1.12-1.17a1.75,1.75,0,0,0-1.32.57,17.63,17.63,0,0,0-3.27,3.73,3.39,3.39,0,0,0-3.41-2.77,6.63,6.63,0,0,0-4.29,2c-1.18,1.08-2.16,2.38-3.34,3.48a.87.87,0,0,1-.7.32c-.29,0-.45-.34-.62-.57-1.12-1.51-3.52-1-5.17-.12a18.17,18.17,0,0,0-5.74,4.9c-.65.86-1.17,2.25-.29,2.88l4.19.77c5.79-3,12.32-3.82,18.94-3.82A49.67,49.67,0,0,1,1075.27,36.09Z"/><path class="cls-5" d="M1024.52,104c.55-3.76,12.62-13.92,10.76-10.65-.65-3.64-1.25-11.73-5.9-11.68-10.72,4.46,1.79,12.14-8.46,8.27C1009.72,94.81,1016.77,134.38,1024.52,104Z"/><path class="cls-12" d="M1119.25,70.1c-5.58-7.35,10.33-16.24,9.25-5.6,2.33-7.63,12.1-21.72,14.19-6.18.29-11.31,15.45-16.1,15.13-1.93,3.46-2,11.09-7.37,10.93.4C1168.5,69.5,1125,72.67,1119.25,70.1Z"/><path class="cls-13" d="M1351.12,807.36a54.49,54.49,0,0,1,9.14-.71c4.7,0,8.14,1.09,10.33,3.06a9.89,9.89,0,0,1,3.23,7.71,10.83,10.83,0,0,1-2.85,7.87c-2.51,2.68-6.61,4.05-11.26,4.05a16,16,0,0,1-3.83-.33v14.77h-4.76Zm4.76,17.77a16.14,16.14,0,0,0,3.94.38c5.74,0,9.24-2.79,9.24-7.87,0-4.87-3.44-7.22-8.69-7.22a20,20,0,0,0-4.49.38Z"/><path class="cls-13" d="M1378.2,838.86a12.58,12.58,0,0,0,6.34,1.91c3.5,0,5.14-1.75,5.14-3.94s-1.37-3.55-4.92-4.86c-4.76-1.7-7-4.32-7-7.5,0-4.26,3.45-7.76,9.13-7.76a13.18,13.18,0,0,1,6.51,1.64l-1.2,3.5a10.3,10.3,0,0,0-5.42-1.53c-2.84,0-4.43,1.64-4.43,3.61,0,2.19,1.59,3.17,5,4.48,4.6,1.75,6.95,4.05,6.95,8,0,4.64-3.61,7.93-9.9,7.93a15,15,0,0,1-7.44-1.81Z"/><path class="cls-5" d="M1221.61,104.57c1.48,4.29,8.16,6,9.18,10.42-15.67,8.78-35.21,23.16-46.75,36.93a5.09,5.09,0,0,1-2.27,1.83,4.74,4.74,0,0,1-2.7-.25,64.35,64.35,0,0,1-18.49-9,5.9,5.9,0,0,0-3.29-1.45,5.42,5.42,0,0,0-2.26.7c-13.15,6.27-23.4,14.19-35.08,22.89,0,0,17.89,17.93,18.53,17.34,6.85-6.26,13.65-12.57,20.5-18.83a7.55,7.55,0,0,1,3.12-2c2-.5,4,.72,5.81,1.84a109.09,109.09,0,0,0,19.79,9.87,4.93,4.93,0,0,0,2.83.45,4.81,4.81,0,0,0,2.59-2.25c5.25-7.7,8.37-16.7,13.63-24.4,5.39-7.91,18.49-17,27.23-20.92a4.9,4.9,0,0,1,2.46-.6,5.13,5.13,0,0,1,2.22,1c6.13,4.16,6.78,11,12.91,15.21a50,50,0,0,1,19-43.43c-5.43-4.72-42.47,7.71-49,4.64"/><path class="cls-4" d="M1224.61,113.57a8.35,8.35,0,0,0,2.63,3.47c1.2-.71,2.39-1.4,3.55-2.05a5.27,5.27,0,0,0-.39-1C1227.78,114.16,1225.74,114.1,1224.61,113.57Z"/><path class="cls-4" d="M1273.6,108.93c-1.61-1.39-6-1.29-11.51-.53a50.12,50.12,0,0,0-10.52,35c-6.13-4.16-6.78-11.05-12.91-15.21a5.13,5.13,0,0,0-2.22-1,4.9,4.9,0,0,0-2.46.6c-8.74,3.9-21.84,13-27.23,20.92-5.26,7.7-8.38,16.7-13.63,24.4a4.81,4.81,0,0,1-2.59,2.25,4.93,4.93,0,0,1-2.83-.45,109.09,109.09,0,0,1-19.79-9.87c-1.77-1.12-3.78-2.34-5.81-1.84a7.55,7.55,0,0,0-3.12,2c-6.85,6.26-13.65,12.57-20.5,18.83-.38.35-12.29-10.9-17.48-16-1.15.86,3.12,6.77,2,7.64,0,0,17.89,17.93,18.53,17.34,6.85-6.26,13.65-12.57,20.5-18.83a7.55,7.55,0,0,1,3.12-2c2-.5,4,.72,5.81,1.84a109.09,109.09,0,0,0,19.79,9.87,4.93,4.93,0,0,0,2.83.45,4.81,4.81,0,0,0,2.59-2.25c5.25-7.7,8.37-16.7,13.63-24.4,5.39-7.91,18.49-17,27.23-20.92a4.9,4.9,0,0,1,2.46-.6,5.13,5.13,0,0,1,2.22,1c6.13,4.16,6.78,11,12.91,15.21A50,50,0,0,1,1273.6,108.93Z"/><path class="cls-5" d="M1271.46,93.37a5.39,5.39,0,0,1,5.69-4.83,6.74,6.74,0,0,1,5.75,5.24,6.63,6.63,0,0,1-.13,3.51,6.15,6.15,0,0,1-8.75,3.12"/><path class="cls-5" d="M1259.77,76.64a60.66,60.66,0,0,0,8,11.73"/><path class="cls-5" d="M1289.52,60a96.45,96.45,0,0,1-6.68,24.56"/><path class="cls-5" d="M1290.74,92.08A90.8,90.8,0,0,1,1309,96.33"/><path class="cls-5" d="M1285.17,107.37a95.76,95.76,0,0,0,2.73,9.71"/><path class="cls-5" d="M1274.46,110.84l-2,10.07"/><path class="cls-5" d="M1292.77,102.94a202.48,202.48,0,0,0,18.52,12.93"/><path class="cls-5" d="M1287.81,87a130.23,130.23,0,0,1,27.43-23"/><path class="cls-5" d="M1266.55,58.51l8.74,19.7"/><path class="cls-5" d="M1251.14,94.22a126.76,126.76,0,0,0,15.92,1.45"/><path class="cls-4" d="M1321.09,162.44q-1.17-4.14-2.27-8.31C1317.4,148.69,1316,134,1316,134a7.19,7.19,0,0,0,4.19-1.53,17.43,17.43,0,0,0,5.52-6.47,3.74,3.74,0,0,0,.52-1.82s-7.39,2.06-8.08,2.23a16.66,16.66,0,0,1-8.23.32c-.33,5.21,1.33,10.37,1.51,15.56a68.24,68.24,0,0,1-.17,8.09c-.2,2.46-.27,5.82-1.4,8,.28-.54-4.75-1.33-5.26-1.34a10.65,10.65,0,0,0-6,1.82,12.69,12.69,0,0,0-4.74,6.22,11.12,11.12,0,0,0-.46,6.45,10.8,10.8,0,0,0,4.55,6.15,16.85,16.85,0,0,0,13,2.28C1324,177,1321.77,164.81,1321.09,162.44Z"/><path class="cls-5" d="M1494.17,827.5c-10.9-.17-24.25,3.67-33.89,8.76a72.24,72.24,0,0,0-10.82,6.83c-10.36,8.12-17.25,20-21.31,32.56s-4.83,18.52-6,31.64"/><path class="cls-3" d="M1397.2,921.66c-1.63.17-2.34-2-2.47-3.63-.85-10.88-1.07-21,1.64-31.6,4.78-18.79,13.57-38.42,28.15-51.63,18.84-17.07,48.92-21.79,73.48-15.8,14.26,3.48,26.25,13,36,24,8,9,14.11,19.18,16,30,3,16.86,2.29,34,0,51-1.3,9.61-4,17-7.15,27.74-1.18,4,.85,8.51-.36,12.54-1.51,5-5.66,8.74-9.78,12-5,3.9-10.61,7.6-16.93,8a17.58,17.58,0,0,1-16.47-25.94c4.19-7.73,13.32-11.17,19.77-17.15,8.18-7.58,11.68-18.88,13.92-29.81,3.74-18.15-.69-58.93-28-76.32-33.8-21.53-55-12.45-60.94-9.18-40.06,22.18-50.18,71-46.34,93"/><path class="cls-5" d="M1437,912c-4.11-2.74-21-6.77-33.27,2.91-3.37,2.65-6.52,5.47-8.16,9.51C1391.5,934.51,1393,954,1412,969.73c22,18.27,45.88,9.68,48,4.27"/><path class="cls-5" d="M1496.61,987.62c-10.11,3.88-19.93.09-25.48-2.72-3.17-1.62-6.39-3.41-8.57-6.23a20.21,20.21,0,0,1-3.5-9.35,47.54,47.54,0,0,1,5.51-29.68,57.68,57.68,0,0,1,21.3-21.64,40.32,40.32,0,0,1,15.43-5.7,28.25,28.25,0,0,1,12.34,1.53c2.91.91,13.19,3.85,13.36,8.17l2,3c-2.62-2.75-10-7-17-6-7.15,1-10.35,1.78-16.66,5.29-5.54,3.08-11.14,8.27-15.53,12.85-6.18,6.45-9.46,15.19-11.31,23.93-1.07,5-1.66,10.58.8,15.11,2.79,5.13,8.72,7.62,14.35,9.16A62.11,62.11,0,0,0,1508,987c3.31-.37,6.94.93,9-1.7"/><path class="cls-5" d="M1518.46,984.9c7.22,8.83,20.4,7.45,31,3.14A27.63,27.63,0,0,0,1566,960.78c-.47-5.3-2.5-10.33-3.78-15.49a56,56,0,0,1,47.91-69.15c6-.69,12.25-.46,17.75-2.91,12.37-5.49,15.54-21.54,15.06-35.07-.46-13.13-4.17-28.13-16-33.85-2.75-1.34-6.13-2-8.8-.51s-3.83,4.75-4.1,7.79c-1.09,12.23,9.87,23.46,22.05,25s24.37-5.21,31.91-14.9c4.34-5.59,7.37-12.07,11.16-18,19.14-30.17,55.09-44.32,88.65-56.61"/><path class="cls-5" d="M1769.52,748.7a1.65,1.65,0,0,1-2.33-1.26,3,3,0,0,1,1.26-2.23,17.71,17.71,0,0,1,9.6-4.35,1.24,1.24,0,0,1,.74.07,1,1,0,0,1,.38.41,2.17,2.17,0,0,1-.1,2.25,4,4,0,0,1-1.31,1.08,52.16,52.16,0,0,1-9,4.36"/><path class="cls-5" d="M1778.54,741.59q3.36-1.44,6.81-2.67"/><path class="cls-2" d="M1490,939s-11,11-13,31l-6,1s0-10,3-18c3.78-10.08,12-17,12-17Z"/><path class="cls-5" d="M1435.43,980.42A46.57,46.57,0,0,1,1412,969.73c-16.12-13.38-19.62-29.46-17.8-40.19h0S1382,938,1392,957s27,26,32,26,11.44-2.57,11.44-2.57Z"/><path class="cls-5" d="M1464.57,939.64c.2-.37.42-.73.63-1.09a45.77,45.77,0,0,0-11.64-16.49c-13.84-12.7-32-15.41-40.6-6s-4.35,27.23,9.48,39.93c11.79,10.82,26.73,14.38,36.2,9.41A48.24,48.24,0,0,1,1464.57,939.64Z"/><g class="cls-14"><line class="cls-15" x1="1433.73" y1="920" x2="1419.33" y2="937.02"/><line class="cls-15" x1="1437.14" y1="923.38" x2="1422.73" y2="940.41"/><line class="cls-15" x1="1440.55" y1="926.77" x2="1426.14" y2="943.79"/><line class="cls-15" x1="1443.95" y1="930.15" x2="1429.55" y2="947.18"/><line class="cls-15" x1="1447.36" y1="933.53" x2="1432.96" y2="950.56"/><line class="cls-15" x1="1450.77" y1="936.92" x2="1436.37" y2="953.94"/><line class="cls-15" x1="1454.18" y1="940.3" x2="1439.78" y2="957.33"/><line class="cls-15" x1="1457.59" y1="943.69" x2="1443.19" y2="960.71"/><line class="cls-15" x1="1461" y1="947.07" x2="1446.6" y2="964.09"/><line class="cls-15" x1="1434" y1="920" x2="1461" y2="947"/><line class="cls-15" x1="1431.5" y1="922.5" x2="1458.5" y2="949.5"/><line class="cls-15" x1="1429" y1="925" x2="1456" y2="952"/><line class="cls-15" x1="1426.5" y1="927.5" x2="1453.5" y2="954.5"/><line class="cls-15" x1="1424" y1="930" x2="1451" y2="957"/><line class="cls-15" x1="1421.5" y1="932.5" x2="1448.5" y2="959.5"/><line class="cls-15" x1="1419" y1="935" x2="1446" y2="962"/></g><path class="cls-2" d="M1487.58,934.33s3.33-4.67,6.65-5.82l2.81,2.74a30.7,30.7,0,0,0-3.37,3.3,17.3,17.3,0,0,0-2.48,3.1Z"/><path class="cls-6" d="M1592.93,861.17c-8.83,0-17.67.28-26.5.29h-6.63c-.25,0-.58,0-.93,0l-1-.06a15,15,0,0,1-2-.38,14.38,14.38,0,0,1-3.76-1.54,15,15,0,0,1-5.58-5.75,15.33,15.33,0,0,1-1.41-3.81,15,15,0,0,1-.3-2l0-1c0-.34,0-.57,0-.86l.1-26.5,0-6.63a19.37,19.37,0,0,1,.29-3.78,14.08,14.08,0,0,1,1.31-3.79,14.53,14.53,0,0,1,2.28-3.27,13.86,13.86,0,0,1,3.08-2.53,14.51,14.51,0,0,1,7.61-2.16l26.51.11,6.62,0c.26,0,.58,0,.92,0l1,.06a16.33,16.33,0,0,1,2,.37,13.72,13.72,0,0,1,3.66,1.48,14.61,14.61,0,0,1,5.46,5.6,14.9,14.9,0,0,1,1.39,3.7,16.55,16.55,0,0,1,.29,2l0,1c0,.34,0,.57,0,.86l0,26.5,0,6.63a18.92,18.92,0,0,1-.26,3.76,14.51,14.51,0,0,1-3.53,7,13.56,13.56,0,0,1-3,2.54A14.47,14.47,0,0,1,1592.93,861.17Zm0-4.95a9.66,9.66,0,0,0,8.54-5.25,9.86,9.86,0,0,0,.86-2.48,14.19,14.19,0,0,0,.19-2.84l0-6.63,0-26.5c0-.26,0-.58,0-.8l0-.66a10,10,0,0,0-.19-1.32,10.61,10.61,0,0,0-.93-2.48,9.92,9.92,0,0,0-3.68-3.76,9.09,9.09,0,0,0-2.46-1,9.31,9.31,0,0,0-1.3-.24c-.22,0-.44,0-.66,0a5.59,5.59,0,0,0-.74,0H1586l-26.51.11a9.55,9.55,0,0,0-9.27,7.74,14.88,14.88,0,0,0-.16,2.82l0,6.63.1,26.5c0,.26,0,.59,0,.8l0,.64a11,11,0,0,0,.2,1.26,10.3,10.3,0,0,0,.9,2.39,9.54,9.54,0,0,0,3.56,3.6,8.78,8.78,0,0,0,2.36.95,10.21,10.21,0,0,0,1.25.23l.63,0,.72,0h6.63C1575.26,855.94,1584.1,856.19,1592.93,856.22Z"/><path class="cls-6" d="M1592.79,831.32a16.59,16.59,0,0,1-1.43,6.29,16.21,16.21,0,0,1-3.7,5.18,17,17,0,0,1-11.47,4.59,16.54,16.54,0,0,1-16.61-16.06,16.78,16.78,0,0,1,4.62-12,17,17,0,0,1,5.45-3.79,17.29,17.29,0,0,1,6.54-1.37,16.74,16.74,0,0,1,6.55,1.32,16.72,16.72,0,0,1,10,15.83Zm-3.09,0a13.17,13.17,0,0,0-4.23-9.28,13.84,13.84,0,0,0-9.28-3.69,13.44,13.44,0,0,0-13.51,13,13.56,13.56,0,0,0,18.88,13,13.65,13.65,0,0,0,8.14-13Z"/><path class="cls-6" d="M1596,810.79a3.48,3.48,0,0,1-6,2.63,3.5,3.5,0,0,1,.19-5.07,3.54,3.54,0,0,1,5.8,2.44Zm-1.23,0a2.08,2.08,0,0,0-.53-1.6,2,2,0,0,0-1.6-.59,2,2,0,0,0-1.85,2.19,2,2,0,0,0,4,0Z"/><path class="cls-16" d="M1587.09,914.29c-1.77-1.49-3-2.57-5.25-2.2a8.21,8.21,0,0,0-5.57,3.77,11.53,11.53,0,0,0-1.43,4.81c-.27,2.84.37,6.18,2.87,7.57a7.45,7.45,0,0,0,3.85.71,10.72,10.72,0,0,0,4.61-1,17.88,17.88,0,0,0,3.56-3.24,93.87,93.87,0,0,0,3-20.41,2.15,2.15,0,0,1,.41-1.46,2.18,2.18,0,0,1,1.13-.49l9.21-2a1.25,1.25,0,0,1,.69,0c.42.16.54.68.59,1.13,1,7.88,2.45,19,2.36,27l.09.07c-5.26.33-11.41,1.18-14,5.8-2.19,4-.36,9.36,3.42,11.85s8.89,2.34,13,.37q.58-25.41,1.18-50.84c0-1.65-.12-3.65-1.59-4.4a4.76,4.76,0,0,0-3.16,0,41.9,41.9,0,0,1-19.91-.42,109.58,109.58,0,0,1,.74,23.53"/><rect class="cls-5" x="1090.26" y="888.81" width="78.82" height="80.08" rx="12"/><path class="cls-4" d="M1146.61,934.27a63.6,63.6,0,0,0-7.39-4.8c.63.37,3.34-5,3.52-5.47a19.59,19.59,0,0,0,1-7.13,14.18,14.18,0,0,0-.51-3.78,12.62,12.62,0,0,0-3.54-5.19,24.47,24.47,0,0,0-6.09-4.24,14.61,14.61,0,0,0-16.29,1.74,15.3,15.3,0,0,0-3.14,19.26c1.61,2.58,4.32,4.75,7.37,4.72l0,.06a50.53,50.53,0,0,0-9.21,5.46,15.07,15.07,0,0,0-3.3,2.8,13.61,13.61,0,0,0-2.19,4.78,62.38,62.38,0,0,0-2.39,13.76s35.43-2,51.18-.56c.49-9.08-1.31-15.13-8.65-21.11Z"/><rect class="cls-5" x="1179.23" y="894.97" width="39.08" height="39.7" rx="5.31"/><path class="cls-17" d="M1191.31,916.52a10,10,0,0,1,3.19-1.88c-.5.18-1.49-2.8-1.57-3.17a7.44,7.44,0,0,1,.18-4,7.28,7.28,0,0,1,5.3-4.7,6.44,6.44,0,0,1,6.32,2.5c2.23,3.05,2.14,7.9-2.28,9.67,4.42,1.77,6.8,6.73,6,11.64l-21.21-.09A11.9,11.9,0,0,1,1191.31,916.52Z"/><circle class="cls-5" cx="1445.79" cy="134.96" r="25.64"/><path class="cls-5" d="M1437.15,110l-.27-2.68"/><path class="cls-5" d="M1441.67,108.58a45.61,45.61,0,0,1,2-4.78"/><path class="cls-5" d="M1448.9,109a18.56,18.56,0,0,1,7.89-3"/><path class="cls-5" d="M1457.07,112.31l3.39-.06"/><path class="cls-5" d="M1438.37,135.11l.35-6.09c.08-1.47.11-3.1-.87-4.2a1.13,1.13,0,0,0-1.18-.44c-.45.17-.59.73-.65,1.21a16.94,16.94,0,0,0,1.72,9.59"/><path class="cls-5" d="M1453.42,135.11l.36-6.09c.08-1.47.11-3.1-.87-4.2a1.15,1.15,0,0,0-1.19-.44c-.45.17-.58.73-.64,1.21a16.85,16.85,0,0,0,1.72,9.59"/><path class="cls-5" d="M1435.14,144.24c1.23,2.57,4.13,3.84,6.88,4.59,3.29.9,6.93,1.33,10-.17a17.54,17.54,0,0,0,5.09-4.48"/><path class="cls-5" d="M1436.05,142.44a13.45,13.45,0,0,1-2.12,3"/><path class="cls-5" d="M1456.14,143.11a4.63,4.63,0,0,0,3.46,2.37"/><path class="cls-18" d="M1529,812c3-.35,7-1,7-9,0-5-5.91-5.91-7.36-4.6,1.07-5.48,1.07-11.47-1.74-16.3-1.33-2.28-3.52-4.33-6.15-4.39a7,7,0,0,0-5.56,3.11,20.91,20.91,0,0,0-2.68,6,8.61,8.61,0,0,0-1.85-5.26,5,5,0,0,0-5.1-1.68A11.14,11.14,0,0,0,1501,783c-2.44,3.31-3,6.84-4,10.83-.48-2.2-4-2.17-5.31-.32s-.89,4.35-.32,6.52c0,0,1.65,3,8.65,2s7,2,12,4a60.7,60.7,0,0,0,10.1,2.84l.9.16S1525.69,812.38,1529,812Z"/><path class="cls-18" d="M1543,365c3-.35,7-1,7-9,0-5-5.91-5.91-7.36-4.6,1.07-5.48,1.07-11.47-1.74-16.3-1.33-2.28-3.52-4.33-6.15-4.39a7,7,0,0,0-5.56,3.11,20.91,20.91,0,0,0-2.68,6,8.61,8.61,0,0,0-1.85-5.26,5,5,0,0,0-5.1-1.68A11.14,11.14,0,0,0,1515,336c-2.44,3.31-3,6.84-4,10.83-.48-2.2-4-2.17-5.31-.32s-.89,4.35-.32,6.52c0,0,1.65,3,8.65,2s7,2,12,4a60.7,60.7,0,0,0,10.1,2.84l.9.16S1539.69,365.38,1543,365Z"/><path class="cls-5" d="M1324.85,921.79l4.36-.69c-12.88,27.6-22.07,41.47-34.26,80.22"/><path class="cls-3" d="M1323.69,922.13a907.64,907.64,0,0,1-80.26,43.44,6.83,6.83,0,0,1-7.71.15l-40.16-19.53.12-.67c40.18-6.18,88.43-17.21,129.17-23.73Z"/><path class="cls-3" d="M1296,1001.68c-11.47-2.41-34.37-11.2-39.86-21.55,23.71-16.49,40.66-41.49,65-57.09l7.91-2Z"/><path class="cls-4" d="M1257.63,982.07c-5.67,7.78-11.15,15.36-16.82,23.14-.85-12.47-1.88-24.72-2.73-37.19l81.53-43.65Z"/><path class="cls-5" d="M1193.42,961.32c-15.49,6.79-26.48,21.3-33,36.92-3.9,9.39-6.43,19.87-3.86,29.71,2.4,9.22,9,16.75,16,23.24a150.53,150.53,0,0,0,76.28,37.84"/><path class="cls-5" d="M1279.15,1003.83c-2.88,3-5.92,6.35-6.33,10.5-.36,3.72,1.52,7.3,3.76,10.3,9.1,12.19,24.4,18.2,39.39,20.78"/><path class="cls-5" d="M1239,1027.11c-1.2,8.13,3.85,15.84,9.4,21.91a99.12,99.12,0,0,0,39.32,26.19"/><path class="cls-5" d="M1219.29,976.36c-7.89,7.07-15,15.29-19.13,25.07s-4.78,21.34-.1,30.85c2.67,5.42,6.88,9.89,11,14.27"/><path class="cls-5" d="M1265.36,997.88a66.2,66.2,0,0,0-6.07,13.13,25.19,25.19,0,0,0-.52,14.28c2.51,8.61,10.52,14.25,18,19.2"/><path class="cls-5" d="M1359.3,988.54l-10.18.93a2.69,2.69,0,0,1-1.69-.22,1.81,1.81,0,0,1-.3-2.48,4.71,4.71,0,0,1,2.27-1.55,12.6,12.6,0,0,1,6.89-1.11c2.31.42,4.53,2.13,4.91,4.45"/><path class="cls-5" d="M1373.63,1025.9c9.12,8.4,18.31,16.86,28.84,23.4,2.73,1.69,6,3.3,9,2.15s4.53-5.13,3.91-8.43-2.77-6.1-5-8.66a118.69,118.69,0,0,0-27.57-23.67"/><path class="cls-4" d="M1337.46,963c-2.51-9-2.15-20.83-13.78-12.1C1328.5,963.06,1328.28,972.05,1337.46,963Z"/><path class="cls-4" d="M1360.14,958.88q.78-9.5,1.11-19a1,1,0,0,0-.1-.54c-.19-.27-.58-.25-.9-.2l-10.77,1.68a.65.65,0,0,0-.66.86,87.65,87.65,0,0,1-.89,19.62l-.09.09,11.84.71Z"/><path class="cls-4" d="M1376.65,965.52c5.49-7.54,8.2-16.47-3.92-13.61-1.83,3.83-2.16,8.23-3.57,12.11C1371.72,965,1374,970,1376.65,965.52Z"/><path class="cls-5" d="M1650.45,777c-.68,6.86-2.86,13.47-4.29,20.21a1.43,1.43,0,0,0,.1,1.17c.44.56,1.34.16,2-.22,4.74-2.95,9.93-3.43,14.79-6.18"/><path class="cls-4" d="M1713,734a19.45,19.45,0,0,1,3.85-2.94,1.92,1.92,0,0,1,.83-.26,1.82,1.82,0,0,1,1,.43c4,3,6.69,8.74,7.08,13.73a40.39,40.39,0,0,0-5.81,2.31"/><path class="cls-3" d="M1660.94,778.76c-.92,1.3-2.39,5.06-2.1,5.32s4,.16,4.18.31-.3,5.48-.51,7.92c0,0,37.86-28.28,56.18-42.68a3.29,3.29,0,0,0,1.22-1.4,3.46,3.46,0,0,0,0-1.6l-.75-5s-4.32-5-7.27-7.61a2.39,2.39,0,0,0-3.64-.26q-29.57,19.68-57.62,41.54S1658.09,779.16,1660.94,778.76Z"/><path class="cls-5" d="M1694.09,751.48c6.94-5.91,13.08-9.8,20.91-14.48"/><path class="cls-5" d="M1689.3,757.25a60,60,0,0,1-9.45,6.69"/><path class="cls-5" d="M1645.69,795.7a7.12,7.12,0,0,1,5.18-2.61,1.8,1.8,0,0,1-.72,2.17,5.2,5.2,0,0,1-2.35.74,1,1,0,0,1-.76-.07c-.56-.36.23-1.34.81-1a1.14,1.14,0,0,1,0,1.73,3.22,3.22,0,0,1-1.85.66,2,2,0,0,1,1-1.62"/><path class="cls-6" d="M1647.86,798.51a111,111,0,0,1-14-.61c-1.18-.14-2.26-.22-3.56-.47a7.24,7.24,0,0,1-3.93-1.91,4.39,4.39,0,0,1-1.16-2.45,5,5,0,0,1,.4-2.59,10.91,10.91,0,0,1,2.46-3.31h0l-.51,1.83a1,1,0,0,0,.23.39.44.44,0,0,0,.17.12.73.73,0,0,0-.29-.07c-.14,0-.48,0-.77,0H1626a35.39,35.39,0,0,0-3.55.21,58.72,58.72,0,0,0-7.11,1.22c-4.75,1.07-9.47,2.56-14.37,3.69-.61.14-1.22.29-1.84.41l-.93.19-.46.1c-.17,0-.36.07-.56.09a5.09,5.09,0,0,1-1.36,0,3.1,3.1,0,0,1-1.73-.8,2.83,2.83,0,0,1-.88-1.95,3.7,3.7,0,0,1,.36-1.65,5.56,5.56,0,0,1,.68-1.1c.12-.16.24-.3.37-.45l.33-.35c.43-.46.85-.94,1.29-1.39.88-.91,1.78-1.8,2.69-2.67a143.27,143.27,0,0,1,11.49-9.66l5.86-4.55,1.44-1.14.73-.57a5.11,5.11,0,0,0,.5-.44,1.4,1.4,0,0,0,.23-.29c0-.05-.07,0-.06.31a.88.88,0,0,0,.23.54c.06.07,0,0-.18-.06a8.34,8.34,0,0,0-2.84-.47c-1.1,0-2.36.07-3.55.11-2.41.15-4.82.35-7.2.69a75.88,75.88,0,0,0-27,9.08,4.4,4.4,0,0,1-4.37-7.63,4.46,4.46,0,0,1,.78-.35l.06,0a122.78,122.78,0,0,1,30.06-6.06c2.53-.17,5.06-.28,7.6-.29,1.28,0,2.49,0,3.85.09a12.23,12.23,0,0,1,4.39,1,4.72,4.72,0,0,1,1.39.93,3.38,3.38,0,0,1,1,2.17,3.57,3.57,0,0,1-.53,2.07,5,5,0,0,1-.93,1.16,8.7,8.7,0,0,1-.91.75l-.75.55-1.51,1.1-6,4.34a138.32,138.32,0,0,0-11.43,9.15c-.88.83-1.75,1.67-2.6,2.53a15,15,0,0,0-2.08,2.36c-.07.13-.06.2-.07.13a.42.42,0,0,0-.14-.3c-.1-.09-.16-.08-.06-.06a1.63,1.63,0,0,0,.49,0l.35-.05.45-.09.89-.17c.59-.12,1.18-.27,1.77-.4,4.74-1.09,9.46-2.56,14.35-3.75a70.36,70.36,0,0,1,7.47-1.42c1.27-.17,2.55-.27,3.84-.34l1,0a7.71,7.71,0,0,1,1.08,0,4.21,4.21,0,0,1,1.51.35,3.06,3.06,0,0,1,.93.63,2.82,2.82,0,0,1,.69,1.18,1.86,1.86,0,0,1-.51,1.84h0a7.91,7.91,0,0,0-1.82,2.07,1.6,1.6,0,0,0-.22.78,1.08,1.08,0,0,0,.24.64,4.34,4.34,0,0,0,2.19,1.12c1,.25,2.17.44,3.27.63a109,109,0,0,0,13.62,1.42,1,1,0,0,1,0,2Z"/><rect class="cls-5" x="1338.01" y="789.87" width="67.07" height="68.14" rx="12"/><path class="cls-4" d="M1393.09,858H1350a12,12,0,0,1-12-12V801.87a11.91,11.91,0,0,1,1.76-6.2,12,12,0,0,0-7.76,11.2V851a12,12,0,0,0,12,12h43.08a12,12,0,0,0,10.24-5.79A12,12,0,0,1,1393.09,858Z"/><path class="cls-19" d="M1351.73,808.06a2.85,2.85,0,0,1,1.71-.56c1.86-.23,3.73-.38,5.6-.43a23.1,23.1,0,0,1,7.89.84,10.72,10.72,0,0,1,5.17,3.48c3.09,4,2.59,10.66-.83,14.31-2.52,2.68-6.62,4-11.27,4a16.65,16.65,0,0,1-3.83-.32c0,4.85.53,10,0,14.84a33.85,33.85,0,0,0-4.73-.08q0-11.19,0-22.39V810.45C1351.41,809.18,1351.33,808.48,1351.73,808.06Zm4.67,17.32a1,1,0,0,0,.35.28c.94.52,3.14.18,4.18.09,2.58-.24,5.38-1.07,7-3.21a7.3,7.3,0,0,0,1.39-4.5c0-4.87-3.44-7.22-8.69-7.22a20.61,20.61,0,0,0-4.49.38c-1.51.41-.19,10.92-.1,12.28C1356.12,824.25,1356,824.92,1356.4,825.38Z"/><path class="cls-19" d="M1378.53,839.44a.36.36,0,0,1,.23,0c2.78.79,5.63,2.55,8.58,1.34a4.33,4.33,0,0,0,2.56-2.76c.85-3.13-2.48-4.79-4.85-5.66-4.76-1.7-7-4.32-7-7.49,0-3.6,2.34-6.18,5.7-7.17,1.55-.46,9.7-1.36,9.92,1.31.07.94-.84,2.33-1.17,3.21-2.06-1.09-4.74-2-7.06-1.29a3.61,3.61,0,0,0-2.58,4.64c.73,1.83,3.15,2.6,4.82,3.23,3.69,1.41,7.66,4.85,7,9.22-.77,4.77-5.6,6.7-9.91,6.7a16.58,16.58,0,0,1-7.44-1.82c.09.05,1-3,1.1-3.23A.35.35,0,0,1,1378.53,839.44Z"/><rect class="cls-4" x="1191.55" y="1.44" width="67.07" height="68.14" rx="12"/><path class="cls-3" d="M1246.62,69.58h-43.07a12,12,0,0,1-12-12V13.44a11.88,11.88,0,0,1,1.76-6.21,12,12,0,0,0-7.76,11.21V62.58a12,12,0,0,0,12,12h43.07a12,12,0,0,0,10.25-5.8A11.8,11.8,0,0,1,1246.62,69.58Z"/><rect class="cls-3" x="1433.73" y="1005.56" width="67.07" height="68.14" rx="12"/><path class="cls-4" d="M1495.8,1001.56h-43.07a12,12,0,0,0-9.09,4.2,11.94,11.94,0,0,1,2.09-.2h43.07a12,12,0,0,1,12,12v44.14a12,12,0,0,1-2.92,7.81,12.05,12.05,0,0,0,9.92-11.81v-44.14A12,12,0,0,0,1495.8,1001.56Z"/><path class="cls-6" d="M1450.72,1049c-1.9,7.11-.72,8.11-8.4,7.68a1,1,0,0,1-.91-1.29l9.35-30.6a1,1,0,0,1,1-.7h8.13a1,1,0,0,1,1,.7l9.53,30.59a1,1,0,0,1-.91,1.3c-7.79.42-6.82-.4-8.91-7.7a1,1,0,0,0-1-.72h-7.85A1,1,0,0,0,1450.72,1049Zm8.08-7.52c-3.91-13.54-2.69-13.51-6.46,0a1,1,0,0,0,1,1.27h4.54A1,1,0,0,0,1458.8,1041.43Z"/><path class="cls-6" d="M1479.78,1049.35c2.23,2.78,9.45,1.59,12.44,1.32a1,1,0,0,1,1.11,1.27c-2.18,8.85-22.26,5.71-21.48-6.42,1-15.21,23.3-17.82,23.15,1.14a1,1,0,0,1-1,1h-13.34A1,1,0,0,0,1479.78,1049.35Zm8.39-8c-.35-4.87-8.06-4.78-9-.12a1,1,0,0,0,1,1.19h6.93A1,1,0,0,0,1488.17,1041.38Z"/><path class="cls-3" d="M1355.91,886.18a10.34,10.34,0,0,0-4.72,1.18,44.27,44.27,0,0,0,5.6-5.85l8.25-9.77a61.23,61.23,0,0,0,17.06,13.32,39.08,39.08,0,0,0-9.07,1.16,88.22,88.22,0,0,0,8,23,1.5,1.5,0,0,1,.24.71c0,1.3-4.48,3.26-6,3.71a49.46,49.46,0,0,1-14.35,2c-1.18,0-2.58-.19-3.13-1.23a3.37,3.37,0,0,1-.27-1.64V885.66"/><path class="cls-5" d="M1362.84,912a5.82,5.82,0,0,1,2.08-1.19,30.14,30.14,0,0,1,12.15-1.9"/><path class="cls-4" d="M1338.67,8H1372a3,3,0,0,1,3,3V28.5A19.5,19.5,0,0,1,1355.5,48h0A19.5,19.5,0,0,1,1336,28.5V10.67A2.67,2.67,0,0,1,1338.67,8Z"/><path class="cls-4" d="M1283.67,8H1317a3,3,0,0,1,3,3V28.5A19.5,19.5,0,0,1,1300.5,48h0A19.5,19.5,0,0,1,1281,28.5V10.67A2.67,2.67,0,0,1,1283.67,8Z"/><path class="cls-5" d="M1283.18,11.93a382.91,382.91,0,0,1,41.76-1.35"/><path class="cls-5" d="M1320.66,10.89c-.25,0-.29-.41-.11-.59a1,1,0,0,1,.71-.18l7.13,0a26.39,26.39,0,0,1,5.89.42,1.09,1.09,0,0,1,.8.45,1.14,1.14,0,0,1,.06.71l-.56,4.65,1.28.2a131.44,131.44,0,0,1-15.63-.45"/><path class="cls-6" d="M1299.42,11.79a2,2,0,0,1-.64-3.9l31.09-10.57c7.8-2.66,15.88-5.4,24.43-5.73a4.92,4.92,0,0,1,3.06.7,4.92,4.92,0,0,1,1.58,2l2.45,5A2,2,0,1,1,1357.81,1l-2.45-4.95c-.07-.13-.19-.36-.27-.48a3.9,3.9,0,0,0-.64,0c-8,.3-15.76,3-23.29,5.51l-31.09,10.58A2.11,2.11,0,0,1,1299.42,11.79Z"/><path class="cls-20" d="M1288.75,15.68a21.57,21.57,0,0,0-2.73,5.37"/><path class="cls-20" d="M1298.57,15.43a61.63,61.63,0,0,0-11.84,16.69"/><path class="cls-20" d="M1309.14,16.36l-18.07,22.19"/><path class="cls-20" d="M1313.15,27c-3.41,4.05-6.63,8.27-9.64,12.62"/><path class="cls-20" d="M1346.53,16.29l-4.73,6.2"/><path class="cls-20" d="M1361,15.55,1345,35.14"/><path class="cls-20" d="M1371.06,18.11l-19.47,23.81"/><path class="cls-20" d="M1366.74,35.63l-5,6.55"/><rect class="cls-4" x="1318" y="10" width="18" height="7"/><path class="cls-6" d="M1428.58.6l-1-1.76c-.69-1.19-1.38-2.38-2.1-3.55A4.42,4.42,0,0,0,1422.11-7a6.89,6.89,0,0,0-3.21.65l-.47.18c-3.84,1.34-7.78,2.59-11.7,3.72s-7.82,2.14-11.74,3c-1.53.35-3.07.66-4.6,1-2.1.43-4.28.87-6.42,1.41-4.86,1.22-8.41,2.9-11.18,5.3a2.89,2.89,0,0,0-.24,4.21,3.17,3.17,0,0,0,4.44.27c3.61-3.12,8.85-4.13,13.92-5.11,1.23-.24,2.45-.48,3.64-.74A229.45,229.45,0,0,0,1416.87.8l3-1,.92-.33.21.4c.18.35.35.68.54,1l1.62,2.75a3,3,0,0,0,2.65,1.52h0a3.2,3.2,0,0,0,2.74-1.53A2.89,2.89,0,0,0,1428.58.6ZM1424.25,3h0Z"/><path class="cls-3" d="M1384.47,47.34q17.43.52,34.86.33l-1.83,1.49a9.85,9.85,0,0,0,4.88-1c1.44-.87,2.35-2.84,1.51-4.29a3.34,3.34,0,0,0-3.24-1.38,9.7,9.7,0,0,0-3.46,1.3,15.66,15.66,0,0,0-1-14.94,6.14,6.14,0,0,0-2.37-2.32c-1.84-.89-4.14-.14-5.64,1.25a15.44,15.44,0,0,0-3.22,5.17,13.17,13.17,0,0,0-1.53-5,4.55,4.55,0,0,0-4.41-2.3,5.05,5.05,0,0,0-2.28,1.21c-4.47,3.8-4.85,10.58-3.71,16.33.36-1.87-1.42-3.68-3.31-3.79a5.7,5.7,0,0,0-4.78,2.64,17,17,0,0,0-2.14,5.26Z"/><path class="cls-4" d="M1570.33,327.06l14.14-.18a38.34,38.34,0,0,0,1.28,9.91,196.43,196.43,0,0,1,4.07,33.75,3.15,3.15,0,0,1-.2,1.46,2.73,2.73,0,0,1-1.32,1.11,21.13,21.13,0,0,1-6.72,1.67c-4.22.55-8.47.91-12.72,1.08a2.93,2.93,0,0,1-1.83-.32,2.82,2.82,0,0,1-.86-1.25,48.77,48.77,0,0,1-3.06-12.6c-1.56-10.93-2.59-22.16-.15-32.93a2.46,2.46,0,0,1,.52-1.2,2.38,2.38,0,0,1,1.3-.55,20.48,20.48,0,0,1,5.36-.29Z"/><path class="cls-5" d="M1591.43,371.7c3.5-1.24,7.4-.48,10.89.8s6.8,3.06,10.42,3.9a41.11,41.11,0,0,0,7.51.82c14.09.63,41.18-5,41.18-5,6.54-2.9,3.57-11.19,2.76-14.57,8.81-10.62.61-15.91.61-15.91S1670,327.33,1660,322c15.66-24.77-31.31-11.93-43.63-11.51-3.51-9.69-1.16-23.89-8.15-33.8-22.16-10.63-2.76,48.57-23.88,52.39"/><path class="cls-10" d="M1579.09,360.83a6,6,0,0,0-6,1.23,4.69,4.69,0,0,0-.66,5.88,3.87,3.87,0,0,0,5.63.6,5.67,5.67,0,0,0,1.33-3.12,5.37,5.37,0,0,0-.2-3.13,2.39,2.39,0,0,0-2.55-1.46"/><path class="cls-21" d="M1212.37,45.11l-2.76,8.37a1.84,1.84,0,0,1-1.74,1.26h-3.27c15.14-46.43,13.66-46.17,28.8,0-6,1.87-6.47-5.34-7.93-9.61a1.81,1.81,0,0,0-1.71-1.23H1214A1.75,1.75,0,0,0,1212.37,45.11Zm11.14-6.25c-6.09-18-3.17-17.46-9.17-.24a1.36,1.36,0,0,0,1.28,1.82h6.76A1.19,1.19,0,0,0,1223.51,38.86Z"/><path class="cls-21" d="M1243.15,23.08c-.65,4.42-5.73,3.68-5.56,0C1237.45,19.44,1243.35,19.41,1243.15,23.08Zm-4.86,31.52a.84.84,0,0,1-.13-.53c0-5,.34-9.53.34-14.57,0-2.9-.32-6.36-.36-9.27a.24.24,0,0,1,0-.16.22.22,0,0,1,.16,0c.6,0,4.3-.26,4.3.27,0,7.73,0,15.47,0,23.21a1.33,1.33,0,0,1-1.35,1.33c-1.06,0-2.38-.1-2.58-.1a.77.77,0,0,1-.34-.07Z"/><ellipse class="cls-22" cx="1596.3" cy="719.4" rx="10.51" ry="5.5" transform="translate(235.33 1820.97) rotate(-63.25)"/><circle class="cls-23" cx="1633.5" cy="719.5" r="2.5"/><circle class="cls-5" cx="1515" cy="560" r="2"/><circle class="cls-5" cx="1541" cy="562" r="2"/><path class="cls-24" d="M1569.67,543c14.68,1.25,30.57,3.63,43.32,10.93.63,29.15-26.85,25.17-49.15,19.82C1557,564.72,1558.51,546.72,1569.67,543Z"/><path class="cls-4" d="M1575.42,611.92a68.64,68.64,0,0,1-33.29,10.42c-19.13.66-37.67-3.11-43.9-6.22S1490,611,1490,611c.91,5,4,11.5,6.28,16,3.82,7.43,6.94,12,14.72,15,4.84,1.88,15.83,3.55,21,3,10.47-1.12,17.1-2.31,26-7.93s16-14.72,17.41-25.15"/><path class="cls-3" d="M1512.91,740.29c-.37.17-30.12-15-32.85-45.17-1.79-19.59,4.34-43.58,13.7-60.71a14.26,14.26,0,0,1,3.54-4.62,5.53,5.53,0,0,1,5.5-.92,5.41,5.41,0,0,1,2.73,5.38,11.91,11.91,0,0,1-2.52,5.82c-5.72,8-9.69,15.11-11.78,24.86a70.1,70.1,0,0,0-.32,28.05c2.78,14.33,11.15,33.8,25.71,39.32C1516.62,732.3,1518.81,737.59,1512.91,740.29Z"/><path class="cls-3" d="M1598.46,718.18a55.87,55.87,0,0,1-46-44.78c-2.23-11.65.41-23.73,3.24-35,.45-1.82.81-4-.51-5.35a2.84,2.84,0,0,0-3.68-.2,5.22,5.22,0,0,0-1.12,1.43c-8.15,13.57-9.73,30.41-5.91,45.77,6.47,26,36.29,39.78,40.47,42a26.51,26.51,0,0,0,12,2.94l0,0A6.21,6.21,0,0,0,1598.46,718.18Z"/><path class="cls-6" d="M1255,255a41,41,0,0,1-31.83-66.83,41,41,0,1,0,57.66,57.66A40.82,40.82,0,0,1,1255,255Z"/><path class="cls-6" d="M1443.63,910.62l7.12-.4-.59.53,1.19-10.69a.58.58,0,0,1,.65-.52.54.54,0,0,1,.26.09l0,0,6.36,4.23-2,.78,3.16-21.45a1.67,1.67,0,0,1,3.31.49s0,0,0,.07l-4,21.3,0,.13a1.2,1.2,0,0,1-1.4,1,1.27,1.27,0,0,1-.62-.32l-5.51-5.27,1-.4-1.19,10.69v0a.58.58,0,0,1-.59.5l-7.12-.41a.18.18,0,0,1-.18-.2A.19.19,0,0,1,1443.63,910.62Z"/><path class="cls-6" d="M1436.4,904.63l8.18-3.86-.36.54-.29-10.68h0a.85.85,0,0,1,.83-.89,1.14,1.14,0,0,1,.33,0l7,2.66-.78.49.83-19.2a2.16,2.16,0,0,1,4.31.19,2.09,2.09,0,0,1,0,.35l-3.92,18.8v0a.61.61,0,0,1-.72.47h0l-7.22-2.09,1.17-.84-.29,10.68v0a.58.58,0,0,1-.36.51l-8.45,3.26a.27.27,0,0,1-.34-.15A.27.27,0,0,1,1436.4,904.63Z"/><path class="cls-6" d="M1480.28,917.06l-7.23-3.34a.59.59,0,0,1-.29-.77.51.51,0,0,1,.17-.21v0l5.94-4.75.06,1-5.93-3.57a.58.58,0,0,1-.23-.76l0,0,4.12-8.67-.1,1.07-3.74-10.63a1.49,1.49,0,1,1,2.82-1l0,0,3.39,10.75,0,.1a1.11,1.11,0,0,1-.14,1l-5.37,8-.21-.8,5.94,3.56a.59.59,0,0,1,.2.81.73.73,0,0,1-.14.16l-5.94,4.75-.1-1,7,3.78a.35.35,0,0,1,.14.47A.35.35,0,0,1,1480.28,917.06Z"/><path class="cls-6" d="M1489.75,912.19l-3.79-3.33a.57.57,0,0,1-.06-.8.75.75,0,0,1,.17-.14h0l4.75-2.38-.2.9-4.75-5.93a.59.59,0,0,1-.05-.67l0,0,4.36-7.39-.08,1-7.75-15.15a1.75,1.75,0,1,1,3.12-1.6l.06.13,6.5,15.72,0,.1a.93.93,0,0,1-.12.94l-5.14,6.86,0-.7,4.75,5.94a.61.61,0,0,1-.09.84.6.6,0,0,1-.11.06l-4.75,2.38.15-1,3.34,3.79a.28.28,0,0,1,0,.38A.26.26,0,0,1,1489.75,912.19Z"/><path class="cls-6" d="M1457.87,917.93l4.4-4a.52.52,0,0,1,.68,0l.09.08,4,3.15-1.47-.14,3.88-1.9.11-.06a.55.55,0,0,1,.73.25l3.15,6.18a.12.12,0,0,1-.05.15.12.12,0,0,1-.14,0l-4-5.69.84.19-3.25,2.85a1,1,0,0,1-1.42-.09l0,0,0,0-3.15-4,.77.06-5.1,3.09h0Z"/><path class="cls-25" d="M1359.83,287.56c-3.4,12.64-1.18,14.4-15.71,13.26l15.79-51.65h15.25l16.09,51.65c-14.7,1-12.81-.24-16.55-13.26Zm13.11-8.73c-3.66-7.78-5.06-31.38-8.28-11C1360.82,280.39,1359.86,279.05,1372.94,278.83Z"/><path class="cls-25" d="M1397.31,275.3c0-4.67-.16-8.58-.31-11.95,4.69.54,11.84-2.49,10.65,5.21,1.95-2.11,5.22-6.17,11.8-6.06,17.38-1.69,13,27,13.41,38.32h-11.65c4.13-39.69-16.36-38.82-12.26,0h-11.64Z"/><path class="cls-25" d="M1473.4,291.78a48.6,48.6,0,0,0,.61,9c-3.26-.67-12.18,2.34-11.18-3.76-25,18.25-33.54-24.75-1.07-21.68.87-6.7-13.65-5.06-17.17-2.07-4.66-9.45,1.39-10,12.41-10.81C1476.36,262.27,1473.28,279.37,1473.4,291.78Zm-11.26-8.66c-9.4-1.71-15.76,8.59-6.29,10.34C1461.74,293.45,1462.63,287.65,1462.14,283.12Z"/><path class="cls-26" d="M1361.83,284.56c-3.4,12.64-1.18,14.4-15.71,13.26l15.79-51.65h15.25l16.09,51.65c-14.7,1-12.81-.24-16.55-13.26Zm13.11-8.73c-3.66-7.78-5.06-31.38-8.28-11C1362.82,277.39,1361.86,276.05,1374.94,275.83Z"/><path class="cls-26" d="M1399.31,272.3c0-4.67-.16-8.58-.31-11.95,4.69.54,11.84-2.49,10.65,5.21,1.95-2.11,5.22-6.17,11.8-6.06,17.38-1.69,13,27,13.41,38.32h-11.65c4.13-39.69-16.36-38.82-12.26,0h-11.64Z"/><path class="cls-26" d="M1475.4,288.78a48.6,48.6,0,0,0,.61,9c-3.26-.67-12.18,2.34-11.18-3.76-25,18.25-33.54-24.75-1.07-21.68.87-6.7-13.65-5.06-17.17-2.07-4.66-9.45,1.39-10,12.41-10.81C1478.36,259.27,1475.28,276.37,1475.4,288.78Zm-11.26-8.66c-9.4-1.71-15.76,8.59-6.29,10.34C1463.74,290.45,1464.63,284.65,1464.14,280.12Z"/><path class="cls-5" d="M1660,322s-1-1-8,0"/><path class="cls-5" d="M1653,342h11"/><line class="cls-5" x1="1654" y1="358" x2="1664" y2="358"/><polygon class="cls-2" points="1590.24 238.02 1578.88 252.65 1584.49 270.3 1567.07 264.01 1552.01 274.8 1552.6 256.29 1537.69 245.31 1555.48 240.15 1561.32 222.57 1571.72 237.9 1590.24 238.02"/><polygon class="cls-2" points="1648.46 243.03 1630.88 248.88 1625.74 266.67 1614.74 251.77 1596.23 252.38 1607.01 237.31 1600.71 219.9 1618.37 225.49 1632.99 214.12 1633.12 232.64 1648.46 243.03"/><polygon class="cls-2" points="1691.35 285 1673.48 280.11 1659.32 292.05 1658.46 273.55 1642.72 263.77 1660.05 257.23 1664.49 239.25 1676.07 253.71 1694.54 252.37 1684.36 267.85 1691.35 285"/><polygon class="cls-2" points="1711.74 335.22 1699.61 321.23 1681.2 323.29 1690.76 307.43 1683.11 290.56 1701.15 294.75 1714.83 282.26 1716.42 300.71 1732.53 309.86 1715.47 317.08 1711.74 335.22"/><path class="cls-5" d="M1670,664s0-12-20.62-16.32-23.93,15.87-23.93,15.87a12.21,12.21,0,0,0-1.67-6.58,5.53,5.53,0,0,0-4.54-2.3c-1.83-.14-3.67,0-5.5,0a33.71,33.71,0,0,1-4.72-.65c-1.22-.18-3-.37-3.75.83,0,0,3.73,3.11,6.73,6.11s5,5,4,9-2,22,9,26,24-8,24-8"/><path class="cls-5" d="M1662.78,653s7.53-20.29,29.87-20.16"/><path class="cls-5" d="M1682.08,634.52S1669,600,1703,595s32,22,32,22"/><path class="cls-5" d="M1732.73,606s19.27-8,25.27,7,5.56,31.14-3.72,34.07"/><path class="cls-5" d="M1647,690s0,26,11,37c6,6,22,8,28,2a61.66,61.66,0,0,0,10-14"/><path class="cls-5" d="M1692.58,720.78S1694,725,1703,722s8-9,8-9"/><path class="cls-5" d="M1709.9,718s23.1,14,33.1,0,0-30,0-30"/><path class="cls-5" d="M1759.69,642.49S1773,657,1767,671s-11,16-11,16"/><path class="cls-5" d="M1760,683.33s6.75,23.57-13.14,15.12"/><path class="cls-5" d="M1733,670s3-3,3-11-9-8-9-8"/><path class="cls-5" d="M1714,684s10-3,10,6"/><path class="cls-26" d="M1794.47,652.55c12.21.83,5.31-26.78,7-34.21h8.88c-.89,7.95,2.82,32.57-4,37.66-2.63,2.4-6.78,3.51-11,3.51Zm11.34-37.72c-6.14.13-6-10.07.12-9.83C1812.11,604.83,1812.09,615.1,1805.81,614.83Z"/><path class="cls-26" d="M1817.27,639.16c2,1.38,11.16,4.11,11.46-.24-1.59-4.16-14.09-5.58-12.33-11.81-.84-8.73,13.22-11.53,19.64-7.71l-1.52,6.08c-1.65-1-9.4-3.26-9.59.7,1.76,3.85,13.54,4.93,13.07,11.82-.63,9.15-15.65,11.68-22.31,7.47Z"/><path class="cls-27" d="M1782.13,681.61c-1.91,9.67-1.83,10.83,8.37,11.22l1.28-10c11.72-4.34,1.07,22.95,2.54,26.65-9,1-4.48-6.29-4.47-11.55-10.73-2.61-10.2-.1-11,9.57-11.73,4.34-1.07-23-2.54-26.65Z"/><path class="cls-27" d="M1809.26,691.7c-4.55-.28-8.33,1-6.81-5.27,3,1.71,24.78-3.11,19.81,5.87-12-4.87-6.25,15.24-8.09,20.8C1803.36,717.6,1810.75,695.63,1809.26,691.7Z"/><path class="cls-27" d="M1851.72,694.08c-10.15-27.54,6.7,34.13-13.18,4.25-10.76-17.48-1.27,2.72.46,11-8.3,9.09-9.85-20.93-12.54-23.21,9.69-7,13,6.71,18.21,12.55,0-8.09-5.56-20.49,6-21.41l10.29,24C1853.94,705.94,1854.13,698.64,1851.72,694.08Z"/><path class="cls-27" d="M1853.26,671c5.64-10.26,13.59,11.51,17.21,13.65l8.39-6.11c8.3,4.75-8.27,10.54-10.24,13.58Z"/><path class="cls-28" d="M1693.12,509.78a13.09,13.09,0,0,0,5.88-1.47,54.62,54.62,0,0,0-7,7.29l-10.28,12.16a76,76,0,0,0-21.25-16.58,49.59,49.59,0,0,0,11.31-1.45,109.64,109.64,0,0,0-10-28.62,2.19,2.19,0,0,1-.3-.89c0-1.62,5.58-4.06,7.47-4.62a61.39,61.39,0,0,1,17.87-2.51c1.46,0,3.2.24,3.89,1.53a4.31,4.31,0,0,1,.34,2.05v33.76"/><path class="cls-29" d="M1684.49,477.61a7,7,0,0,1-2.59,1.48,37.34,37.34,0,0,1-15.13,2.37"/><path class="cls-4" d="M1583,618s6.38,5.67,10.19,3.34"/><path class="cls-4" d="M1584,612s6.38,5.67,10.19,3.34"/><path class="cls-4" d="M1584,606s6.38,5.67,10.19,3.34"/><path class="cls-4" d="M1584,600s6.38,5.67,10.19,3.34"/><path class="cls-4" d="M1584,595s6.38,5.67,10.19,3.34"/><path class="cls-2" d="M1060.87,997.71c-.26-.78-.54-2-1.59-1.9a10.49,10.49,0,0,0-1.7.47l-1.82.53a.5.5,0,0,0,0,.94,19.87,19.87,0,0,1,.26,7.17,11.07,11.07,0,0,1-1,3.44,8.47,8.47,0,0,1-1.94,2.24c-.37-.06-.8.32-.53.72s.57.84.87,1.24a6.17,6.17,0,0,0,.92,1.11c.68.52,1.32-.15,1.82-.59a16.48,16.48,0,0,0,3.47-4.28A14,14,0,0,0,1060.87,997.71Z"/><path class="cls-2" d="M1041,994.93a6.29,6.29,0,0,0-2.16-1,1.49,1.49,0,0,0-1.53.64,6.08,6.08,0,0,0-2.15,2.71,9.28,9.28,0,0,0-.47,6.52,5.78,5.78,0,0,0,.88,1.94c.5.6,1.19.47,1.87.32a17.87,17.87,0,0,0,2.76-.83.51.51,0,0,0,.33-.52.38.38,0,0,0,0-.44,6,6,0,0,1-.79-4.1,7.18,7.18,0,0,1,1.27-4.06,1.31,1.31,0,0,0,0-1.13Z"/><path class="cls-2" d="M1078.79,1004.36a35.61,35.61,0,0,0-6.33-1.61c-.45-.06-1-.19-1.32.24a2.89,2.89,0,0,0-.25,1.4c-.07,1-.09,2-.07,3a.88.88,0,0,0,0,.23c0,.06,0,.12,0,.17a.5.5,0,0,0,.81.38,11.68,11.68,0,0,0,2.8.74c.57.07,1.13.06,1.7.09l.16,0a6.67,6.67,0,0,0,1.51.32.51.51,0,0,0,.5-.5s0,0,0-.07a2.63,2.63,0,0,0,.14-.5c.06-.33.13-.65.2-1l.39-2a.46.46,0,0,0,0-.2A.48.48,0,0,0,1078.79,1004.36Z"/><path class="cls-2" d="M1104.17,987.79c-.18-.75-.36-1.5-.53-2.25l-1.18-5a.35.35,0,0,0-.1-.19.46.46,0,0,0-.06-.26.52.52,0,0,0-.69-.18l-.55.26-.11.05-.09,0a1.88,1.88,0,0,1-.3.12c-.32.12-.64.22-1,.31a.54.54,0,0,0-.33,0,1.82,1.82,0,0,0-.39.14.52.52,0,0,0-.13.06,1.06,1.06,0,0,0-.2.17.87.87,0,0,0-.15.24.76.76,0,0,0,0,.11,1.13,1.13,0,0,0,0,.18,1,1,0,0,0,0,.24.9.9,0,0,0,.08.21.49.49,0,0,0,.14.18l.08.06a8,8,0,0,0,.32,1.51,19.84,19.84,0,0,1,.53,2.15,19.14,19.14,0,0,1,.28,2.15c0,.55-.08,1.31.52,1.6a4.25,4.25,0,0,0,1.88.05,3.22,3.22,0,0,0,1.68-.37C1104.38,988.94,1104.3,988.36,1104.17,987.79Z"/><path class="cls-2" d="M1138.58,1007.51c-.12-.32-.24-.64-.38-1s-.31-.59-.69-.6a5.12,5.12,0,0,0-1.1.16l-1.12.21c-.78.15-1.56.32-2.33.5a.44.44,0,0,0-.32.63s-.05,0-.06.07a1.13,1.13,0,0,0,0,.9,3.88,3.88,0,0,0,.42.9,1.21,1.21,0,0,0,.62.54,2.33,2.33,0,0,0,1,0c.6-.1,1.18-.32,1.78-.39a7.11,7.11,0,0,0,1.85-.23C1139.13,1008.94,1138.78,1008.09,1138.58,1007.51Z"/><path class="cls-2" d="M1131.06,1050.5a.74.74,0,0,0-.5-.46l-.24-.08c-.13,0-.11-.08,0,0a2.94,2.94,0,0,1-.69-.54,6.47,6.47,0,0,1-3-2c-.35-.43-.71-1.11-1.39-.91-.36.11-.57.48-.78.75l-.73,1a.39.39,0,0,0-.06.28,1.33,1.33,0,0,0-.3.71c-.06.84.72,1.35,1.37,1.74a5,5,0,0,0,.84.76l1.62,1.25c.47.36,1,1,1.62.47s.88-.94,1.31-1.4S1131.24,1051.1,1131.06,1050.5Z"/><path class="cls-2" d="M1089.33,1044.21c-.38-.27-.8-.48-1.16-.78a2.65,2.65,0,0,1-.4-.42,1.83,1.83,0,0,0-1.17-1.27c-.92-.25-1.57.57-1.91,1.31-.48,1-.92,2.06-1.38,3.09-.17.39-.39.8-.58,1.23a7.57,7.57,0,0,0-1.28,2.33.45.45,0,0,0,.32.58,2.14,2.14,0,0,0,1.08,1.34,1.82,1.82,0,0,0,1.42.34c.51-.16.86-.73,1.19-1.1.86-1,1.71-1.92,2.57-2.87l.9-1,.06,0c.21-.21.41-.42.61-.64a2.56,2.56,0,0,0,.56-.67C1090.43,1045,1089.76,1044.52,1089.33,1044.21Z"/><path class="cls-2" d="M1145.28,907.62c-1.18,0-2.36-.06-3.53,0q-.55-2.49-1.09-5c-.2-.89-.39-1.77-.58-2.66a3.9,3.9,0,0,0-.82-2.12,2.77,2.77,0,0,0-1.76-.49c-1-.08-1.93-.12-2.9-.14a53.22,53.22,0,0,0-5.36.15,53.91,53.91,0,0,0-15.54,3.63c-.8.32-1.6.66-2.38,1a12.06,12.06,0,0,0-2.24,1.13c-.78.59-.55,1.58-.46,2.43s.24,2,.4,3c.26,1.68.63,3.34,1,5a3.82,3.82,0,0,0,.12.66c-.63.28-1.27.55-1.92.8a16.63,16.63,0,0,0-1.91.78,1.87,1.87,0,0,0-.29.2,1.8,1.8,0,0,0-1.12,1h0a.61.61,0,0,1,0,.12.44.44,0,0,0,0,.37.72.72,0,0,0,.63.79,1.77,1.77,0,0,0,.4,0h0l.12.06a6.88,6.88,0,0,0,3.78-.35c1.32-.44,2.63-.93,3.94-1.39,2.49-.88,5-1.77,7.48-2.64l8-2c3.88-1,7.76-2,11.72-2.56.6,0,1.2,0,1.8,0a18.49,18.49,0,0,0,4.46-.11.51.51,0,0,0,.37-.48C1147.51,907.6,1146.18,907.66,1145.28,907.62Zm-34.44-1.8a2.93,2.93,0,0,1,.34-.89s0,0,0-.07a1.51,1.51,0,0,0,.3,0l0,.07a4.64,4.64,0,0,1,.07,1c0,.34,0,.68,0,1a6.41,6.41,0,0,0-.32,1.29v.07a.35.35,0,0,1-.1.11.39.39,0,0,1-.14,0c-.12-.39-.23-.77-.34-1.16A7.32,7.32,0,0,1,1110.84,905.82Z"/><path class="cls-2" d="M1209.67,908.08c-1,.09-1.91.11-2.87.11a6,6,0,0,0-1.75-4,6.78,6.78,0,0,0-5.23-2.83,10.4,10.4,0,0,0-5.58,1.57,2.54,2.54,0,0,0-1.43,1.66,1.4,1.4,0,0,0,1,1.6.39.39,0,0,0,.24,0,29.38,29.38,0,0,0,15.65,2.86C1210.3,909,1210.31,908,1209.67,908.08Z"/><path class="cls-2" d="M1205.23,915.1c-1,.32-2,.84-3.09,1.15a9.35,9.35,0,0,1-3.2.34,15.16,15.16,0,0,1-6.24-2c-.56-.31-1.07.55-.5.86a16.43,16.43,0,0,0,6.53,2.09,10.6,10.6,0,0,0,3.27-.26c1.21-.29,2.31-.9,3.5-1.25C1206.11,915.88,1205.85,914.91,1205.23,915.1Z"/><path class="cls-2" d="M1289.46,797q-2.32-2.25-4.76-4.38c-6.65-5.84-14.06-9.67-23-10.69-1.23-.14-1.07.43-1,1.24a.65.65,0,0,0,.5.59.58.58,0,0,0,.33.23,45.54,45.54,0,0,1,22.76,15.1c5.44,6.55,9.91,14,16.43,19.61a13.31,13.31,0,0,0,3.52,2.54c.9-4.55-1.82-8.73-4.39-12.19A95.94,95.94,0,0,0,1289.46,797Z"/><path class="cls-2" d="M1318.26,861.73l-.06-.11h0a.16.16,0,0,1,0-.07,6.36,6.36,0,0,0-.77-1.25,32.43,32.43,0,0,0-16.78-13,31,31,0,0,0-6.37-1.41c-.5-.06-.6.53-.33.83a.51.51,0,0,0,.17.19,21.61,21.61,0,0,0,2.42,1.39.49.49,0,0,0,.18,0c2.57,1.29,5.14,2.6,7.65,4,.35.22.72.42,1.08.63l1.8,1c1.88,1.13,3.72,2.32,5.49,3.61.87.63,1.74,1.29,2.57,2a10,10,0,0,1,1.29,1.23c.27.42.53.84.77,1.27S1318.48,862.27,1318.26,861.73Z"/><path class="cls-4" d="M1522.5,726s-4.5,2-6.5,5l3,1-5,10-2-1-2,5.87s9.19-5.22,11.66-10C1524.88,730.53,1522.62,725.92,1522.5,726Z"/><circle class="cls-23" cx="1555" cy="748" r="2"/><path class="cls-2" d="M1517.22,489.18c-8-.55-15.62,3.18-21.27,8.69a12.73,12.73,0,0,0-3.5,5c-.19.62.77.88,1,.27a10.94,10.94,0,0,1,3-4.32,34.59,34.59,0,0,1,4.13-3.52,27.71,27.71,0,0,1,10.07-4.61,23.16,23.16,0,0,1,6.59-.5C1517.86,490.23,1517.86,489.23,1517.22,489.18Z"/><path class="cls-2" d="M1524.48,495.76c-8.9.19-18.23,2.61-24.38,9.46a21.09,21.09,0,0,0-3.71,5.74c-.26.58.6,1.09.86.5,3.41-7.85,11.31-12.36,19.42-13.92a46.56,46.56,0,0,1,7.81-.78A.5.5,0,0,0,1524.48,495.76Z"/><path class="cls-2" d="M1527.86,505.81a27.73,27.73,0,0,0-13.18,1.95c-4.06,1.75-7.44,4.68-10.75,7.55-.48.42.23,1.12.71.7,3.19-2.76,6.44-5.57,10.34-7.3a26.74,26.74,0,0,1,12.88-1.9C1528.5,506.86,1528.5,505.86,1527.86,505.81Z"/><path class="cls-2" d="M1532.65,516.13a37.9,37.9,0,0,0-14.09,2c-.6.21-.34,1.17.27,1a37.08,37.08,0,0,1,13.82-2C1533.29,517.16,1533.29,516.16,1532.65,516.13Z"/><path class="cls-6" d="M1668.12,576.88c-25.24,11.65-37.72-30.6-7.4-31.25,7.84-.35,7.93,2.06,5.92,8.49-13.31-7.11-20.28,16.22-5.27,16.59C1668.37,569.12,1667.16,571.13,1668.12,576.88Z"/><path class="cls-6" d="M1673.45,569.16c4.14,4.37,20.75,1.31,8-3.86-21.17-7.5-.83-26.24,12.6-17.86-.72,13.1-8.32-.46-12.22,7.45C1721,575.13,1663.9,588.75,1673.45,569.16Z"/><path class="cls-6" d="M1701.36,569.16c4.13,4.37,20.74,1.31,8-3.86-21.17-7.5-.83-26.24,12.6-17.86-.72,13.1-8.31-.46-12.21,7.45C1748.87,575.13,1691.8,588.75,1701.36,569.16Z"/><path class="cls-2" d="M1605.58,173.73c-13.73,4.57-27.11,11.31-41.29,14.28,4.18-3.38,8.54-6.56,12.6-10.13,8.63-7.61,16.07-17,23.09-26.09,3.49-4.5-.69-10.28-6.06-7.86-9.13,4.13-17.2,10.66-26.16,15.26a172.81,172.81,0,0,1-17.22,7.65c2.1-2.73,4.47-5.25,6.4-7.3,4.35-4.64,9.55-8.3,13.22-13.57,2.53-3.63-1.65-8.53-5.65-7.34l-14.21,4.23a79.73,79.73,0,0,0,3.62-14.93c.59-4.19-3.2-7.92-7.34-5.65a56.75,56.75,0,0,1-13,5.18c3-5.46,5.74-11.17,6.12-17,.29-4.44-5.6-6.44-8.53-3.54a95.14,95.14,0,0,1-21.41,15.94c9.42-10.64,19.07-21,23.82-34.88,1.37-4-3.8-8.1-7.35-5.65a165.57,165.57,0,0,1-27.58,15.46c1.83-3.36,4.84-6.43,6.8-9.13a49.1,49.1,0,0,0,7.49-16c1.2-4.34-3.55-7.64-7.34-5.65A139.43,139.43,0,0,1,1484,76.17c5.58-6.82,11.76-13.22,17.56-19.76,3.55-4-1.16-11.32-6.06-7.85-10.39,7.36-20.93,14.76-32.31,20.43,7.1-8.26,14.09-16.62,20.77-25.23,3.15-4-.92-11.39-6-7.85A220.34,220.34,0,0,1,1450.6,52c2.35-3.39,4.74-6.76,7.2-10.06,5.09-6.83,11.27-13.17,13.57-21.58,1.41-5.18-4.68-7.84-8.36-4.87a316.56,316.56,0,0,0-26.86,24.4c-3.83,3.9.68,9.58,4.89,8.4q-4.27,6.26-8.3,12.68c-2.16,3.44,1.5,9,5.65,7.35q10.29-4.12,20.1-9.18-7.86,9.21-15.88,18.29c-3.19,3.64-.17,9.73,4.87,8.36a113.56,113.56,0,0,0,24.11-9.91c-1.54,2.09-3,4.23-4.41,6.43-2.45,3.87,1.58,8.25,5.64,7.34a150.07,150.07,0,0,0,25-8c-1.55,2.4-3.27,4.73-5.09,7.16-4.14,5.56-6.28,11.3-5.28,18.24.36,2.52,3.85,4.36,6.15,3.5A180.16,180.16,0,0,0,1516,100.3c-8,11.37-19,21-26.92,32.25-2.54,3.61,1.66,8.56,5.64,7.34a105.11,105.11,0,0,0,27.52-12.95l-2.34,4.59c-1.58,3.1.29,7.85,4.32,7.52a68.66,68.66,0,0,0,18.06-3.91,69.89,69.89,0,0,1-4,11.19,5.34,5.34,0,0,0-.5,2.34c-1.12,3.37,1.48,7.93,5.9,6.61l5.19-1.54c-.8.8-1.56,1.63-2.28,2.5-4.11,5-9.68,11.47-10.76,18-.58,3.54,2.19,7.39,6.15,6.15a194,194,0,0,0,29.29-11.75c.72-.36,1.43-.74,2.14-1.12q-1.74,1.69-3.54,3.3c-7.7,6.77-16.51,12.13-23,20.17-2.63,3.23-1.1,8.51,3.54,8.53,14.34.08,27.49-4.67,40.58-9.72a64.2,64.2,0,0,0-6.24,7c-3.84,5.17,4.84,10.16,8.64,5.05,5.51-7.42,13.47-12.44,17.92-20.74C1613.17,177.44,1609.91,172.28,1605.58,173.73Z"/><path class="cls-6" d="M1440.88,26.06h12.84V72.19h22.64V83C1423.3,84.69,1445.14,85.45,1440.88,26.06Z"/><path class="cls-6" d="M1473.94,56.59c-3,10.46-.38,11.25-12.49,10.54L1474,26.06h12.13L1504,83h-10l-8.25-26.41Zm10.42-7c-2.91-6.19-4-24.95-6.58-8.71C1474.76,51.14,1473.73,49.71,1484.36,49.64Z"/><path class="cls-6" d="M1540.88,141.06h12.84v46.13h22.64V198C1523.3,199.69,1545.14,200.45,1540.88,141.06Z"/><path class="cls-6" d="M1573.94,171.59c-3,10.46-.38,11.25-12.49,10.54L1574,141.06h12.13L1604,198h-10l-8.25-26.41Zm10.42-7c-2.91-6.19-4-24.95-6.58-8.71C1574.76,166.14,1573.73,164.71,1584.36,164.64Z"/><path class="cls-6" d="M1494.88,87h10.6v38.07h18.69V134h-29.29Z"/><path class="cls-6" d="M1522.17,112.2c-2.39,8.47-.52,9.36-10.31,8.7L1522.22,87h10L1547,134h-8.25l-6.81-21.8Zm8.6-5.74c-2.4-5.1-3.32-20.59-5.43-7.19C1522.82,107.49,1522.19,106.61,1530.77,106.46Z"/><path class="cls-6" d="M1659,458.85a32.87,32.87,0,0,0,3-13.08l9.17-2.68-5.61-19.19c-12.75,6.32-11.55-4.74-22.7-8.85-5.51.08-3.56-7.7-3.85-11.05h-20c2.44,13.85-7.3,9.75-14.35,18.72l-8.66-4-8.4,18.15c14.55,3.72,4.89,14.52,13.2,25.26l-6.28,7.19,15.06,13.15c7.73-13,15.32-.58,27.94-5.58l5.15,8.05,16.85-10.77C1654.09,466.75,1654,466.48,1659,458.85Z"/><circle class="cls-30" cx="1629" cy="445" r="25"/><circle class="cls-30" cx="1629" cy="445" r="14"/><circle class="cls-31" cx="1629" cy="445" r="14" transform="matrix(0.51, -0.86, 0.86, 0.51, 420.55, 1624.54)"/><path class="cls-2" d="M1021.53,19.93a32.9,32.9,0,0,0-7-11.45l4.64-8.34-17.48-9.72C997,3.87,990.12-4.85,979.3.06c-3.87,3.93-7.94-3-10.5-5.16L954.56,9C966,17.1,956.22,21,957.5,32.36l-9,3.23,6.78,18.82c13-7.58,13.68,6.89,27.13,8.7l.59,9.53,20-1.22c-3.62-14.67,10.49-11.18,16-23.6l9.32,2.11,4.42-19.5C1023.62,29,1023.34,28.86,1021.53,19.93Z"/><circle class="cls-30" cx="990.48" cy="31.11" r="25"/><circle class="cls-6" cx="990.48" cy="31.11" r="14"/><path class="cls-6" d="M1061-12.85a17.71,17.71,0,0,0-6.31-3.66l.06-5.2-10.87-.13c1.26,7.63-4.3,5.25-8.21,10.39-.83,2.88-4.56.63-6.35.25L1026.17-.81c7.58.94,3.9,5.35,7.45,10.44l-3.47,3.87,8.11,7.25c4.24-7,8.32-.24,15.22-2.85l2.74,4.41,9.24-5.74c-5.52-6.08,2.13-8.06,1.54-15.41l5-1.4-2.92-10.47C1064.37-9.07,1064.21-9,1061-12.85Z"/><path class="cls-32" d="M1593.11,405.28,1581.9,396l-8,9.71a16.58,16.58,0,0,0-4.64-.67,16.79,16.79,0,0,0-14.85,9h-13.14v14.55h12.6a16.84,16.84,0,0,0,10.45,9.33l2.44,12.91,14.3-2.71-2.34-12.38a16.79,16.79,0,0,0,6-20.3Z"/><rect class="cls-33" x="1560.26" y="412.88" width="17.91" height="17.91" rx="8.95"/><path class="cls-32" d="M1645,511.5a18,18,0,0,0-.35-3.54l6.9-3.72-5.69-10.57-7.22,3.9a18.4,18.4,0,0,0-6.64-3.74V486h-12v8.2a18,18,0,0,0-4,2l-6.15-4.86-7.44,9.41,6.42,5.07a18.44,18.44,0,0,0-.88,5.64c0,.66,0,1.31.1,2l-7.19,3.11,4.75,11,7.53-3.24a18.39,18.39,0,0,0,6.3,4.28l-.69,7.82,12,1,.71-8.17a18.3,18.3,0,0,0,6.77-3.5l6.55,4.31,6.59-10-6.85-4.5A18.36,18.36,0,0,0,1645,511.5Z"/><circle class="cls-34" cx="1626.5" cy="511.5" r="11.5"/><path class="cls-35" d="M1105.61-3.4,1098.85-9,1094-3.15a10.29,10.29,0,0,0-2.8-.4,10.12,10.12,0,0,0-9,5.4h-7.92v8.77h7.6a10.12,10.12,0,0,0,6.3,5.63L1089.7,24l8.62-1.63-1.41-7.46a10.14,10.14,0,0,0,4.42-8.36,10,10,0,0,0-.78-3.88Z"/><rect class="cls-36" x="1085.8" y="1.18" width="10.8" height="10.8" rx="4.78"/><path class="cls-37" d="M1147.31,26.82l7.27-9.13-7.91-6.3a13.92,13.92,0,0,0,.46-3.73,13.48,13.48,0,0,0-7.42-11.76l-.21-10.53-11.67.23L1128-4.3a13.49,13.49,0,0,0-7.32,8.52l-10.31,2.17,2.4,11.42,9.89-2.08a13.44,13.44,0,0,0,11.23,5.66,13.53,13.53,0,0,0,5.14-1.13Z"/><path class="cls-10" d="M1893,544s1-5,6-4,8-1,8-2,6,7,1,10S1897,551,1893,544Z"/><path class="cls-5" d="M1870,534s-14,2-16-5,3-13,8-12-18,17-38,11-20.69-8.79-20.69-8.79"/></svg>