<svg id="Layer_1" data-name="Layer 1" xmlns="http://www.w3.org/2000/svg" xmlns:xlink="http://www.w3.org/1999/xlink" viewBox="0 0 604.63 1074.9"><defs><style>.cls-1,.cls-10,.cls-11,.cls-13,.cls-17,.cls-20,.cls-23,.cls-26,.cls-29,.cls-4,.cls-8{fill:none;}.cls-18,.cls-2,.cls-27,.cls-3,.cls-5,.cls-7{fill:#a2eae1;}.cls-11,.cls-12,.cls-13,.cls-15,.cls-17,.cls-18,.cls-19,.cls-20,.cls-22,.cls-23,.cls-24,.cls-25,.cls-26,.cls-29,.cls-3,.cls-4,.cls-5,.cls-7,.cls-8,.cls-9{stroke:#0bb3a4;}.cls-10,.cls-11,.cls-12,.cls-13,.cls-15,.cls-17,.cls-19,.cls-20,.cls-21,.cls-22,.cls-23,.cls-24,.cls-25,.cls-26,.cls-27,.cls-3,.cls-4,.cls-5,.cls-7,.cls-8,.cls-9{stroke-linecap:round;}.cls-10,.cls-11,.cls-12,.cls-13,.cls-15,.cls-17,.cls-18,.cls-19,.cls-20,.cls-21,.cls-22,.cls-23,.cls-24,.cls-25,.cls-26,.cls-27,.cls-3,.cls-4,.cls-5,.cls-7,.cls-8,.cls-9{stroke-linejoin:round;}.cls-13,.cls-15,.cls-3{stroke-width:2px;}.cls-4,.cls-5{stroke-width:1.08px;}.cls-12,.cls-15,.cls-19,.cls-21,.cls-22,.cls-24,.cls-25,.cls-6,.cls-9{fill:#0bb3a4;}.cls-10,.cls-7,.cls-8,.cls-9{stroke-width:1.14px;}.cls-10,.cls-28{stroke:#fff;}.cls-11,.cls-12{stroke-width:1.51px;}.cls-14{clip-path:url(#clip-path);}.cls-16{clip-path:url(#clip-path-2);}.cls-17{stroke-width:2.26px;}.cls-19,.cls-20,.cls-21{stroke-width:1.39px;}.cls-21,.cls-27{stroke:#a2eae1;}.cls-22{stroke-width:2.05px;}.cls-23{stroke-width:1.6px;}.cls-24{stroke-width:2.02px;}.cls-25,.cls-26,.cls-27{stroke-width:1.06px;}.cls-28{fill:#fff;}.cls-28,.cls-29{stroke-miterlimit:10;}</style><clipPath id="clip-path"><circle class="cls-1" cx="590.44" cy="209.52" r="43.73"/></clipPath><clipPath id="clip-path-2"><ellipse class="cls-1" cx="47.1" cy="93.76" rx="11.87" ry="17.55" transform="translate(-52.43 60.55) rotate(-44.88)"/></clipPath></defs><path class="cls-2" d="M541.54,232a28,28,0,0,0-.42-2.89,14.82,14.82,0,0,0-3-6.27c-.16-.4-.33-.81-.52-1.22a13.4,13.4,0,0,0-2.35-3.54c-.11-.38-.22-.76-.34-1.14a17.49,17.49,0,0,0,2.27-10.15,27.83,27.83,0,0,0-1-14.27,1.93,1.93,0,0,1,0-.24c-.78-8.77-7.31-13.66-15.55-15a21.72,21.72,0,0,0-7.57.44,13.47,13.47,0,0,0-2.73.85c-7.22-13.11-26.57-16.06-39.74-10.22-13.86,6.14-16.54,22.39-12.78,35.88a27.68,27.68,0,0,0-17.17,12,30.93,30.93,0,0,0-2.94,6.3,63.3,63.3,0,0,0-10.32-4.86c-6.23-2.36-14.36-2-20,1.78-3.58,2.41-6.4,5-7.87,9.12a18.09,18.09,0,0,0-.19-2.07,4.88,4.88,0,0,0-3.51-4.14,24.39,24.39,0,0,0-5.85-.47,60.24,60.24,0,0,1-7.09-.76,1.5,1.5,0,1,0-.13,3c.4.07.82.11,1.23.17a1.59,1.59,0,0,0,.09.33c.77,1.73,2.4,2.69,3.69,3.94a10.56,10.56,0,0,0,1.16,3c.28.5.61,1,.89,1.51a23.73,23.73,0,0,1-.25,4.71,1.44,1.44,0,0,0,1.33,1.51,15.36,15.36,0,0,0-2.22,7.43c0,.19,0,.38,0,.58a18.33,18.33,0,0,0,4.3,11.87l3.23,2.72a16.34,16.34,0,0,0,8.21,2.63,13.89,13.89,0,0,0,2.68-.18,12.07,12.07,0,0,0,2.66-.33l4-1.48a2.11,2.11,0,0,0,.33-.18c.62-.4,1.23-.83,1.83-1.28s1.3-.89,1.92-1.37l.09-.09a12,12,0,0,0,2.68-2c.07,1.1.18,2.19.34,3.28,0,.38.09.68.12.94l0-.1a.43.43,0,0,1,0,.11c.16,1.19.15,1.27,0,.21-.32,1.56-.61,3.13-.87,4.7A29.3,29.3,0,0,0,421,276a70.25,70.25,0,0,0,4.79,13.14,24,24,0,0,0,11.89,11.77,12.4,12.4,0,0,0,5.84,1.53,17.15,17.15,0,0,0,8.23-1.2,19.68,19.68,0,0,0,11.47-8.89c6.3,2.71,14.45,1.05,19-4.15a15.63,15.63,0,0,0,4.07,3.76c9.76,6.23,23.48,7.25,30.65-3.57a25.58,25.58,0,0,0,3.9-13.54c-.06-1.15-.15-2.29-.26-3.44a8.1,8.1,0,0,0,4.94,1.8c8.82.4,11-10.58,5.8-15.1a23.64,23.64,0,0,0,5.09-5.71,56.47,56.47,0,0,0,2.78-5.63.3.3,0,0,1,0-.08c.12-.15.3-.41.59-.85A15.56,15.56,0,0,0,541.54,232Z"/><path class="cls-2" d="M421.09,261.82l0,.21h0l0-.21Z"/><polygon class="cls-3" points="-8.98 246.61 9.2 223.95 19.85 232.68 -8.98 246.61"/><polygon class="cls-4" points="173.6 60.62 191.32 22.36 195.8 31.88 185.07 55.42 209.81 62.06 214.46 71.71 173.6 60.62"/><polygon class="cls-5" points="173.6 60.62 169.18 62.7 210.12 73.75 214.46 71.71 173.6 60.62"/><polygon class="cls-5" points="169.18 62.7 186.9 24.44 191.32 22.36 173.6 60.62 169.18 62.7"/><polygon class="cls-4" points="281.57 10.18 267.26 46.84 262.77 37.32 271.62 14.8 248.71 7.31 244.12 -2.51 281.57 10.18"/><polygon class="cls-5" points="239.61 -0.39 244.12 -2.51 248.71 7.31 244.25 9.47 239.61 -0.39"/><rect class="cls-5" x="260.36" y="37.86" width="4.89" height="10.53" transform="translate(6.68 116.09) rotate(-25.22)"/><polygon class="cls-5" points="244.25 9.47 267.29 16.91 271.62 14.8 248.71 7.31 244.25 9.47"/><polygon class="cls-5" points="258.35 39.4 267.29 16.91 271.62 14.8 262.77 37.32 258.35 39.4"/><polygon class="cls-4" points="231.11 3.62 218.62 69.75 224.75 66.86 237.78 0.47 231.11 3.62"/><polygon class="cls-5" points="228.73 4.74 216.24 70.87 218.62 69.75 231.11 3.62 228.73 4.74"/><path class="cls-6" d="M168.47,233.19c-9.73-5.26-16.86,9.1-13.65,17,4.13,6.84,18,4.84,20.16-2.1C176.54,243,172,235.57,168.47,233.19Z"/><path class="cls-6" d="M187.94,232.07l-1.18-1.52a27.58,27.58,0,0,0-42.89-.74l-10.33-8.66a41.06,41.06,0,0,1,63.85,1.11l1.18,1.51Z"/><path class="cls-6" d="M211.44,215.5l-2.4-3.07a55.85,55.85,0,0,0-86.84-1.51l-20.93-17.54a83.16,83.16,0,0,1,129.29,2.25l2.4,3.07Z"/><polyline class="cls-7" points="517.11 128.23 497.59 129.64 497.46 132.5 504.18 135.92 538.96 134.77 537.66 129.72 522.85 127.91"/><path class="cls-8" d="M490.47,73.41c23.45.08,47.39,1.14,70.78,2.69"/><path class="cls-8" d="M490.47,73.41c-1.39,5.32-1.42,10.88-1.68,16.38-.49,10.66-1.8,21.64-2.29,32.3"/><path class="cls-8" d="M486.5,122.09c22.43,3.17,42,1.24,64.55,3"/><path class="cls-8" d="M561.25,76.1c.67,9.05-1.8,18.31-2.37,27.36-.45,7,0,14.07-.33,21.09a1.32,1.32,0,0,1-.41,1.08,1.27,1.27,0,0,1-.82.1l-6.27-.61"/><path class="cls-8" d="M495.7,136c22.68.05,45.28-3.33,67.59.73"/><path class="cls-8" d="M521.74,158l26.08-5.33c3.38-.69,6.75-1.38,10.16-1.88,2.68-.39,5.36-.67,8-.94,3.17-.33,7.11-.62,10.27-.94"/><path class="cls-8" d="M563.29,136.77c4.82,3.56,8.44,8.23,13,12.09"/><path class="cls-7" d="M523,166.45c-7.36-4.15-15.32-8.87-22.29-13.62-2-1.37-4.22-2.44-5.79-4.3A49,49,0,0,0,495.7,136c2.3,3.47,5.93,6.65,9.14,9.31l5.36,4.43c4.11,3.4,8.34,6.87,13.39,8.61"/><path class="cls-7" d="M523,166.45c.2-2.85.19-5.5.2-8.35,0,0,25.46-6.13,29.77-6.51s23.3-2.73,23.3-2.73a42.93,42.93,0,0,1-.62,5.89c-4,1.89-7.74,1.42-12,2.77-3,1-6.08,1.63-9.16,2.31-10.2,2.23-21.29,4.39-31.48,6.62"/><path class="cls-7" d="M493.3,78.34c8.63-1,17.95-.64,26.63-.48l9.88.19A123.8,123.8,0,0,1,553,80.59c-.9,12.63-.73,27.54-1.63,40.18-8.62-2.11-17.11-.23-26,0a103.83,103.83,0,0,1-10.58-.41l-17.2-1.23a22.06,22.06,0,0,1-6.71-1.18l.67-.13C492.3,104.64,493.28,91.57,493.3,78.34Z"/><path class="cls-8" d="M490.47,73.41c-2,1.76-5.3,3.44-7.48,5"/><path class="cls-8" d="M486.5,122.09c-1.67.8-4.22,2.27-6.05,2.56a348.49,348.49,0,0,1,2.73-46.44"/><path class="cls-9" d="M523.18,126.53l.07,2.6.13.34a33.42,33.42,0,0,1-6.15.72l.5-.55a14.22,14.22,0,0,1,.26-3.19"/><path class="cls-8" d="M577.82,143.73a7.69,7.69,0,0,1-2.77-2.45,5.08,5.08,0,0,1-.9-4.86,5,5,0,0,1,3.42-2.71,13.37,13.37,0,0,1,4.51-.17,34.86,34.86,0,0,1,9.56,1.93,10.81,10.81,0,0,1,5.3,3.85,8.59,8.59,0,0,1,1.26,3.57c.25,2-.17,4.2-1.76,5.38s-3.66.94-5.54.56c-5.07-1-8.78-2.21-13.08-5.1"/><path class="cls-9" d="M575.11,135.23c.22-.93,1.4-1.23,2.34-1.16a4.16,4.16,0,0,1,2.08.63,2.27,2.27,0,0,1,1.05,1.83.37.37,0,0,1-.07.25.41.41,0,0,1-.31.09,5.67,5.67,0,0,1-4.29-2.14"/><path class="cls-10" d="M515.4,84c-4.13,3.8-9.22,6.79-12,11.67"/><path class="cls-10" d="M527.05,87.16l-10.32,7.78c-5.36,4-10.89,8.28-14,14.22"/><path class="cls-10" d="M537.91,89.63l-21.8,17.25a89.63,89.63,0,0,0-7.71,6.59"/><path class="cls-10" d="M542.85,101.41a102.76,102.76,0,0,1-11.65,9.14"/><path class="cls-7" d="M480.42,125.25c8,.35,63.92,1.32,71.91,1.23l5.55-1-71.41-3.21Z"/><path class="cls-8" d="M508.58,139.87s41.31-2.16,46.43-1.36"/><line class="cls-8" x1="523.36" y1="154.84" x2="566.1" y2="146.45"/><line class="cls-8" x1="519.57" y1="150.09" x2="561.66" y2="143.39"/><line class="cls-8" x1="515.83" y1="144.2" x2="556.05" y2="140.85"/><line class="cls-8" x1="513.8" y1="138.38" x2="529.1" y2="154.53"/><line class="cls-8" x1="523.61" y1="136.53" x2="537.18" y2="153.17"/><line class="cls-8" x1="532.78" y1="136.37" x2="543.51" y2="152.31"/><line class="cls-8" x1="540.23" y1="136.13" x2="550.47" y2="150.33"/><line class="cls-8" x1="547.09" y1="136.44" x2="556.78" y2="150.04"/><line class="cls-8" x1="552.8" y1="136.7" x2="561.97" y2="147.72"/><line class="cls-8" x1="559.06" y1="137.55" x2="562.26" y2="142.85"/><path class="cls-11" d="M620.87,98.22c4.87-.86,14.4-3,17.86-6.59,2.65-2.71,5.22-5.72,6.19-9.39,1.1-4.18,0-8.61-1.38-12.72a40.36,40.36,0,0,0-5.49-11.73,33.5,33.5,0,0,0-6.44-6.37,57.72,57.72,0,0,0-32.44-12.11,29.72,29.72,0,0,0-12,1.47,24.07,24.07,0,0,0-11,9A39.3,39.3,0,0,0,570.49,63c-1.55,6.44-1.93,13.47.88,19.47,3.58,7.66,11.69,12.25,19.84,14.48C599.16,99.11,612.75,99.67,620.87,98.22Z"/><path class="cls-11" d="M570.49,63a39.3,39.3,0,0,1,5.62-13.23,24.07,24.07,0,0,1,11-9,29.72,29.72,0,0,1,12-1.47,57.74,57.74,0,0,1,32.14,11.88,40.32,40.32,0,0,0-1.57-33.71A62.3,62.3,0,0,0,619.68,4.06,59.66,59.66,0,0,0,608-6,47.53,47.53,0,0,0,594-11.66a67.6,67.6,0,0,0-37.45,2.1C550.24-7.41,544-4.28,539.66.86s-6.44,12.2-6.76,19.05,1.64,13.59,3.18,20.28c-6.55,2.15-12.4,4.24-18.93,6.45-1,.33-2.1.81-2.33,1.82,7.44,3.51,19.25,1.66,27.34,3.14,2.78,8.2,11.21,13.16,19.19,16.52,2.61,1.09,5.27,2.09,8,3A41.64,41.64,0,0,1,570.49,63Z"/><path class="cls-12" d="M556.43,25.93A8.24,8.24,0,0,0,552.87,31a6.81,6.81,0,0,0,.93,5.24c1.53,2.26,4.53,3.41,7.37,3.44a8.56,8.56,0,0,0,4.48-1.06c3.79-2.27,4.14-7.91,1.6-11.24s-7.06-3.69-10.53-1.62A2.29,2.29,0,0,0,556.43,25.93Z"/><path class="cls-12" d="M581.72,42.69c-1.62-1.56-2.67-5.8-1.6-7.86.39-.76,2.07-4.08,2.74-4.6,2.66-2.07,5.9-2.24,9.39-.63,2.4,1.1,3.74,6.5,3.19,9.47"/><path class="cls-12" d="M599,65.18A5.88,5.88,0,0,0,594,66.36a7.49,7.49,0,0,0-2.38,3.83,7.41,7.41,0,0,0,1,6.3c2.47,3.3,7,2.57,8.81-.91,1.07-2,1.88-5.15,1.21-7.44A4.59,4.59,0,0,0,599,65.18Z"/><circle class="cls-13" cx="91.92" cy="261.98" r="37.64"/><g class="cls-14"><path class="cls-6" d="M635.87,213.88l-3.5-3.47c2.91-1,4.87-5.28,1.91-7.54L619.5,191.54c1.6.83,3.2,1.66,4.8,2.46,5.12,2.56,9.47-5.27,4.32-7.85q-2.4-1.2-4.78-2.45c2.78-1.26,4.59-5,1.94-7.95-6.81-7.66-16.24-11.35-25.71-14.63-2.85-1-6.69,1.28-6.54,4.53l.06,1.08a5.07,5.07,0,0,0,.55,2.16,108.16,108.16,0,0,0-15.7-5.31c-4.11-1-7.78,4.75-4.19,7.58q3.93,3.1,7.81,6.27a73.11,73.11,0,0,0-17.18-5.28c-3.59-.61-6.65,3.09-5.27,6.13a4.49,4.49,0,0,0-3.08,7.61c.91,1,1.83,2.07,2.75,3.1a28.94,28.94,0,0,0-5.14-.74c-3.34-.16-5.62,4.1-3.8,6.78,3.43,5.07,9.61,7.48,14.71,10.59q6.86,4.19,13.47,8.75c-3.72-2.34-7.31-4.87-11.13-7.08a61.62,61.62,0,0,0-16.56-6.45c-4.25-1-7.56,4.59-4.19,7.58,4,3.51,8,6.84,12.2,10.11-2.52-1.2-5.05-2.37-7.6-3.48-4.27-1.87-9.55,3.91-5.26,7.17l3.4,2.6c-1,5.82,4.69,12.7,7.78,16.9,5.39,7.31,11.88,13.57,20.66,16.44,4.32,1.41,7.12-2.89,6.26-6.26,3,2.4,6,4.8,9,7.22,4.41,3.57,10.65-2.9,6.19-6.51q-3.49-2.82-7-5.62l8.22,4.9c4,2.39,8-2.66,6-6.17a3.71,3.71,0,0,0-.73-5.34c-1.52-1.22-3-2.49-4.47-3.77,4.52,2.43,9,4.93,13.42,7.55s8.82-3.72,5.26-7.17q-10-9.69-20.88-18.39c8.75,5,17.55,10.46,23.95,17.77,3.25,3.72,10-1.63,6.94-5.58-2.61-3.33-5.38-6.49-8.27-9.53a4.54,4.54,0,0,0,1.84-6c2.07,1.67,4.12,3.36,6.12,5.1C634,224.13,639.93,217.94,635.87,213.88Zm-68.23,25.06-.08-.09q5.82,4.54,11.61,9.14C574.54,246.06,570.9,242.83,567.64,238.94Zm10.92-41.7-1.34-1.51c1.52.76,3,1.53,4.54,2.31l2.59,2.19C582.43,199.21,580.5,198.22,578.56,197.24Zm35.5-18.68c-4-2.13-8.08-4.22-12.18-6.19A48.86,48.86,0,0,1,614.06,178.56Z"/></g><path class="cls-15" d="M91.28,258c2.18-3.47,6.43-8.86,10.32-10.16,2.77-.92,6-1.08,8.39.66a8.67,8.67,0,0,1,2.46,3.12c2.79,5.54,1.76,12.43-1.33,17.81S97.41,278,92.36,281.58c-5.73-1-16.62-5.78-19.22-11a19,19,0,0,1,.07-16.84c1.08-2.11,2.81-4.17,5.16-4.52a7.31,7.31,0,0,1,3.48.51A20,20,0,0,1,91.28,258"/><path class="cls-13" d="M317.32,326.57A44,44,0,0,1,281.53,310l-.9-.74c2.39.28,4.54-1.37,6.36-2.93a23.61,23.61,0,0,0,5.74-6.55c1.48-2.66,1.38-10.8,1.38-10.8.57,3.21,5.5,5.86,8.1,7.82a62.48,62.48,0,0,0,15.5,8.53,15.61,15.61,0,0,0,4.28,1.11,82.41,82.41,0,0,0,8.3,0c1.93,1.45,2.37,4.12,2.55,6.53a79.12,79.12,0,0,1-2.28,25.73c-1,3.78-2.38,7.68-5.37,10.18s-8,2.92-10.54-.08c-1.42-1.7-1.73-4-1.88-6.25a109.28,109.28,0,0,1,.16-15.67Z"/><path class="cls-13" d="M372.88,276.58c2.56,2,6.05,2.37,9.32,2.54,10.26.52,28.69.39,28.69.39a48.27,48.27,0,0,1,6.69,28.35,23.71,23.71,0,0,1-2.53,9.7,15.81,15.81,0,0,1-8.25,7.09,6.41,6.41,0,0,1-7.47-4.88,28,28,0,0,1-.17-12.51l2.68-.06a60.72,60.72,0,0,1-39-12.62"/><path class="cls-15" d="M294.54,44.8C318.1,42.6,327,64.11,322.13,87.19c-15.24,9-47.4-2.24-47.4-2.24S258.36,48.18,294.54,44.8Z"/><path class="cls-13" d="M338.1,79.92a77.36,77.36,0,0,1,1.84-10.46,26.8,26.8,0,0,1,2.22-6.32,16.33,16.33,0,0,1,11-8.18,10.92,10.92,0,0,1,6.28.41,6.64,6.64,0,0,1,4,4.62"/><path class="cls-13" d="M363.8,60.23a69,69,0,0,1,.64,12.27c-.12,3.29-.52,6.69-2.26,9.48-2.2,3.55-6.19,5.55-10.1,7"/><path class="cls-13" d="M340,80.24c-.53.48-.36,1.35-.07,2a10.17,10.17,0,0,0,6.83,5.36,19,19,0,0,0,8.89-.17"/><path class="cls-13" d="M275,53.39C277.19,45,279.63,36.25,285.63,30c4.09-4.25,9.55-7,15.15-8.8A61.81,61.81,0,0,1,324,18.29a46.12,46.12,0,0,1,15.59,3.61A37.26,37.26,0,0,1,361,50.62"/><path class="cls-13" d="M274.66,84.44c-1.76.77-2.6,2.76-3.16,4.6a47,47,0,0,0-1.39,5.74s15.7,8.19,24.79,8.87a185.29,185.29,0,0,0,52.16-3.54c3.45-.73,7.05-1.66,9.57-4.12,3.08-3,3.85-7.58,4.47-11.83"/><path class="cls-15" d="M278.33,116.14c-12.68,1.06-32.29,20.17-36.7,33.47-3.45,22.11,19,13.81,25.07-.09"/><path class="cls-3" d="M384.42,138.92c8.22,9.66,20.05,18.83,29.54,27.14a76.17,76.17,0,0,0,9.57-6.37S399.58,135.59,391,127.2Z"/><path class="cls-3" d="M208.76,116.41a21.11,21.11,0,0,0,11,1.3s-6.23,14.58-6.37,20.62,1.67,12.54,6.44,16.24c5.84,4.53,14.84,3.4,20.43-1.45l1.79,6.61c-6.1,4.12-12.8,8.41-20.15,7.92-6.84-.45-12.93-5.25-16.09-11.34S202.06,143,203,136.24s3.24-13.31,5.54-19.78"/><path class="cls-15" d="M208.27,116c-2.22-.44-6.21-1.31-6.62-3.53-.24-1.28-.42-2.56-.54-3.85a6.11,6.11,0,0,1,.31-3.18,5.22,5.22,0,0,1,1.67-1.83c4.24-3.15,9.86-3.52,15.14-3.76a8.27,8.27,0,0,1,2.58.14c2.17.56,3.58,2.8,3.81,5a13.75,13.75,0,0,1-1.33,6.51,50.45,50.45,0,0,1-3.33,6.76Z"/><path class="cls-13" d="M437.7,168.17c14.7,9.15,11.67,20.59-2.62,5.94"/><path class="cls-13" d="M434.17,176.5c12.35,8.25,6.24,19.53-3.47,5.52"/><path class="cls-13" d="M428.77,181.82c13.69,13.49-3.57,17-5.23-.11"/><path class="cls-13" d="M437.46,165c10.57-10.48-2.17-14.43-8.28-3.85"/><path class="cls-13" d="M422.54,181.67a24.82,24.82,0,0,1-1.06,7.76,3.62,3.62,0,0,1-6.53.86,2.51,2.51,0,0,1-.35-1.74c.46-2.32,1.58-6.83,2-9.15"/><path class="cls-15" d="M423.53,159.69c-1,.95-16.76,3.74-8.24,16.81,7,15.19,22.4.08,22-10.19C437,161.56,430.48,161,423.53,159.69Z"/><path class="cls-13" d="M220.8,112.84c2.31.64,6.33-.1,9.23.16a5.56,5.56,0,0,0,6-4.1c1.07-4.61-2.86-5.6-10.29-3.61"/><path class="cls-13" d="M201.77,104.7c-6.52-6.7-3.06-21.16,3.13-2.86"/><path class="cls-13" d="M206.94,100.93c-3.7-7.16-1.23-17.07,2.76-16.89,3,.13,3.8,7.66,2.28,16.11"/><path class="cls-13" d="M214,99.24c.26-12.78,3.68-18.16,6.75-16.71s2.64,8.13-1.76,16.94"/><path class="cls-13" d="M220,99.51c7.16-9.19,7.77-14,11.1-11.7s-2.8,10.11-6.24,14.92"/><path class="cls-13" d="M287.44,105.93c-5.86,3.35-9.12,9.83-11.69,16.07a181.79,181.79,0,0,0-9.46,30.15A42.38,42.38,0,0,0,265,163.83a16.7,16.7,0,0,0,4.34,10.71c2.25,2.29,5.27,3.63,8.26,4.78a102.78,102.78,0,0,0,67,2.12c3.32-1,6.92-2.55,8.35-5.73"/><path class="cls-13" d="M345.59,100.86c1.47,3.28,2.28,3.94,3.17,7.43"/><path class="cls-13" d="M355.22,142.61c.94,6,2.51,14,2.32,20.12s-2.5,9.69-5.88,14.76"/><path class="cls-13" d="M350.09,106.9c.14-2.92,3.05-4.87,5.78-5.89a28,28,0,0,1,9.72-1.75,13.73,13.73,0,0,1,4.42.6,9.44,9.44,0,0,1,6.09,6.65c.72,3,.66,4.71-1.55,6.94"/><path class="cls-13" d="M371.16,144.33c.09,8.58.17,18.86.26,27.45.06,6.46.11,13-1.63,19.26s-5.19,16.47-11.53,17.77c-3.08.64-19,.15-18.53-10.84"/><path class="cls-3" d="M292.34,127.75c-2.24,1-3.27,3.51-4,5.83a129.22,129.22,0,0,0-5.4,26s.66,2,3.89,3.84,7,2.25,10.7,2.49c7.78.5,16.88,1.26,24.61.21,3.08-1.86-1.18-35-2.43-35.14C310.29,129.84,292.34,127.75,292.34,127.75Z"/><path class="cls-15" d="M355.05,209.77c6.08,2.08,13.74,13.6,13.74,13.6l14.36-11.44s-7.63-9.33-14.2-14.4C369.83,199,357.83,212.62,355.05,209.77Z"/><path class="cls-13" d="M108.21-15.11C97.33-15.77,83.82-12.53,74-7.88A72.17,72.17,0,0,0,62.85-1.53C52.13,6.11,44.72,17.71,40.1,30s-5.66,18.28-7.36,31.34"/><path class="cls-3" d="M7.12,74.61c-1.64.1-2.25-2.09-2.3-3.73-.36-10.91-.13-21,3.05-31.5C13.48,20.83,23.15,1.61,38.3-10.94c19.59-16.21,49.85-19.57,74.12-12.49,14.09,4.11,25.64,14.19,34.89,25.59C154.9,11.51,160.54,22,162,32.85c2.19,17,.76,34.1-2.29,50.94-1.72,9.55-4.75,16.81-8.38,27.39-1.36,4,.47,8.55-.92,12.52-1.74,4.94-6.05,8.48-10.31,11.51-5.17,3.68-10.94,7.13-17.27,7.21a17.59,17.59,0,0,1-15.3-26.65c4.54-7.53,13.81-10.56,20.53-16.24,8.51-7.21,12.51-18.35,15.24-29.16,4.54-18,1.94-58.9-24.56-77.5C85.89-30.15,64.28-22,58.23-19,17.21,1.33,4.91,49.63,7.76,71.78"/><path class="cls-13" d="M47.31,66.75c-4-2.92-20.64-7.7-33.36,1.42-3.49,2.49-6.77,5.17-8.58,9.13-4.52,9.89-3.89,29.43,14.34,46,21.2,19.25,45.4,11.73,47.8,6.42"/><path class="cls-13" d="M103.47,145c-10.27,3.42-19.91-.8-25.32-3.86-3.1-1.76-6.24-3.69-8.28-6.61a20,20,0,0,1-3.09-9.5,47.56,47.56,0,0,1,6.84-29.4A57.66,57.66,0,0,1,95.87,74.93a40.31,40.31,0,0,1,15.67-5A28.27,28.27,0,0,1,123.8,72c2.86,1,13,4.44,13,8.76l1.86,3.08c-2.5-2.86-9.68-7.44-16.72-6.75s-10.41,1.31-16.87,4.54C99.37,84.47,93.54,89.4,89,93.78c-6.47,6.17-10.13,14.74-12.38,23.4-1.29,5-2.12,10.49.13,15.13,2.55,5.25,8.37,8,13.92,9.79a62.09,62.09,0,0,0,24.22,2.71c3.32-.23,6.89,1.24,9-1.3"/><path class="cls-2" d="M99.05,96.09s-11.48,10.5-14.37,30.39l-6,.73s.44-10,3.8-17.85c4.23-9.9,12.75-16.44,12.75-16.44Z"/><path class="cls-13" d="M42.68,135a46.63,46.63,0,0,1-23-11.74C4.21,109.21,1.44,93,3.73,82.35h0S-8.8,90.26.34,109.69s25.81,27.18,30.81,27.4S42.69,135,42.69,135Z"/><path class="cls-13" d="M73.62,95.59c.22-.36.45-.71.67-1.06a45.6,45.6,0,0,0-10.89-17C50.15,64.23,32.12,60.71,23.11,69.67s-5.55,27,7.69,40.32c11.29,11.34,26.06,15.57,35.75,11A48.15,48.15,0,0,1,73.62,95.59Z"/><g class="cls-16"><line class="cls-17" x1="43.69" y1="74.59" x2="28.54" y2="90.95"/><line class="cls-17" x1="46.94" y1="78.12" x2="31.79" y2="94.49"/><line class="cls-17" x1="50.19" y1="81.66" x2="35.04" y2="98.02"/><line class="cls-17" x1="53.45" y1="85.19" x2="38.3" y2="101.55"/><line class="cls-17" x1="56.7" y1="88.72" x2="41.55" y2="105.09"/><line class="cls-17" x1="59.96" y1="92.26" x2="44.81" y2="108.62"/><line class="cls-17" x1="63.21" y1="95.79" x2="48.06" y2="112.15"/><line class="cls-17" x1="66.46" y1="99.32" x2="51.31" y2="115.68"/><line class="cls-17" x1="69.72" y1="102.85" x2="54.57" y2="119.22"/><line class="cls-17" x1="43.96" y1="74.6" x2="69.72" y2="102.79"/><line class="cls-17" x1="41.35" y1="76.99" x2="67.11" y2="105.17"/><line class="cls-17" x1="38.74" y1="79.37" x2="64.5" y2="107.56"/><line class="cls-17" x1="36.13" y1="81.76" x2="61.89" y2="109.94"/><line class="cls-17" x1="33.52" y1="84.15" x2="59.28" y2="112.33"/><line class="cls-17" x1="30.91" y1="86.53" x2="56.67" y2="114.71"/><line class="cls-17" x1="28.3" y1="88.92" x2="54.07" y2="117.1"/></g><path class="cls-2" d="M96.84,91.32s3.54-4.52,6.91-5.52l2.68,2.87a30.54,30.54,0,0,0-3.51,3.14,16.67,16.67,0,0,0-2.62,3Z"/><path class="cls-18" d="M252.26,318.18c3.06-.21,7-.69,7.39-8.68.23-5-5.63-6.17-7.14-4.92,1.31-5.43,1.58-11.42-1-16.37-1.23-2.33-3.32-4.48-5.95-4.66a7,7,0,0,0-5.69,2.86,21.05,21.05,0,0,0-3,5.9A8.58,8.58,0,0,0,235.3,287a5,5,0,0,0-5-1.91,11.09,11.09,0,0,0-4.69,2.89c-2.59,3.2-3.34,6.7-4.51,10.64-.37-2.21-3.93-2.35-5.28-.55s-1.09,4.3-.61,6.49c0,0,1.51,3,8.55,2.36s6.9,2.31,11.8,4.53a60.33,60.33,0,0,0,10,3.29l.89.2S248.93,318.41,252.26,318.18Z"/><path class="cls-18" d="M199.89,12.53c3.07-.22,7-.69,7.4-8.68.22-5-5.63-6.17-7.14-4.93,1.31-5.43,1.57-11.41-1-16.36-1.22-2.33-3.32-4.48-5.94-4.66a7,7,0,0,0-5.69,2.86,20.79,20.79,0,0,0-2.95,5.9,8.63,8.63,0,0,0-1.61-5.35,5,5,0,0,0-5-1.9,11.07,11.07,0,0,0-4.7,2.89c-2.59,3.19-3.33,6.7-4.5,10.64-.38-2.22-3.93-2.35-5.29-.56s-1.08,4.3-.61,6.5c0,0,1.51,3,8.55,2.36s6.91,2.31,11.81,4.53a61.31,61.31,0,0,0,10,3.29l.89.2S196.57,12.75,199.89,12.53Z"/><path class="cls-3" d="M77.53,167.33A909.48,909.48,0,0,1-4.6,207.13a9.16,9.16,0,0,1-4.52,1.05,9.18,9.18,0,0,1-3.19-1.24l-39.24-21.31.15-.66C-11,180.59,37.71,171.73,78.7,167Z"/><path class="cls-3" d="M46.29,245.56C35,242.64,12.46,232.83,7.44,222.25c24.43-15.41,42.47-39.63,67.45-54.13l8-1.68Z"/><path class="cls-15" d="M8.85,224.25C2.84,231.77-3,239.09-9,246.61c-.28-12.49-.77-24.78-1.06-37.27l83.41-40Z"/><path class="cls-13" d="M-11.77,268.41c-1.56,8.07,3.13,16,8.41,22.31a99.11,99.11,0,0,0,38.11,27.93"/><path class="cls-13" d="M15.87,240.39a66.58,66.58,0,0,0-6.66,12.84,25.28,25.28,0,0,0-1.15,14.25c2.12,8.71,9.86,14.71,17.11,20"/><path class="cls-3" d="M241.6,217.3c1.36-2.92,5.12-5.12,5.12-5.12l.41.13a13.07,13.07,0,0,1,8.49,8.61h0s-2.57,3.68-5.88,5.05"/><path class="cls-13" d="M186.91,280c1.28,6.78,1.06,13.73,1.6,20.6a1.4,1.4,0,0,0,.42,1.09c.59.42,1.33-.22,1.81-.76,3.71-4.17,8.55-6.1,12.44-10.11"/><path class="cls-15" d="M234.73,221a20.14,20.14,0,0,1,2.86-3.91,1.83,1.83,0,0,1,.72-.48,1.86,1.86,0,0,1,1.06.14c4.71,1.71,8.88,6.49,10.67,11.17a39,39,0,0,0-4.92,3.85"/><path class="cls-3" d="M197.45,278.68c-.51,1.5-.86,5.52-.51,5.69s3.92-1,4.1-.88,1.27,5.34,1.75,7.73c0,0,28.32-37.83,41.82-56.82a3.35,3.35,0,0,0,.77-1.69,3.29,3.29,0,0,0-.44-1.54l-2.11-4.54a104.58,104.58,0,0,0-9.13-5.23,3,3,0,0,0-2-.43,3.14,3.14,0,0,0-1.53,1.2q-22.8,27.24-43.52,56.15S194.83,279.86,197.45,278.68Z"/><path class="cls-13" d="M221.53,243.13c5-7.63,9.78-13.1,16-19.8"/><path class="cls-13" d="M218.57,250a59.86,59.86,0,0,1-7.17,9.09"/><path class="cls-13" d="M187.62,299.23a7.1,7.1,0,0,1,4.23-4,1.81,1.81,0,0,1-.07,2.28,5.35,5.35,0,0,1-2.05,1.38,1.13,1.13,0,0,1-.75.15c-.64-.19-.16-1.36.49-1.2s.83,1.08.5,1.66a3.38,3.38,0,0,1-1.6,1.16,2,2,0,0,1,.55-1.85"/><path class="cls-6" d="M190.5,301.32a112.85,112.85,0,0,1-13.59,3.37c-1.18.2-2.24.43-3.55.56a7.28,7.28,0,0,1-4.31-.72,4.42,4.42,0,0,1-1.81-2,5,5,0,0,1-.35-2.59,11.29,11.29,0,0,1,1.43-3.88h0l0,1.9a1,1,0,0,0,.33.31.6.6,0,0,0,.2.07.63.63,0,0,0-.29,0c-.15,0-.47.13-.75.2l-.85.25c-1.12.34-2.24.75-3.34,1.2a59.82,59.82,0,0,0-6.48,3.19c-4.25,2.36-8.36,5.13-12.73,7.6-.55.31-1.09.62-1.65.92l-.84.44-.42.23-.51.24a4.87,4.87,0,0,1-1.3.4,3.06,3.06,0,0,1-1.88-.28,2.86,2.86,0,0,1-1.4-1.62,3.75,3.75,0,0,1-.12-1.69,6,6,0,0,1,.34-1.24c.07-.19.15-.37.23-.54l.21-.43c.29-.57.55-1.14.85-1.7.58-1.12,1.19-2.23,1.82-3.32a141.14,141.14,0,0,1,8.29-12.51l4.33-6,1.07-1.51.53-.75a6,6,0,0,0,.36-.57,1,1,0,0,0,.13-.34c0-.06,0,.07,0,.31a.86.86,0,0,0,.37.46c.07,0,0,0-.18,0a8.29,8.29,0,0,0-2.87.36c-1.06.28-2.24.73-3.37,1.11-2.27.82-4.52,1.69-6.71,2.69a76,76,0,0,0-23.38,16.36,4.4,4.4,0,0,1-6.35-6.08,4.83,4.83,0,0,1,.65-.56l.06,0a122.77,122.77,0,0,1,27.11-14.32c2.38-.88,4.78-1.7,7.21-2.42,1.23-.34,2.39-.69,3.72-1a12.07,12.07,0,0,1,4.48-.32,4.75,4.75,0,0,1,1.59.5,3.34,3.34,0,0,1,1.59,1.8,3.57,3.57,0,0,1,.08,2.13,5,5,0,0,1-.57,1.37,7.9,7.9,0,0,1-.66,1l-.56.74L155.59,286l-4.53,5.87a138.23,138.23,0,0,0-8.37,12c-.61,1-1.21,2.09-1.78,3.15a15.81,15.81,0,0,0-1.33,2.86c0,.14,0,.21,0,.15a.45.45,0,0,0-.22-.25c-.13-.06-.18,0-.08,0a2.58,2.58,0,0,0,.47-.15l.32-.15.4-.21.81-.42c.53-.28,1.06-.59,1.59-.88,4.23-2.39,8.35-5.14,12.69-7.66a73.07,73.07,0,0,1,6.77-3.48c1.17-.51,2.37-1,3.59-1.41l.92-.3a8.84,8.84,0,0,1,1-.31,4.41,4.41,0,0,1,1.55-.09,3.07,3.07,0,0,1,1.08.35,2.84,2.84,0,0,1,1,.93,1.83,1.83,0,0,1,0,1.9h0a8.15,8.15,0,0,0-1.16,2.5,1.65,1.65,0,0,0,0,.81,1.11,1.11,0,0,0,.42.55,4.28,4.28,0,0,0,2.41.46c1,0,2.21-.2,3.31-.33A106.72,106.72,0,0,0,190,299.39a1,1,0,0,1,.55,1.93Z"/><path class="cls-19" d="M414.36,107.27h23.18a2.1,2.1,0,0,1,2.1,2.1v12.16a13.57,13.57,0,0,1-13.57,13.57h0a13.57,13.57,0,0,1-13.57-13.57V109.13A1.85,1.85,0,0,1,414.36,107.27Z" transform="translate(140.24 -217.23) rotate(33.94)"/><path class="cls-19" d="M382.61,85.9h23.18a2.1,2.1,0,0,1,2.1,2.1v12.16a13.57,13.57,0,0,1-13.57,13.57h0a13.57,13.57,0,0,1-13.57-13.57V87.76A1.85,1.85,0,0,1,382.61,85.9Z" transform="translate(122.9 -203.14) rotate(33.94)"/><path class="cls-20" d="M390.57,83.81A263.92,263.92,0,0,1,415.2,99.26"/><path class="cls-20" d="M412.61,97.78c-.13-.11,0-.36.16-.39a.81.81,0,0,1,.49.17l4.12,2.76a18.51,18.51,0,0,1,3.24,2.52.82.82,0,0,1,.29.58.8.8,0,0,1-.24.44l-2.13,2.46.66.61a90.61,90.61,0,0,1-8.85-6.33"/><path class="cls-6" d="M400,90a1.39,1.39,0,0,1,1.14-2.5l22.06,6c5.54,1.5,11.27,3,16.33,6.18a3.47,3.47,0,0,1,1.5,1.59,3.54,3.54,0,0,1,.13,1.78l-.51,3.81a1.39,1.39,0,0,1-2.76-.36l.51-3.81c0-.11,0-.28,0-.38a1.92,1.92,0,0,0-.37-.26c-4.71-2.92-10.24-4.42-15.59-5.87l-22.06-6A1.4,1.4,0,0,1,400,90Z"/><path class="cls-21" d="M392.33,88.14a15.16,15.16,0,0,0-3.67,2"/><path class="cls-21" d="M398.09,91.82a42.75,42.75,0,0,0-13.32,5"/><path class="cls-21" d="M403.83,96.45l-19.05,5.8"/><path class="cls-21" d="M402,104.17q-5.31,1.53-10.48,3.54"/><path class="cls-21" d="M425.45,111l-5.14,1.74"/><path class="cls-21" d="M434.07,116.12l-16.81,5.13"/><path class="cls-21" d="M438.91,121.53l-20.5,6.18"/><path class="cls-21" d="M429.6,130l-5.45,1.83"/><rect class="cls-19" x="408.99" y="99.31" width="12.53" height="4.87" transform="translate(127.54 -214.5) rotate(33.94)"/><path class="cls-6" d="M478.92,133.77l.09-1.41c.07-1,.13-1.92.17-2.88a3,3,0,0,0-1.05-2.6A4.73,4.73,0,0,0,476,126l-.34-.07c-2.74-.72-5.5-1.53-8.2-2.4s-5.34-1.81-8-2.81c-1-.39-2-.81-3-1.22-1.38-.57-2.8-1.16-4.25-1.68a18.28,18.28,0,0,0-8.52-1.28,2,2,0,0,0-1.77,2.33,2.21,2.21,0,0,0,1,1.52,2.16,2.16,0,0,0,1.5.36c3.3-.4,6.72,1.06,10,2.46.81.34,1.6.68,2.39,1a158.21,158.21,0,0,0,15.27,5.13l2.13.58.66.18c0,.1,0,.2,0,.31,0,.27-.06.53-.07.78l-.13,2.22a2.13,2.13,0,0,0,.93,1.91h0a2.27,2.27,0,0,0,2.18.18A2,2,0,0,0,478.92,133.77Zm-3.44-.3h0Z"/><ellipse class="cls-22" cx="368.13" cy="285.73" rx="10.51" ry="5.5" transform="translate(-61.27 466.78) rotate(-60.68)"/><circle class="cls-23" cx="405.29" cy="287.5" r="2.5"/><circle class="cls-13" cx="294.05" cy="122.85" r="2"/><circle class="cls-13" cx="319.93" cy="126.02" r="2"/><path class="cls-24" d="M349.42,108.26c14.61,1.91,30.39,5,42.79,12.86-.67,29.15-27.94,23.95-50,17.6C335.84,129.45,338.11,111.53,349.42,108.26Z"/><path class="cls-15" d="M352.08,177.42a68.58,68.58,0,0,1-33.72,8.92c-19.14-.19-37.49-4.79-43.58-8.18s-8-5.48-8-5.48c.69,5,3.44,11.67,5.56,16.29,3.48,7.59,6.39,12.25,14,15.62,4.75,2.1,15.66,4.26,20.84,3.94,10.52-.65,17.19-1.54,26.34-6.76s16.66-14,18.52-24.35"/><path class="cls-3" d="M283.88,302.87c-.37.15-29.41-16.39-30.79-46.6-.91-19.65,6.29-43.34,16.41-60a14,14,0,0,1,3.74-4.46,5.52,5.52,0,0,1,5.53-.67,5.42,5.42,0,0,1,2.5,5.49,12,12,0,0,1-2.78,5.7c-6.08,7.7-10.36,14.66-12.89,24.31a70.2,70.2,0,0,0-1.58,28c2.14,14.44,9.63,34.26,23.93,40.43C288,295.05,289.9,300.43,283.88,302.87Z"/><path class="cls-3" d="M370.34,284.62a55.91,55.91,0,0,1-43.9-46.8c-1.71-11.73,1.48-23.69,4.8-34.86.54-1.8,1-4-.26-5.37a2.83,2.83,0,0,0-3.67-.36,5.06,5.06,0,0,0-1.18,1.38c-8.75,13.19-11.09,29.94-8,45.46,5.3,26.25,34.48,41.36,38.55,43.76a26.54,26.54,0,0,0,11.91,3.47l0,0A6.19,6.19,0,0,0,370.34,284.62Z"/><path class="cls-6" d="M56.26,59.76l7.14-.08-.62.5,1.67-10.62a.59.59,0,0,1,.67-.5.56.56,0,0,1,.26.11l.05,0,6.16,4.51-2.08.68,4.12-21.27a1.67,1.67,0,0,1,3.29.63v.06L72,54.92l0,.13a1.2,1.2,0,0,1-1.44.9,1.16,1.16,0,0,1-.6-.34l-5.28-5.52,1-.35L64,60.36v0a.55.55,0,0,1-.61.47l-7.1-.72a.19.19,0,0,1-.17-.21A.19.19,0,0,1,56.26,59.76Z"/><path class="cls-6" d="M49.31,53.46,57.65,50l-.38.53.19-10.69h0a.86.86,0,0,1,.87-.85.88.88,0,0,1,.33.07l6.91,3-.8.45,1.69-19.14a2.16,2.16,0,1,1,4.3.38,2,2,0,0,1-.06.35L65.94,42.63v0a.62.62,0,0,1-.74.45l0,0L58,40.66l1.21-.78-.77,10.66v0a.55.55,0,0,1-.38.49L49.49,54a.27.27,0,0,1-.33-.17A.26.26,0,0,1,49.31,53.46Z"/><path class="cls-6" d="M92.59,67.83l-7.08-3.66a.59.59,0,0,1-.25-.78.7.7,0,0,1,.18-.2v0l6.15-4.48,0,1-5.77-3.83a.58.58,0,0,1-.2-.76l0,0,4.51-8.47L90,47.62,86.77,36.83A1.5,1.5,0,0,1,89.64,36v0l2.9,10.89,0,.11a1.13,1.13,0,0,1-.18,1l-5.72,7.71-.18-.82,5.78,3.83a.59.59,0,0,1,.16.82.67.67,0,0,1-.14.15l-6.15,4.48-.06-1,6.84,4.09a.34.34,0,0,1-.34.6Z"/><path class="cls-6" d="M102.27,63.39l-3.64-3.5a.56.56,0,0,1,0-.8.57.57,0,0,1,.18-.12l0,0,4.86-2.16-.24.89L99,51.54a.59.59,0,0,1,0-.67l0,0,4.68-7.19-.13,1L96.45,29.21a1.75,1.75,0,1,1,3.19-1.46l.06.13,5.79,16,0,.1a1,1,0,0,1-.16.94l-5.44,6.62v-.7L104.4,57a.6.6,0,0,1-.13.83l-.11.07L99.31,60l.19-.95L102.66,63a.27.27,0,0,1-.39.36Z"/><path class="cls-6" d="M70.16,67.7l4.58-3.83a.52.52,0,0,1,.68,0l.09.08,3.82,3.33-1.46-.21,4-1.72.11,0a.55.55,0,0,1,.72.27l2.87,6.33a.11.11,0,0,1-.06.14.11.11,0,0,1-.13,0l-3.72-5.86.82.23-3.37,2.7a1,1,0,0,1-1.42-.16l0,0,0,0-3-4.11.78.09-5.24,2.87a0,0,0,0,1,0,0Z"/><polygon class="cls-2" points="398.27 21.95 397.13 31.68 404.5 38.13 394.9 40.06 391.04 49.06 386.24 40.52 376.49 39.63 383.13 32.43 380.96 22.88 389.86 26.97 398.27 21.95"/><polygon class="cls-6" points="386.24 40.52 376.49 39.63 383.13 32.43 381.95 27.25 376.64 24.81 378.81 34.36 372.17 41.56 381.92 42.45 386.72 50.98 389.06 45.53 386.24 40.52"/><polygon class="cls-6" points="407.56 8.59 408.95 4.96 406.74 1.36 403.61 9.54 407.56 8.59"/><polygon class="cls-6" points="404.98 25.87 405.66 17.05 398.88 11.57 393.72 12.81 401.34 18.97 400.59 28.73 404.98 25.87"/><polygon class="cls-6" points="413.12 21.47 409.63 23.73 417.85 27.12 416.73 22.96 413.12 21.47"/><polygon class="cls-6" points="438.59 16.13 428.8 16.01 434.85 8.31 433.17 2.92 427.61 0.88 430.53 10.23 424.48 17.93 434.27 18.05 439.73 26.18 441.61 20.62 438.59 16.13"/><polygon class="cls-6" points="461.17 28.67 453.59 23.48 448.77 25.05 456.85 30.59 456.87 40.38 461.18 37.06 461.17 28.67"/><polygon class="cls-6" points="462.4 20.09 463.52 16.28 460.85 12.62 458.24 21.45 462.4 20.09"/><polygon class="cls-6" points="468.95 32.49 465.91 34.83 473.95 37.42 472.61 33.67 468.95 32.49"/><polygon class="cls-6" points="483.22 40.88 486.49 38.15 486.42 36.53 481.71 40.46 483.22 40.88"/><polygon class="cls-6" points="490.25 53.01 490.16 53.37 495.11 51.53 494.79 51.33 490.25 53.01"/><polygon class="cls-6" points="481.77 54.83 472 55.48 477.43 47.33 475.2 41.77 469.47 40.16 473.11 49.25 467.68 57.41 477.45 56.75 483.53 64.43 484.95 58.84 481.77 54.83"/><path class="cls-25" d="M413.35,54.85l7.47.24a20.72,20.72,0,0,0,.44,5.26,103.47,103.47,0,0,1,1.35,17.92,1.65,1.65,0,0,1-.13.77,1.47,1.47,0,0,1-.73.56,11.19,11.19,0,0,1-3.59.72q-3.36.29-6.74.27a1.55,1.55,0,0,1-1-.21,1.52,1.52,0,0,1-.43-.68A25.57,25.57,0,0,1,408.72,73c-.57-5.81-.85-11.77.69-17.4a1.35,1.35,0,0,1,.31-.62,1.22,1.22,0,0,1,.7-.26,10.73,10.73,0,0,1,2.83,0Z"/><path class="cls-26" d="M423.44,78.92a8.6,8.6,0,0,1,5.73.69,49.39,49.39,0,0,0,5.41,2.31,21.92,21.92,0,0,0,3.95.6c7.43.67,21.87-1.68,21.87-1.68,3.52-1.37,2.15-5.82,1.8-7.63,4.91-5.4.7-8.39.7-8.39s3.07-7.47-2.07-10.52c8.86-12.71-16.25-7-22.77-7.11-1.62-5.21-.05-12.65-3.5-18C423.1,23,432,54.73,420.7,56.25"/><path class="cls-27" d="M417.18,72.89a3.18,3.18,0,0,0-3.2.51,2.48,2.48,0,0,0-.49,3.09,2,2,0,0,0,3,.45,3,3,0,0,0,.78-1.62,2.89,2.89,0,0,0,0-1.65,1.26,1.26,0,0,0-1.31-.83"/><path class="cls-26" d="M460.83,54.3s-.5-.55-4.22-.19"/><path class="cls-26" d="M456.66,64.7c-2.22-.11,7.75.34,5.81.26"/><line class="cls-26" x1="456.81" y1="73.17" x2="462.09" y2="73.41"/><polygon class="cls-2" points="425.98 8.28 419.63 15.74 422.17 25.2 413.12 21.47 404.91 26.81 405.66 17.05 398.04 10.89 407.56 8.59 411.06 -0.56 416.19 7.78 425.98 8.28"/><polygon class="cls-2" points="456.61 12.31 447.19 14.98 444.05 24.26 438.59 16.13 428.8 16.01 434.85 8.31 431.93 -1.04 441.13 2.33 449.12 -3.33 448.75 6.46 456.61 12.31"/><polygon class="cls-2" points="478.27 35.5 468.95 32.49 461.19 38.46 461.17 28.67 453.09 23.13 462.4 20.09 465.17 10.69 470.94 18.6 480.73 18.34 474.99 26.27 478.27 35.5"/><polygon class="cls-2" points="487.85 62.51 481.77 54.83 472 55.48 477.43 47.33 473.79 38.24 483.22 40.88 490.74 34.6 491.14 44.39 499.43 49.6 490.25 53.01 487.85 62.51"/><path class="cls-13" d="M444.23,233.69s.54-12-19.87-17.23-24.61,14.78-24.61,14.78a12.14,12.14,0,0,0-1.38-6.64,5.51,5.51,0,0,0-4.42-2.5c-1.83-.22-3.67-.12-5.5-.21a33.4,33.4,0,0,1-4.69-.86c-1.21-.23-2.95-.5-3.78.66,0,0,3.58,3.27,6.45,6.41s4.77,5.21,3.59,9.17-3,21.88,7.83,26.37,24.33-6.91,24.33-6.91"/><path class="cls-13" d="M437.52,222.4s8.42-19.94,30.74-18.8"/><path class="cls-13" d="M457.62,204.78s-11.52-35.07,22.67-38.54,31,23.41,31,23.41"/><path class="cls-13" d="M509.5,178.51s19.61-7.08,24.93,8.17,4.16,31.36-5.24,33.87"/><path class="cls-13" d="M420.09,258.63s-1.16,26,9.34,37.46c5.72,6.26,21.61,9,27.88,3.25a61.46,61.46,0,0,0,10.61-13.54"/><path class="cls-13" d="M464.25,291.42s1.23,4.28,10.35,1.69,8.4-8.63,8.4-8.63"/><path class="cls-13" d="M481.67,289.46s22.46,15,33.07,1.45,1.35-30,1.35-30"/><path class="cls-13" d="M534.8,216.22s12.64,15.09,6,28.81-11.7,15.49-11.7,15.49"/><path class="cls-13" d="M533.31,257s5.69,23.85-13.81,14.52"/><path class="cls-13" d="M506.9,242.51s3.13-2.87,3.49-10.86-8.63-8.39-8.63-8.39"/><path class="cls-13" d="M487.29,255.64s10.13-2.55,9.73,6.44"/><path class="cls-28" d="M569.09,227.83c12.16,1.37,6.51-26.52,8.54-33.86l8.88.4c-1.25,7.89,1.36,32.65-5.71,37.43-2.74,2.28-6.94,3.2-11.14,3Zm13-37.17c-6.14-.16-5.59-10.33.56-9.82C588.85,180.94,588.37,191.21,582.11,190.66Z"/><path class="cls-28" d="M592.47,215.47c1.95,1.47,11,4.6,11.46.28-1.4-4.23-13.82-6.21-11.79-12.35-.45-8.77,13.73-10.94,20-6.83l-1.79,6c-1.61-1.1-9.25-3.67-9.62.27,1.59,3.93,13.31,5.54,12.53,12.4-1,9.12-16.16,11-22.62,6.47Z"/><path class="cls-29" d="M555.47,256.31c-2.35,9.57-2.32,10.74,7.86,11.58l1.72-9.92c11.9-3.82,0,23,1.34,26.73-9,.56-4.19-6.48-3.94-11.74-10.61-3.08-10.19-.56-11.44,9.07-11.91,3.82,0-23-1.35-26.73Z"/><path class="cls-29" d="M582.12,267.6c-4.54-.49-8.37.67-6.58-5.57,3,1.85,24.9-2,19.54,6.75-11.72-5.4-6.93,15-9,20.42C575.06,293.21,583.42,271.6,582.12,267.6Z"/><path class="cls-29" d="M624.42,271.88c-8.9-28,5.17,34.4-13.35,3.65-10-17.94-1.4,2.66,0,11.06-8.69,8.72-8.9-21.35-11.49-23.75,10-6.57,12.65,7.28,17.64,13.36.36-8.08-4.65-20.72,6.93-21.12l9.2,24.47C626.12,283.83,626.62,276.55,624.42,271.88Z"/><path class="cls-15" d="M359.38,183.84s6.13,5.95,10,3.79"/><path class="cls-15" d="M360.65,177.89s6.12,6,10,3.79"/><path class="cls-15" d="M360.92,171.9s6.12,5.95,10,3.79"/><path class="cls-15" d="M361.19,165.9s6.12,5.95,10,3.79"/><path class="cls-15" d="M361.41,160.91s6.12,6,10,3.79"/></svg>