<?xml version="1.0" encoding="utf-8"?>
<!-- Generator: Adobe Illustrator 24.2.1, SVG Export Plug-In . SVG Version: 6.00 Build 0)  -->
<svg version="1.1" id="Layer_1" xmlns="http://www.w3.org/2000/svg" xmlns:xlink="http://www.w3.org/1999/xlink" x="0px" y="0px"
	 viewBox="0 0 40 38.3" style="enable-background:new 0 0 40 38.3;" xml:space="preserve">
<style type="text/css">
	.st0{fill:#F46036;}
	.st1{fill:#F76746;}
</style>
<path class="st0" d="M4.5,37.8c-0.3,0-0.6-0.1-0.8-0.2c-0.5-0.4-0.9-1.2-0.2-2.3c0.8-1.3,1.6-2.7,2.2-4.1c-1.4-0.1-2.6-0.7-3.5-1.7
	c-1.8-2-2-5.2-1.6-7.6c0.8-4.7,2.8-9.3,6-13.2c2.8-3.4,6.6-7.5,11.7-7.9c5.6-0.5,9.1,3.8,9.9,8c0.6,3.1,0.5,6.4-0.3,9.7
	c3.1-2,6.2-4.2,9.1-6.6c0.4-0.4,0.9-0.5,1.4-0.3c0.5,0.2,1,0.6,1.1,1.1c0.1,0.5-0.1,1-0.5,1.3c-3.7,3.1-7.8,6-12.4,8.7
	c-0.1,0.2-0.1,0.3-0.2,0.5c-1,2.3-2.2,4.5-3.6,6.4l-0.1,0.1c-1.1,1.6-2.5,3.5-4.7,4.4c-1.6,0.6-3.3,0.9-4.7-0.6
	c-1-1-1.2-2.4-1.2-3.7c-1,0.4-2,0.8-3.1,1.1c-0.8,2-1.9,4-3.1,5.9c-0.1,0.2-0.2,0.3-0.3,0.4l0,0C5.2,37.7,4.8,37.8,4.5,37.8z
	 M15.4,28.4l0,0.5c0.1,2,0.3,2.8,0.9,2.8c1.9,0.1,3.4-1.9,4.4-3.3L21,28c0.7-1,1.4-2.1,2-3.3C20.6,26.1,18.1,27.3,15.4,28.4z
	 M19.7,3.6c-0.1,0-0.3,0-0.4,0c-1.9,0.1-3.9,1.1-6,2.9c-3,2.5-5.6,5.8-7.2,9.3c-0.8,1.7-1.4,3.3-1.8,4.9c-0.5,2-1,4.1-0.3,5.8
	c0.4,0.9,1.1,1.6,2.1,1.8c0.3,0.1,0.6,0.1,0.9,0.1c1.2-3,2.2-6.2,3.1-9.2c0.7-2.3,1.4-4.7,2.3-7c0.1-1.2,0.3-2.6,0.7-2.9L13.3,9
	l0.4,0.1c0.4-0.4,1-0.5,1.5-0.3c0.3,0.1,1.1,0.6,0.9,1.9c-0.4,4-0.6,7.3-0.7,10.2c0,0.6,0,1.3,0,1.9c0,0.8,0,1.7,0,2.5
	c3.2-1.4,6.4-3.1,9.5-4.9c0.3-0.9,0.6-1.8,0.8-2.8c1-5.3,0.7-9.1-1.1-11.6C23.5,4.9,21.8,3.6,19.7,3.6z M12.2,21.8
	c-0.2,0.7-0.4,1.4-0.6,2.1c-0.3,1.1-0.7,2.3-1.1,3.5c0.6-0.2,1.2-0.5,1.8-0.7C12.2,25.5,12.2,23.7,12.2,21.8z"/>
<path class="st1" d="M4.9,36.6c0.1-0.1,0.1-0.2,0.2-0.3c2.5-3.9,4.1-8.3,5.5-12.7s2.4-8.9,3.9-13.3c-0.3-0.1-0.7-0.2-1-0.3
	c-0.1,0-0.4,3.9-0.4,4.3c0,1.5,0,10.1,0,13c0,1.6-0.5,4.1,0.8,5.5c1.1,1.1,2.2,0.9,3.7,0.3c2-0.8,3.3-2.6,4.3-4.1
	c1.4-1.9,2.5-4.1,3.5-6.3c1.9-4.3,2.6-9.2,1.8-13.8c-0.7-3.7-3.8-7.7-8.9-7.2C13.6,2.2,9.9,6.2,7.4,9.4c-3.1,3.8-5.1,8.2-5.8,12.8
	c-0.5,3.2,0.1,8.6,5.5,8.1c2.7-0.2,5.6-1.8,7.9-2.7c2.8-1.2,5.6-2.6,8.3-4.1c5.4-3,10.4-6.3,15.1-10.2c0.5-0.4-0.3-1.1-0.7-0.6
	C31.1,18,23.7,22.7,15.6,26.3c-1.8,0.8-3.6,1.5-5.4,2.2c-1.4,0.5-3,1.1-4.4,0.8C4.4,29,3.5,28,3.1,26.9c-0.8-2-0.3-4.4,0.2-6.4
	c0.4-1.8,1.1-3.4,1.9-5.1c1.7-3.5,4.2-6.9,7.5-9.6c1.7-1.4,4-2.9,6.5-3.1c2.5-0.2,4.7,1.1,6,2.9c2.5,3.4,2,8.6,1.3,12.3
	c-0.8,3.8-2.4,7.4-4.7,10.7c-1.2,1.6-2.8,4.2-5.5,4.1c-1.7-0.1-1.7-2.1-1.8-4.2c-0.2-2.5,0-5.1,0-7.6c0-3.4,0.3-6.9,0.7-10.3
	c0-0.3,0-0.8-0.3-0.9c-0.4-0.1-0.7,0.3-0.9,0.7c-3.3,8.5-4.8,17.7-9.7,25.4c-0.2,0.3-0.4,0.7-0.1,1C4.5,37,4.7,36.8,4.9,36.6z"/>
</svg>
