<?xml version="1.0" encoding="utf-8"?>
<!-- Generator: Adobe Illustrator 22.1.0, SVG Export Plug-In . SVG Version: 6.00 Build 0)  -->
<svg version="1.1" id="Layer_1" xmlns="http://www.w3.org/2000/svg" xmlns:xlink="http://www.w3.org/1999/xlink" x="0px" y="0px"
	 viewBox="0 0 40 40" style="enable-background:new 0 0 40 40;" xml:space="preserve">
<style type="text/css">
	.st0{fill:#F46036;}
</style>
<g>
	<path class="st0" d="M5.8,39.6c5-9.3,8.9-19.1,11.8-29.2c-0.3-0.1-0.6-0.2-1-0.3c-1,6.3-2.1,12.6-3.1,19c-0.3,1.8-1.1,4.3,0.2,5.9
		c1,1.2,2.8,1.3,4.2,0.7c1.9-0.9,3.1-3,4.1-4.7c1.3-2.2,2.4-4.6,3.3-7.1C27.1,19,27.8,13.5,27,8.3c-0.7-4.2-3.6-8.7-8.4-8.2
		c-4.6,0.5-8.1,5-10.5,8.6C5.2,13,3.3,18,2.6,23.2c-0.5,3.6,0.1,9.7,5.2,9.2c2.6-0.2,5.3-2,7.5-3.1c2.7-1.4,5.3-2.9,7.9-4.6
		c5.1-3.4,9.9-7.2,14.3-11.6c0.5-0.5-0.3-1.2-0.7-0.7c-6.2,6.1-13.2,11.4-20.9,15.5c-1.7,0.9-3.4,1.7-5.1,2.5
		c-1.3,0.6-2.8,1.3-4.2,0.9c-1.3-0.4-2.2-1.5-2.6-2.7c-0.8-2.3-0.3-5,0.2-7.3c0.4-2,1-3.9,1.8-5.8c1.6-4,4-7.8,7.1-10.9
		c1.6-1.6,3.8-3.3,6.2-3.5c2.4-0.2,4.5,1.3,5.7,3.3c2.4,3.9,1.9,9.7,1.2,14c-0.8,4.3-2.3,8.4-4.5,12.1c-1.1,1.8-2.7,4.8-5.2,4.6
		c-3.3-0.2-1.3-6.4-1-8.4c0.9-5.5,1.8-10.9,2.7-16.4c0.1-0.6-0.8-0.9-1-0.3C13.8,20.2,9.9,29.9,5,39.1C4.7,39.7,5.5,40.2,5.8,39.6
		L5.8,39.6z"/>
</g>
</svg>
